<svg id="svg" version="1.1" xmlns="http://www.w3.org/2000/svg" xmlns:xlink="http://www.w3.org/1999/xlink" width="400" height="398.2142857142857" viewBox="0, 0, 400,398.2142857142857"><g id="svgg"><path id="path0" d="M59.129 94.636 C 49.686 96.710,44.275 105.768,46.412 115.926 C 49.662 131.377,71.966 133.597,79.155 119.185 C 80.888 115.712,80.852 107.647,79.089 104.152 C 77.356 100.715,74.145 97.118,72.316 96.563 C 71.875 96.430,71.244 96.084,70.913 95.795 C 69.288 94.375,63.094 93.766,59.129 94.636 M32.633 153.321 C 22.380 156.373,16.992 170.538,22.840 179.064 C 24.437 181.393,29.099 185.597,30.400 185.883 C 31.094 186.036,32.105 186.451,32.646 186.805 C 33.396 187.297,34.630 187.450,37.831 187.450 C 42.139 187.449,42.220 187.429,47.012 185.138 C 53.623 181.976,57.746 169.495,54.177 163.446 C 53.742 162.709,53.386 161.925,53.386 161.704 C 53.386 160.834,48.941 155.777,48.177 155.777 C 48.008 155.777,47.363 155.352,46.744 154.832 C 44.417 152.881,36.836 152.069,32.633 153.321 M114.923 160.747 C 112.942 161.018,110.700 161.521,109.943 161.865 C 109.185 162.209,107.938 162.617,107.171 162.771 C 106.404 162.926,105.349 163.387,104.827 163.797 C 104.304 164.207,103.553 164.542,103.157 164.542 C 102.761 164.542,102.315 164.740,102.166 164.982 C 102.016 165.224,101.238 165.717,100.436 166.077 C 94.094 168.930,82.170 182.928,82.060 187.649 C 82.053 187.978,81.797 188.577,81.491 188.980 C 81.186 189.382,80.715 190.996,80.444 192.565 C 80.174 194.134,79.797 195.622,79.607 195.871 C 79.056 196.591,78.777 206.327,79.231 208.964 C 80.098 213.994,80.885 217.368,81.414 218.327 C 81.716 218.875,82.085 219.832,82.233 220.453 C 82.382 221.075,83.078 222.565,83.781 223.763 C 84.484 224.961,85.329 226.451,85.657 227.073 C 87.761 231.056,97.982 241.036,99.958 241.036 C 100.141 241.036,100.719 241.370,101.241 241.778 C 101.764 242.186,102.639 242.658,103.187 242.826 C 103.735 242.995,104.631 243.442,105.179 243.819 C 105.727 244.197,106.903 244.619,107.792 244.756 C 108.682 244.893,110.014 245.307,110.754 245.676 C 114.830 247.709,130.588 247.546,135.249 245.423 C 136.217 244.982,137.342 244.622,137.751 244.622 C 138.491 244.622,143.090 242.416,145.056 241.119 C 150.492 237.532,153.928 234.604,156.175 231.644 C 157.161 230.346,158.192 229.046,158.466 228.756 C 158.740 228.467,158.964 227.996,158.964 227.710 C 158.964 227.423,159.212 226.983,159.516 226.731 C 159.996 226.333,161.323 223.804,163.195 219.721 C 163.807 218.387,165.251 213.112,165.758 210.359 C 166.214 207.883,166.200 198.116,165.738 196.414 C 165.529 195.647,165.075 193.855,164.729 192.430 C 164.382 191.006,163.749 189.124,163.323 188.247 C 162.896 187.371,162.548 186.381,162.549 186.049 C 162.549 185.716,162.102 184.784,161.554 183.978 C 161.006 183.172,160.555 182.368,160.551 182.192 C 160.537 181.579,155.573 174.749,153.966 173.131 C 152.770 171.928,148.985 168.801,147.642 167.906 C 145.863 166.721,142.899 164.971,142.231 164.711 C 141.902 164.584,141.167 164.230,140.596 163.925 C 134.748 160.799,124.150 159.487,114.923 160.747 M33.267 221.171 C 31.733 221.593,29.992 222.291,29.399 222.722 C 28.805 223.153,28.171 223.506,27.991 223.506 C 27.567 223.506,23.506 227.611,23.506 228.039 C 23.506 228.217,23.143 228.873,22.699 229.496 C 18.641 235.196,20.742 246.993,26.592 251.356 C 27.196 251.806,27.958 252.411,28.287 252.701 C 32.400 256.329,43.181 256.188,48.143 252.442 C 56.788 245.914,57.910 233.378,50.522 225.858 C 45.809 221.061,39.701 219.403,33.267 221.171 M194.500 237.922 C 192.022 238.102,189.513 238.494,188.922 238.793 C 188.332 239.091,187.131 239.463,186.255 239.618 C 185.378 239.773,184.290 240.139,183.836 240.431 C 183.382 240.723,182.259 241.186,181.341 241.462 C 180.423 241.737,179.473 242.202,179.229 242.495 C 178.986 242.788,178.585 243.031,178.338 243.035 C 176.698 243.062,164.542 253.672,164.542 255.076 C 164.542 255.242,164.262 255.692,163.919 256.076 C 162.942 257.171,161.463 259.587,161.140 260.616 C 160.979 261.132,160.533 261.956,160.150 262.447 C 159.766 262.938,159.327 264.014,159.173 264.837 C 159.019 265.661,158.694 266.575,158.452 266.868 C 155.711 270.184,155.872 289.050,158.694 295.306 C 159.062 296.121,159.363 296.944,159.363 297.135 C 159.363 297.835,162.501 303.508,164.603 306.608 C 166.359 309.197,175.339 317.530,176.372 317.530 C 176.573 317.530,177.345 317.978,178.088 318.526 C 178.830 319.074,179.737 319.522,180.103 319.522 C 180.469 319.522,181.206 319.866,181.740 320.286 C 182.275 320.706,183.419 321.175,184.284 321.327 C 185.149 321.479,186.305 321.890,186.853 322.241 C 187.736 322.807,190.828 323.290,199.117 324.158 C 200.275 324.279,201.440 324.203,201.707 323.989 C 201.973 323.775,203.984 323.476,206.175 323.324 C 208.867 323.137,210.648 322.799,211.666 322.281 C 212.494 321.859,213.543 321.514,213.997 321.514 C 214.451 321.514,215.746 321.037,216.874 320.454 C 218.887 319.413,219.257 319.221,221.762 317.917 C 222.906 317.321,223.598 316.848,226.240 314.854 C 226.758 314.463,227.552 313.740,228.005 313.247 C 228.458 312.754,229.066 312.351,229.355 312.351 C 229.644 312.351,229.880 312.194,229.880 312.002 C 229.880 311.810,230.687 310.812,231.673 309.782 C 232.659 308.753,233.466 307.779,233.466 307.616 C 233.466 307.454,233.806 306.957,234.221 306.512 C 234.636 306.066,235.268 305.136,235.625 304.445 C 235.983 303.753,236.442 303.187,236.646 303.187 C 236.849 303.187,237.134 302.557,237.278 301.787 C 237.423 301.017,237.754 300.255,238.014 300.094 C 238.466 299.814,239.918 296.351,240.642 293.825 C 242.748 286.474,242.726 286.637,242.554 279.738 C 242.430 274.771,242.233 272.808,241.768 271.912 C 241.427 271.255,241.032 269.832,240.890 268.751 C 240.748 267.670,240.392 266.415,240.098 265.962 C 239.804 265.510,239.334 264.422,239.054 263.546 C 238.774 262.669,238.312 261.683,238.028 261.355 C 237.745 261.026,237.393 260.277,237.246 259.691 C 237.100 259.104,236.638 258.314,236.219 257.936 C 235.801 257.557,235.458 257.097,235.458 256.914 C 235.458 255.754,228.973 248.823,225.498 246.270 C 224.293 245.384,223.127 244.516,222.908 244.342 C 222.689 244.167,221.882 243.711,221.116 243.329 C 220.349 242.947,219.452 242.465,219.124 242.258 C 217.716 241.371,214.021 239.891,212.550 239.624 C 211.673 239.466,210.482 239.096,209.901 238.802 C 209.321 238.509,207.080 238.166,204.921 238.040 C 202.762 237.914,200.548 237.762,200.000 237.703 C 199.452 237.643,196.977 237.742,194.500 237.922 M57.769 279.937 C 56.125 280.505,54.411 281.307,53.958 281.720 C 53.506 282.132,53.010 282.470,52.856 282.470 C 52.318 282.470,48.975 286.235,47.930 288.017 C 42.951 296.513,47.346 309.495,56.238 312.557 C 57.190 312.885,58.338 313.344,58.791 313.577 C 61.287 314.862,69.475 313.438,73.108 311.087 C 81.527 305.638,83.139 291.889,76.207 284.661 C 71.270 279.515,64.218 277.708,57.769 279.937 M100.398 324.099 C 99.851 324.418,98.865 324.941,98.207 325.260 C 95.931 326.364,92.070 330.597,91.450 332.669 C 91.286 333.217,90.857 334.114,90.496 334.661 C 89.560 336.083,89.552 344.018,90.486 345.442 C 90.840 345.983,91.254 346.987,91.405 347.674 C 91.555 348.360,92.027 349.237,92.453 349.622 C 92.879 350.007,93.228 350.519,93.229 350.759 C 93.231 351.422,97.751 354.934,99.265 355.448 C 99.998 355.698,100.951 356.142,101.383 356.437 C 102.743 357.363,111.428 357.167,113.057 356.174 C 113.775 355.736,114.582 355.378,114.850 355.377 C 115.615 355.374,120.159 351.150,121.441 349.249 C 123.157 346.707,124.872 339.227,123.988 338.138 C 123.771 337.869,123.375 336.574,123.109 335.259 C 122.844 333.944,122.398 332.600,122.118 332.271 C 121.839 331.942,121.333 331.125,120.993 330.454 C 120.076 328.640,117.272 326.005,115.713 325.490 C 114.959 325.241,114.343 324.881,114.343 324.689 C 114.343 323.478,102.333 322.970,100.398 324.099 M285.359 323.934 C 284.646 324.149,284.064 324.456,284.064 324.615 C 284.064 324.775,283.481 325.163,282.769 325.478 C 281.155 326.191,277.564 329.852,276.896 331.464 C 276.622 332.127,276.256 332.669,276.083 332.669 C 274.831 332.669,274.666 344.767,275.889 346.985 C 276.199 347.548,276.634 348.404,276.856 348.888 C 277.078 349.373,277.605 350.114,278.027 350.537 C 278.449 350.959,278.949 351.549,279.138 351.847 C 279.640 352.639,283.127 355.378,283.634 355.378 C 283.872 355.378,284.736 355.737,285.553 356.175 C 287.685 357.318,295.897 357.349,297.762 356.221 C 298.445 355.807,299.406 355.348,299.896 355.199 C 300.726 354.948,303.538 352.682,304.542 351.456 C 304.783 351.162,305.383 350.514,305.876 350.016 C 306.370 349.519,306.773 348.881,306.773 348.598 C 306.773 348.316,307.240 347.098,307.811 345.891 C 309.212 342.930,309.130 336.184,307.665 333.818 C 307.174 333.025,306.773 332.176,306.773 331.932 C 306.773 330.605,302.447 326.286,300.207 325.377 C 299.774 325.202,299.083 324.753,298.672 324.381 C 297.795 323.586,287.634 323.245,285.359 323.934 M162.080 348.639 C 159.477 348.986,158.531 349.428,154.249 352.289 C 153.349 352.890,152.334 353.921,151.993 354.580 C 151.653 355.238,151.219 355.777,151.029 355.777 C 150.839 355.777,150.564 356.256,150.417 356.841 C 150.270 357.426,149.802 358.347,149.378 358.887 C 147.942 360.712,148.247 369.672,149.854 372.890 C 151.204 375.591,154.719 379.408,156.723 380.348 C 157.408 380.669,158.506 381.220,159.163 381.574 C 161.596 382.881,169.810 382.476,172.854 380.898 C 175.447 379.554,180.080 375.261,180.080 374.202 C 180.080 373.887,180.483 373.063,180.976 372.372 C 182.455 370.299,182.539 361.517,181.106 358.843 C 180.541 357.791,180.080 356.741,180.080 356.509 C 180.080 356.107,179.250 355.071,177.460 353.237 C 176.074 351.817,174.853 350.936,173.478 350.361 C 172.756 350.060,172.067 349.652,171.945 349.455 C 171.823 349.258,170.690 348.977,169.428 348.830 C 168.165 348.684,166.594 348.501,165.936 348.424 C 165.279 348.347,163.544 348.444,162.080 348.639 M230.365 348.635 C 225.770 349.229,218.942 354.057,218.138 357.279 C 217.988 357.877,217.566 358.699,217.200 359.106 C 216.215 360.199,216.215 370.478,217.200 371.572 C 217.566 371.978,217.987 372.794,218.134 373.384 C 218.520 374.931,222.908 379.280,225.686 380.870 L 228.065 382.231 233.349 382.231 C 238.168 382.231,238.737 382.154,239.818 381.355 C 240.470 380.873,241.273 380.478,241.603 380.478 C 242.445 380.478,247.334 375.817,248.045 374.336 C 248.369 373.660,248.936 372.570,249.305 371.912 C 250.596 369.613,250.283 360.914,248.805 358.010 C 246.468 353.419,241.304 349.373,237.052 348.804 C 233.529 348.332,232.836 348.315,230.365 348.635 " stroke="none" fill="#746c60" fill-rule="evenodd"></path><path id="path1" d="M160.956 25.445 C 160.408 25.606,159.294 26.042,158.479 26.415 C 157.664 26.787,156.834 27.092,156.635 27.092 C 156.436 27.092,155.040 28.237,153.535 29.636 C 143.385 39.071,146.976 55.435,160.115 59.620 C 175.011 64.365,188.048 48.450,180.886 34.263 C 179.960 32.429,174.795 27.092,173.946 27.092 C 173.687 27.092,172.765 26.707,171.897 26.237 C 170.219 25.329,163.104 24.814,160.956 25.445 M229.084 25.345 C 228.755 25.469,227.726 25.913,226.797 26.331 C 225.868 26.749,225.025 27.092,224.922 27.092 C 224.423 27.092,221.548 29.316,220.247 30.708 C 214.160 37.224,214.497 49.863,220.908 55.488 C 234.289 67.228,254.090 56.145,250.473 38.938 C 250.100 37.165,249.527 35.418,249.200 35.056 C 248.873 34.695,248.606 34.219,248.606 33.998 C 248.606 32.471,243.560 27.855,240.637 26.708 C 239.871 26.408,238.994 25.969,238.689 25.734 C 238.105 25.284,230.105 24.960,229.084 25.345 M102.789 50.763 C 101.803 51.068,100.548 51.456,100.000 51.624 C 90.074 54.665,86.068 69.125,92.530 78.586 C 96.777 84.803,106.153 87.430,113.337 84.415 C 116.492 83.090,121.514 79.084,121.514 77.892 C 121.514 77.615,121.776 77.171,122.095 76.906 C 122.941 76.204,124.701 70.297,124.701 68.162 C 124.701 57.026,112.875 47.636,102.789 50.763 M285.852 51.301 C 271.542 56.881,269.885 77.304,283.239 83.513 C 284.459 84.081,285.888 84.751,286.414 85.002 C 286.954 85.260,289.292 85.458,291.792 85.458 C 297.940 85.458,301.396 83.771,306.072 78.486 C 310.853 73.083,309.810 60.259,304.183 55.269 C 298.947 50.626,291.641 49.044,285.852 51.301 M191.911 84.085 C 190.420 84.259,188.985 84.570,188.723 84.778 C 188.461 84.985,187.261 85.381,186.056 85.657 C 184.851 85.933,183.416 86.391,182.869 86.674 C 182.321 86.958,181.066 87.557,180.080 88.006 C 173.736 90.896,165.092 98.647,162.163 104.070 C 159.237 109.488,157.598 113.440,156.993 116.534 C 156.779 117.629,156.418 119.152,156.191 119.918 C 155.643 121.759,155.650 133.680,156.199 134.706 C 156.431 135.140,156.786 136.504,156.986 137.736 C 157.379 140.148,158.399 143.009,160.223 146.813 C 162.535 151.636,164.761 154.798,168.226 158.181 C 171.839 161.708,172.092 161.927,173.282 162.549 C 173.816 162.828,174.589 163.369,174.999 163.752 C 175.410 164.134,176.902 165.051,178.314 165.789 C 179.726 166.528,181.284 167.353,181.775 167.624 C 182.267 167.894,183.033 168.118,183.477 168.122 C 183.921 168.125,184.660 168.390,185.118 168.711 C 187.370 170.289,200.565 171.811,204.640 170.964 C 205.703 170.742,208.008 170.276,209.761 169.928 C 213.087 169.266,213.456 169.130,218.327 166.759 C 221.631 165.151,222.321 164.760,224.177 163.447 C 224.874 162.954,225.571 162.550,225.725 162.550 C 225.878 162.550,226.395 162.146,226.872 161.653 C 227.350 161.160,228.631 159.945,229.719 158.953 C 232.200 156.689,235.857 152.322,235.857 151.622 C 235.857 151.331,236.121 150.874,236.445 150.605 C 236.769 150.337,237.597 148.925,238.286 147.469 C 238.975 146.012,239.811 144.283,240.144 143.625 C 240.477 142.968,240.985 141.444,241.272 140.239 C 241.559 139.034,242.072 137.068,242.411 135.869 C 243.278 132.809,243.272 121.740,242.402 118.712 C 242.057 117.514,241.542 115.548,241.256 114.343 C 240.970 113.137,240.465 111.614,240.133 110.956 C 239.801 110.299,238.952 108.556,238.245 107.082 C 237.538 105.609,236.712 104.198,236.408 103.946 C 236.105 103.694,235.857 103.319,235.857 103.112 C 235.857 102.148,227.443 92.829,226.573 92.829 C 226.384 92.829,225.482 92.228,224.569 91.495 C 216.994 85.411,204.632 82.606,191.911 84.085 M60.456 93.958 C 60.071 94.110,61.264 94.232,63.106 94.229 C 64.949 94.226,66.249 94.091,65.997 93.930 C 65.424 93.565,61.399 93.585,60.456 93.958 M54.283 96.133 C 53.132 96.815,52.191 97.544,52.191 97.753 C 52.191 97.961,52.505 97.857,52.888 97.521 C 53.272 97.185,54.481 96.440,55.575 95.865 C 56.668 95.291,57.296 94.837,56.969 94.856 C 56.642 94.876,55.433 95.450,54.283 96.133 M74.317 97.919 C 75.420 98.807,76.571 99.997,76.874 100.563 C 77.177 101.130,77.576 101.594,77.760 101.594 C 78.432 101.594,76.346 98.972,74.749 97.809 C 72.291 96.019,72.036 96.084,74.317 97.919 M49.265 100.498 C 47.436 103.030,46.596 104.517,46.763 104.925 C 46.889 105.232,46.959 105.216,46.980 104.876 C 46.998 104.600,47.605 103.525,48.330 102.486 C 49.055 101.447,49.783 100.374,49.947 100.100 C 50.454 99.255,49.950 99.550,49.265 100.498 M78.490 102.988 C 78.491 103.207,78.848 103.924,79.283 104.582 C 80.314 106.139,80.316 105.586,79.284 103.894 C 78.847 103.177,78.490 102.769,78.490 102.988 M45.874 107.826 C 45.295 110.705,45.348 113.211,46.041 115.737 C 46.373 116.949,46.504 117.183,46.376 116.335 C 45.795 112.484,45.750 110.570,46.188 108.341 C 46.453 106.998,46.592 105.822,46.499 105.729 C 46.405 105.635,46.124 106.579,45.874 107.826 M80.624 111.753 C 80.625 113.944,80.692 114.790,80.772 113.632 C 80.853 112.474,80.852 110.681,80.770 109.648 C 80.689 108.615,80.623 109.562,80.624 111.753 M79.113 119.067 C 78.212 120.809,78.343 121.156,79.306 119.577 C 79.755 118.840,80.037 118.151,79.931 118.046 C 79.826 117.940,79.458 118.400,79.113 119.067 M47.809 120.530 C 47.809 120.964,51.030 125.100,51.368 125.100 C 51.519 125.100,51.990 125.420,52.415 125.812 C 53.515 126.826,56.953 128.686,57.720 128.681 C 58.075 128.679,57.462 128.256,56.356 127.741 C 53.487 126.405,50.945 124.405,49.264 122.161 C 48.464 121.092,47.809 120.358,47.809 120.530 M76.850 122.610 C 75.107 124.468,74.326 125.736,75.931 124.104 C 77.454 122.553,78.657 121.116,78.431 121.116 C 78.332 121.116,77.621 121.788,76.850 122.610 M70.674 127.451 C 69.992 127.867,69.096 128.294,68.682 128.400 C 67.979 128.580,67.982 128.595,68.725 128.627 C 69.163 128.645,70.239 128.219,71.116 127.679 C 71.992 127.139,72.530 126.697,72.311 126.697 C 72.092 126.696,71.355 127.036,70.674 127.451 M61.070 128.980 C 62.338 129.059,64.310 129.059,65.453 128.978 C 66.595 128.898,65.558 128.833,63.147 128.834 C 60.737 128.835,59.802 128.901,61.070 128.980 M33.522 152.648 C 32.786 152.860,32.275 153.125,32.388 153.238 C 32.500 153.350,33.284 153.234,34.130 152.981 C 35.622 152.534,40.343 152.621,42.829 153.142 C 43.927 153.372,43.910 153.346,42.629 152.822 C 41.031 152.168,35.554 152.064,33.522 152.648 M28.847 154.643 L 28.088 155.502 29.183 154.797 C 30.313 154.070,30.527 153.785,29.942 153.785 C 29.757 153.785,29.264 154.171,28.847 154.643 M46.197 154.360 C 46.504 154.730,47.256 155.292,47.869 155.609 C 48.483 155.926,49.727 156.945,50.636 157.874 C 51.544 158.802,52.098 159.203,51.867 158.765 C 51.374 157.827,49.440 156.138,47.222 154.709 C 46.278 154.100,45.864 153.960,46.197 154.360 M25.488 157.310 C 23.848 158.997,21.592 162.151,22.026 162.151 C 22.124 162.151,22.673 161.445,23.244 160.581 C 23.816 159.717,25.136 158.193,26.179 157.194 C 27.221 156.196,27.898 155.396,27.682 155.418 C 27.467 155.440,26.480 156.291,25.488 157.310 M116.176 160.201 C 114.883 160.390,113.718 160.661,113.586 160.803 C 113.454 160.945,114.064 160.926,114.940 160.761 C 115.817 160.595,118.865 160.330,121.713 160.172 L 126.892 159.885 122.709 159.872 C 120.408 159.864,117.468 160.012,116.176 160.201 M128.486 160.581 C 129.363 160.762,130.528 160.900,131.076 160.887 C 131.715 160.873,131.500 160.746,130.478 160.535 C 129.602 160.354,128.436 160.216,127.888 160.228 C 127.250 160.243,127.464 160.369,128.486 160.581 M109.163 161.753 C 108.396 162.173,108.053 162.524,108.400 162.533 C 108.747 162.542,109.163 162.415,109.325 162.251 C 109.487 162.087,110.189 161.742,110.885 161.484 C 111.753 161.164,111.901 161.013,111.355 161.003 C 110.916 160.996,109.930 161.333,109.163 161.753 M134.661 161.753 C 137.050 162.755,138.124 162.748,135.913 161.744 C 134.957 161.311,133.882 160.966,133.522 160.978 C 133.163 160.991,133.675 161.339,134.661 161.753 M53.386 161.671 C 53.386 161.950,53.679 162.626,54.036 163.171 C 54.394 163.717,54.824 164.742,54.992 165.448 C 55.224 166.424,55.307 166.513,55.338 165.818 C 55.360 165.315,54.930 164.062,54.382 163.033 C 53.835 162.004,53.386 161.391,53.386 161.671 M139.762 163.550 C 140.923 164.146,141.984 164.523,142.119 164.388 C 142.254 164.254,142.124 164.143,141.831 164.143 C 141.538 164.143,141.015 163.888,140.669 163.577 C 140.323 163.265,139.502 162.888,138.845 162.738 C 138.012 162.549,138.291 162.795,139.762 163.550 M104.183 163.772 C 103.526 164.193,103.192 164.539,103.442 164.540 C 103.692 164.541,104.319 164.189,104.836 163.758 C 106.021 162.771,105.736 162.778,104.183 163.772 M20.583 166.129 C 19.701 169.303,20.340 177.004,21.397 175.947 C 21.491 175.853,21.287 174.829,20.943 173.672 C 20.157 171.024,20.158 169.616,20.948 166.532 C 21.763 163.350,21.452 163.006,20.583 166.129 M100.598 165.569 C 99.721 166.092,99.183 166.523,99.402 166.526 C 99.881 166.532,102.390 165.038,102.390 164.747 C 102.390 164.487,102.473 164.449,100.598 165.569 M142.629 164.709 C 142.629 164.939,145.242 166.534,145.621 166.534 C 145.790 166.534,145.267 166.086,144.460 165.538 C 143.012 164.555,142.629 164.382,142.629 164.709 M96.630 168.044 C 94.117 169.923,88.262 175.731,87.645 176.956 C 87.274 177.692,87.393 177.637,88.212 176.693 C 91.765 172.599,93.592 170.726,94.821 169.917 C 96.324 168.928,99.131 166.566,98.805 166.566 C 98.695 166.566,97.716 167.231,96.630 168.044 M147.012 167.314 C 149.801 169.648,152.982 172.112,153.205 172.112 C 153.535 172.112,149.195 168.585,147.410 167.404 C 146.296 166.666,146.216 166.648,147.012 167.314 M55.487 168.924 C 55.487 169.910,55.565 170.314,55.660 169.821 C 55.755 169.328,55.755 168.521,55.660 168.028 C 55.565 167.535,55.487 167.938,55.487 168.924 M55.026 174.339 C 54.949 175.738,52.650 179.922,50.733 182.152 L 48.919 184.263 50.929 182.170 C 53.118 179.891,55.564 175.414,55.262 174.240 C 55.097 173.601,55.067 173.614,55.026 174.339 M156.320 175.896 C 158.582 178.971,160.558 181.925,160.558 182.234 C 160.558 182.387,161.006 183.172,161.554 183.978 C 162.102 184.784,162.546 185.268,162.541 185.053 C 162.536 184.837,162.181 184.213,161.753 183.665 C 161.324 183.118,160.967 182.490,160.959 182.271 C 160.951 182.052,160.314 180.976,159.545 179.880 C 158.775 178.785,157.838 177.440,157.463 176.892 C 157.087 176.345,156.347 175.448,155.817 174.900 C 155.288 174.353,155.514 174.801,156.320 175.896 M21.542 177.171 C 21.497 177.937,23.695 180.939,25.567 182.669 L 27.291 184.263 25.697 182.480 C 24.821 181.499,24.010 180.603,23.895 180.488 C 23.553 180.145,22.132 177.934,21.841 177.291 C 21.686 176.948,21.558 176.897,21.542 177.171 M85.936 179.382 C 84.760 180.972,84.354 181.673,84.610 181.673 C 84.717 181.673,85.349 180.867,86.014 179.880 C 87.409 177.813,87.354 177.464,85.936 179.382 M83.166 184.096 C 82.564 185.174,82.072 186.261,82.072 186.510 C 82.072 186.760,82.621 185.935,83.293 184.677 C 84.791 181.869,84.684 181.378,83.166 184.096 M47.410 184.861 C 46.863 185.289,46.611 185.644,46.851 185.649 C 47.091 185.653,47.611 185.299,48.008 184.861 C 48.916 183.857,48.694 183.857,47.410 184.861 M31.873 186.853 C 32.639 187.272,33.625 187.607,34.064 187.597 C 34.550 187.585,34.364 187.434,33.585 187.209 C 32.884 187.006,32.201 186.664,32.068 186.448 C 31.935 186.232,31.522 186.063,31.152 186.072 C 30.753 186.082,31.047 186.401,31.873 186.853 M44.004 186.423 C 43.796 186.625,42.998 186.983,42.231 187.218 L 40.837 187.647 42.157 187.454 C 43.390 187.273,45.684 186.056,44.790 186.056 C 44.566 186.056,44.212 186.221,44.004 186.423 M162.567 186.345 C 162.557 186.614,162.908 187.420,163.345 188.138 C 163.783 188.855,164.134 189.263,164.125 189.044 C 164.101 188.421,162.585 185.796,162.567 186.345 M81.114 188.760 C 80.715 189.645,80.484 190.608,80.601 190.901 C 80.729 191.222,80.826 191.113,80.845 190.626 C 80.862 190.182,81.159 189.416,81.504 188.923 C 81.849 188.430,82.066 187.830,81.985 187.589 C 81.905 187.348,81.513 187.875,81.114 188.760 M164.573 192.123 C 164.556 192.502,164.800 193.488,165.115 194.315 C 165.431 195.141,165.769 196.175,165.866 196.614 C 166.004 197.236,166.046 197.193,166.058 196.414 C 166.076 195.276,164.620 191.071,164.573 192.123 M79.727 194.290 C 79.702 194.546,79.565 195.084,79.423 195.485 C 79.223 196.052,79.276 196.113,79.660 195.759 C 79.932 195.509,80.069 194.971,79.964 194.564 C 79.859 194.157,79.753 194.034,79.727 194.290 M78.668 199.877 C 78.307 204.211,78.706 210.179,79.492 212.205 C 79.978 213.457,80.048 213.521,79.864 212.550 C 78.991 207.949,78.844 205.990,79.038 201.494 C 79.289 195.659,79.091 194.793,78.668 199.877 M165.791 210.188 C 165.761 210.861,165.448 212.260,165.095 213.297 C 164.741 214.334,164.533 215.264,164.632 215.363 C 164.976 215.707,166.211 210.914,166.029 209.942 C 165.869 209.091,165.839 209.123,165.791 210.188 M80.902 218.127 C 80.902 218.347,81.165 218.874,81.487 219.299 C 81.808 219.725,82.072 219.893,82.072 219.674 C 82.072 219.455,81.808 218.928,81.487 218.502 C 81.165 218.077,80.902 217.908,80.902 218.127 M163.247 219.377 C 162.864 220.132,162.550 220.960,162.550 221.216 C 162.550 221.473,162.910 220.976,163.350 220.113 C 163.790 219.251,164.103 218.423,164.047 218.275 C 163.990 218.126,163.630 218.623,163.247 219.377 M34.263 220.551 C 32.956 221.086,32.943 221.107,34.064 220.893 C 37.581 220.220,40.081 220.279,42.393 221.088 C 43.687 221.542,44.942 221.899,45.182 221.883 C 45.421 221.866,44.372 221.418,42.851 220.887 C 39.717 219.792,36.433 219.664,34.263 220.551 M82.097 221.171 C 82.083 221.530,82.385 222.166,82.769 222.584 C 83.152 223.002,83.339 223.147,83.183 222.906 C 83.028 222.664,82.726 222.028,82.511 221.492 C 82.265 220.876,82.113 220.758,82.097 221.171 M29.167 222.367 C 28.445 222.829,27.951 223.303,28.069 223.420 C 28.186 223.538,28.600 223.346,28.990 222.993 C 29.379 222.641,30.142 222.175,30.685 221.959 C 31.229 221.742,31.404 221.556,31.076 221.546 C 30.747 221.536,29.888 221.905,29.167 222.367 M46.029 222.331 C 46.161 222.545,46.955 223.070,47.793 223.498 C 50.497 224.877,53.011 228.303,54.815 233.068 C 55.106 233.835,55.351 234.170,55.361 233.813 C 55.410 232.004,52.263 226.628,50.031 224.707 C 48.675 223.541,45.676 221.760,46.029 222.331 M161.448 223.512 C 160.205 225.671,160.336 226.079,161.597 223.977 C 162.164 223.030,162.562 222.191,162.483 222.111 C 162.403 222.031,161.937 222.662,161.448 223.512 M25.249 225.598 C 23.452 227.463,21.514 230.262,21.514 230.992 C 21.514 231.140,21.962 230.601,22.510 229.795 C 23.058 228.989,23.506 228.191,23.506 228.022 C 23.506 227.853,24.441 226.767,25.584 225.610 C 26.727 224.453,27.572 223.506,27.463 223.506 C 27.353 223.506,26.357 224.447,25.249 225.598 M83.665 224.101 C 83.665 224.589,85.331 227.152,85.523 226.960 C 85.619 226.865,85.240 226.113,84.681 225.290 C 84.122 224.467,83.665 223.932,83.665 224.101 M159.626 226.623 C 158.661 227.689,158.816 228.057,159.832 227.111 C 160.309 226.667,160.606 226.211,160.493 226.097 C 160.380 225.984,159.990 226.220,159.626 226.623 M157.286 230.179 C 156.925 230.782,155.687 232.351,154.533 233.665 C 153.380 234.980,153.008 235.530,153.707 234.886 C 155.330 233.393,158.726 229.084,158.280 229.084 C 158.093 229.084,157.646 229.577,157.286 230.179 M87.491 230.262 C 88.611 232.376,96.488 239.900,97.021 239.366 C 97.125 239.263,96.448 238.629,95.517 237.957 C 93.927 236.811,91.318 234.274,88.439 231.076 C 87.748 230.309,87.322 229.943,87.491 230.262 M20.596 234.091 C 19.739 236.876,19.772 239.449,20.701 242.231 C 21.578 244.860,21.756 244.054,20.912 241.271 C 20.153 238.770,20.163 237.112,20.953 234.394 C 21.302 233.194,21.517 232.141,21.430 232.054 C 21.343 231.967,20.968 232.884,20.596 234.091 M55.509 237.649 C 55.511 239.183,55.583 239.762,55.669 238.935 C 55.755 238.109,55.754 236.854,55.666 236.146 C 55.578 235.439,55.507 236.116,55.509 237.649 M149.924 237.595 C 148.787 238.501,147.385 239.574,146.809 239.979 C 146.233 240.384,145.874 240.827,146.010 240.964 C 146.147 241.100,146.383 241.010,146.536 240.763 C 146.689 240.516,147.799 239.637,149.004 238.809 C 151.340 237.204,152.378 236.301,152.139 236.082 C 152.058 236.007,151.062 236.688,149.924 237.595 M198.679 236.912 C 198.523 237.068,196.416 237.326,193.997 237.486 C 183.183 238.200,172.610 244.200,164.388 254.290 C 161.536 257.791,156.982 267.180,156.968 269.590 C 156.965 269.991,156.692 271.215,156.359 272.311 C 155.606 274.794,155.498 285.946,156.203 288.517 C 156.462 289.464,156.906 291.225,157.190 292.430 C 157.843 295.206,159.286 299.220,159.911 300.000 C 160.174 300.329,160.699 301.225,161.076 301.992 C 161.454 302.759,162.074 303.846,162.455 304.408 C 162.836 304.971,163.534 306.021,164.007 306.744 C 164.846 308.027,169.881 313.351,171.762 314.946 C 176.242 318.743,184.542 322.751,189.513 323.518 C 190.789 323.715,193.088 324.097,194.622 324.367 C 197.992 324.960,200.543 324.963,203.984 324.379 C 205.408 324.137,207.815 323.749,209.331 323.515 C 210.848 323.282,212.282 322.939,212.519 322.753 C 212.755 322.567,213.665 322.191,214.542 321.918 C 217.109 321.118,221.191 319.007,225.039 316.489 C 228.392 314.296,232.731 309.770,236.147 304.906 C 237.529 302.937,240.951 295.486,241.260 293.772 C 241.413 292.925,241.675 292.052,241.841 291.833 C 243.449 289.721,243.587 275.632,242.051 270.547 C 241.492 268.701,241.036 266.951,241.036 266.659 C 241.036 265.869,237.092 257.900,236.428 257.349 C 236.114 257.088,235.857 256.716,235.857 256.521 C 235.857 255.443,229.926 248.770,227.092 246.660 C 226.325 246.089,225.608 245.515,225.498 245.383 C 225.144 244.959,218.453 241.036,218.085 241.037 C 217.889 241.038,217.012 240.695,216.135 240.277 C 212.680 238.625,209.040 237.726,204.635 237.436 C 202.195 237.275,199.921 237.028,199.581 236.886 C 199.241 236.744,198.835 236.756,198.679 236.912 M204.921 238.040 C 207.080 238.166,209.321 238.509,209.901 238.802 C 210.482 239.096,211.673 239.466,212.550 239.624 C 214.021 239.891,217.716 241.371,219.124 242.258 C 219.452 242.465,220.349 242.947,221.116 243.329 C 221.882 243.711,222.689 244.167,222.908 244.342 C 223.127 244.516,224.293 245.384,225.498 246.270 C 228.973 248.823,235.458 255.754,235.458 256.914 C 235.458 257.097,235.801 257.557,236.219 257.936 C 236.638 258.314,237.100 259.104,237.246 259.691 C 237.393 260.277,237.745 261.026,238.028 261.355 C 238.312 261.683,238.774 262.669,239.054 263.546 C 239.334 264.422,239.804 265.510,240.098 265.962 C 240.392 266.415,240.748 267.670,240.890 268.751 C 241.032 269.832,241.427 271.255,241.768 271.912 C 242.233 272.808,242.430 274.771,242.554 279.738 C 242.726 286.637,242.748 286.474,240.642 293.825 C 239.918 296.351,238.466 299.814,238.014 300.094 C 237.754 300.255,237.423 301.017,237.278 301.787 C 237.134 302.557,236.849 303.187,236.646 303.187 C 236.442 303.187,235.983 303.753,235.625 304.445 C 235.268 305.136,234.636 306.066,234.221 306.512 C 233.806 306.957,233.466 307.454,233.466 307.616 C 233.466 307.779,232.659 308.753,231.673 309.782 C 230.687 310.812,229.880 311.810,229.880 312.002 C 229.880 312.194,229.644 312.351,229.355 312.351 C 229.066 312.351,228.458 312.754,228.005 313.247 C 227.552 313.740,226.758 314.463,226.240 314.854 C 223.598 316.848,222.906 317.321,221.762 317.917 C 219.257 319.221,218.887 319.413,216.874 320.454 C 215.746 321.037,214.451 321.514,213.997 321.514 C 213.543 321.514,212.494 321.859,211.666 322.281 C 210.648 322.799,208.867 323.137,206.175 323.324 C 203.984 323.476,201.973 323.775,201.707 323.989 C 201.440 324.203,200.275 324.279,199.117 324.158 C 190.828 323.290,187.736 322.807,186.853 322.241 C 186.305 321.890,185.149 321.479,184.284 321.327 C 183.419 321.175,182.275 320.706,181.740 320.286 C 181.206 319.866,180.469 319.522,180.103 319.522 C 179.737 319.522,178.830 319.074,178.088 318.526 C 177.345 317.978,176.573 317.530,176.372 317.530 C 175.339 317.530,166.359 309.197,164.603 306.608 C 162.501 303.508,159.363 297.835,159.363 297.135 C 159.363 296.944,159.062 296.121,158.694 295.306 C 155.872 289.050,155.711 270.184,158.452 266.868 C 158.694 266.575,159.019 265.661,159.173 264.837 C 159.327 264.014,159.766 262.938,160.150 262.447 C 160.533 261.956,160.979 261.132,161.140 260.616 C 161.463 259.587,162.942 257.171,163.919 256.076 C 164.262 255.692,164.542 255.242,164.542 255.076 C 164.542 253.672,176.698 243.062,178.338 243.035 C 178.585 243.031,178.986 242.788,179.229 242.495 C 179.473 242.202,180.423 241.737,181.341 241.462 C 182.259 241.186,183.382 240.723,183.836 240.431 C 184.290 240.139,185.378 239.773,186.255 239.618 C 187.131 239.463,188.332 239.091,188.922 238.793 C 189.958 238.268,197.963 237.481,200.000 237.703 C 200.548 237.762,202.762 237.914,204.921 238.040 M100.985 242.050 C 101.807 242.608,102.684 242.981,102.933 242.878 C 103.221 242.760,103.191 242.681,102.852 242.661 C 102.558 242.644,101.861 242.271,101.304 241.833 C 100.747 241.394,100.111 241.036,99.891 241.036 C 99.671 241.036,100.163 241.492,100.985 242.050 M143.467 242.066 C 142.722 242.595,142.253 243.028,142.424 243.028 C 142.805 243.028,145.418 241.435,145.418 241.203 C 145.418 240.853,144.772 241.138,143.467 242.066 M104.491 243.825 C 105.048 244.263,105.655 244.618,105.840 244.613 C 106.275 244.601,104.295 243.048,103.831 243.037 C 103.637 243.032,103.934 243.386,104.491 243.825 M140.040 243.825 C 138.482 244.856,139.036 244.857,140.727 243.826 C 141.445 243.389,141.853 243.031,141.633 243.032 C 141.414 243.033,140.697 243.389,140.040 243.825 M53.599 245.948 C 52.489 248.458,49.408 251.794,46.808 253.301 C 46.372 253.554,46.224 253.766,46.478 253.773 C 48.422 253.824,55.855 244.965,54.775 243.885 C 54.674 243.784,54.145 244.713,53.599 245.948 M21.526 245.020 C 21.526 245.707,22.191 246.882,22.421 246.602 C 22.506 246.499,22.339 245.966,22.051 245.418 C 21.761 244.869,21.526 244.691,21.526 245.020 M110.159 245.839 C 111.036 246.253,112.022 246.584,112.351 246.573 C 112.679 246.562,112.378 246.342,111.682 246.085 C 110.986 245.828,110.283 245.483,110.122 245.319 C 109.960 245.154,109.543 245.034,109.197 245.052 C 108.850 245.070,109.283 245.424,110.159 245.839 M135.232 245.405 C 135.020 245.617,134.133 245.973,133.260 246.196 L 131.673 246.601 133.163 246.434 C 134.487 246.285,137.048 245.020,136.025 245.020 C 135.801 245.020,135.444 245.193,135.232 245.405 M116.335 247.100 C 119.252 247.694,125.958 247.704,128.685 247.118 L 130.876 246.647 128.685 246.888 C 125.879 247.198,119.165 247.200,116.335 246.892 L 114.143 246.653 116.335 247.100 M23.252 248.008 C 24.297 249.979,29.053 254.410,28.457 252.858 C 28.340 252.551,27.829 252.110,27.323 251.880 C 26.816 251.649,25.715 250.594,24.874 249.535 C 22.738 246.842,22.530 246.647,23.252 248.008 M31.076 254.452 C 33.012 255.404,33.777 255.538,37.649 255.603 L 42.032 255.677 37.649 255.418 C 34.843 255.252,32.837 254.930,32.072 254.523 C 31.414 254.172,30.428 253.771,29.880 253.630 C 29.333 253.489,29.871 253.859,31.076 254.452 M44.399 254.370 C 43.974 254.692,43.267 254.981,42.829 255.014 C 42.216 255.059,42.183 255.113,42.685 255.246 C 43.045 255.342,43.941 255.053,44.677 254.604 C 45.414 254.155,45.826 253.787,45.594 253.786 C 45.362 253.786,44.824 254.048,44.399 254.370 M56.655 279.910 C 54.432 280.769,51.862 282.470,52.788 282.470 C 52.979 282.470,53.506 282.132,53.958 281.720 C 54.411 281.307,56.125 280.505,57.769 279.937 C 59.412 279.369,60.398 278.912,59.960 278.922 C 59.522 278.932,58.035 279.376,56.655 279.910 M67.729 279.681 C 70.118 280.684,71.192 280.676,68.980 279.673 C 68.025 279.239,66.949 278.894,66.590 278.907 C 66.230 278.919,66.743 279.268,67.729 279.681 M71.514 280.944 C 71.952 281.188,72.588 281.585,72.928 281.829 C 73.267 282.072,73.123 281.868,72.607 281.375 C 72.091 280.881,71.455 280.484,71.193 280.490 C 70.931 280.497,71.076 280.701,71.514 280.944 M50.990 283.558 C 50.076 284.512,50.067 284.555,50.874 284.126 C 51.768 283.651,52.386 282.931,52.126 282.670 C 52.046 282.590,51.535 282.990,50.990 283.558 M74.900 283.164 C 74.900 283.418,75.154 283.769,75.464 283.944 C 75.775 284.120,76.581 284.960,77.257 285.812 C 77.933 286.664,78.485 287.201,78.484 287.007 C 78.483 286.813,77.677 285.764,76.692 284.678 C 75.706 283.592,74.900 282.910,74.900 283.164 M49.138 285.757 C 48.177 286.832,46.612 289.396,46.617 289.888 C 46.619 290.081,47.094 289.432,47.671 288.446 C 48.249 287.460,49.085 286.250,49.530 285.757 C 49.974 285.264,50.248 284.861,50.139 284.861 C 50.029 284.861,49.579 285.264,49.138 285.757 M78.488 287.769 C 78.485 288.320,79.731 290.522,79.931 290.321 C 80.037 290.216,79.755 289.527,79.306 288.790 C 78.857 288.053,78.488 287.594,78.488 287.769 M45.856 292.821 C 45.354 295.161,45.324 298.634,45.797 299.801 C 45.983 300.262,46.035 299.497,45.919 297.981 C 45.809 296.543,45.924 294.410,46.175 293.242 C 46.425 292.074,46.554 291.043,46.462 290.950 C 46.369 290.858,46.096 291.699,45.856 292.821 M80.624 296.614 C 80.625 298.805,80.692 299.650,80.772 298.493 C 80.853 297.335,80.852 295.542,80.770 294.509 C 80.689 293.475,80.623 294.422,80.624 296.614 M79.113 303.927 C 78.212 305.670,78.343 306.016,79.306 304.437 C 79.755 303.700,80.037 303.011,79.931 302.906 C 79.826 302.801,79.458 303.260,79.113 303.927 M46.614 303.373 C 46.614 303.789,48.213 306.375,48.471 306.375 C 48.581 306.375,48.266 305.702,47.772 304.880 C 46.671 303.050,46.614 302.975,46.614 303.373 M75.876 308.514 C 74.550 309.857,73.027 311.280,72.490 311.676 C 71.542 312.376,71.551 312.376,72.804 311.693 C 74.162 310.952,78.766 306.511,78.463 306.233 C 78.366 306.144,77.202 307.170,75.876 308.514 M50.797 309.415 C 52.358 310.920,55.198 312.711,56.375 312.933 C 57.339 313.116,57.270 313.043,56.018 312.557 C 55.165 312.225,53.731 311.358,52.831 310.630 C 50.888 309.057,49.671 308.331,50.797 309.415 M68.924 313.047 C 68.048 313.465,65.977 313.802,63.347 313.954 L 59.163 314.197 62.948 314.268 C 66.166 314.328,67.091 314.191,69.124 313.354 C 70.438 312.813,71.245 312.372,70.916 312.376 C 70.588 312.379,69.691 312.681,68.924 313.047 M101.868 323.118 C 100.375 323.507,98.837 324.112,98.450 324.462 C 98.063 324.813,97.559 325.100,97.331 325.100 C 96.355 325.100,92.078 329.989,90.807 332.558 C 82.325 349.698,104.712 366.131,118.823 353.124 C 120.913 351.198,123.002 348.223,123.337 346.699 C 123.467 346.104,123.828 344.942,124.138 344.115 C 125.262 341.120,123.928 332.584,122.099 331.065 C 121.777 330.798,121.514 330.369,121.514 330.112 C 121.514 329.441,117.559 325.559,116.569 325.258 C 116.112 325.119,115.430 324.736,115.056 324.407 C 113.051 322.648,106.233 321.982,101.868 323.118 M287.052 323.085 C 273.177 326.524,269.267 346.645,280.994 354.262 C 285.941 357.476,285.965 357.484,291.707 357.529 C 297.834 357.578,299.745 356.811,304.012 352.590 C 310.713 345.959,311.286 337.900,305.687 329.057 C 304.910 327.830,301.619 325.100,300.916 325.100 C 300.775 325.100,300.349 324.818,299.969 324.474 C 297.968 322.663,291.541 321.972,287.052 323.085 M112.849 323.925 C 113.670 324.154,114.343 324.497,114.343 324.689 C 114.343 324.881,114.959 325.241,115.713 325.490 C 117.272 326.005,120.076 328.640,120.993 330.454 C 121.333 331.125,121.839 331.942,122.118 332.271 C 122.398 332.600,122.844 333.944,123.109 335.259 C 123.375 336.574,123.771 337.869,123.988 338.138 C 124.872 339.227,123.157 346.707,121.441 349.249 C 120.159 351.150,115.615 355.374,114.850 355.377 C 114.582 355.378,113.775 355.736,113.057 356.174 C 111.428 357.167,102.743 357.363,101.383 356.437 C 100.951 356.142,99.998 355.698,99.265 355.448 C 97.751 354.934,93.231 351.422,93.229 350.759 C 93.228 350.519,92.879 350.007,92.453 349.622 C 92.027 349.237,91.555 348.360,91.405 347.674 C 91.254 346.987,90.840 345.983,90.486 345.442 C 89.552 344.018,89.560 336.083,90.496 334.661 C 90.857 334.114,91.286 333.217,91.450 332.669 C 92.070 330.597,95.931 326.364,98.207 325.260 C 98.865 324.941,99.851 324.418,100.398 324.099 C 101.600 323.398,110.503 323.274,112.849 323.925 M298.672 324.381 C 299.083 324.753,299.774 325.202,300.207 325.377 C 302.447 326.286,306.773 330.605,306.773 331.932 C 306.773 332.176,307.174 333.025,307.665 333.818 C 309.130 336.184,309.212 342.930,307.811 345.891 C 307.240 347.098,306.773 348.316,306.773 348.598 C 306.773 348.881,306.370 349.519,305.876 350.016 C 305.383 350.514,304.783 351.162,304.542 351.456 C 303.538 352.682,300.726 354.948,299.896 355.199 C 299.406 355.348,298.445 355.807,297.762 356.221 C 295.897 357.349,287.685 357.318,285.553 356.175 C 284.736 355.737,283.872 355.378,283.634 355.378 C 283.127 355.378,279.640 352.639,279.138 351.847 C 278.949 351.549,278.449 350.959,278.027 350.537 C 277.605 350.114,277.078 349.373,276.856 348.888 C 276.634 348.404,276.199 347.548,275.889 346.985 C 274.666 344.767,274.831 332.669,276.083 332.669 C 276.256 332.669,276.622 332.127,276.896 331.464 C 277.564 329.852,281.155 326.191,282.769 325.478 C 283.481 325.163,284.064 324.775,284.064 324.615 C 284.064 323.367,297.318 323.155,298.672 324.381 M161.554 348.181 C 155.958 349.393,152.022 352.447,149.402 357.611 C 147.719 360.927,147.291 369.451,148.684 371.912 C 149.057 372.570,149.541 373.501,149.762 373.983 C 150.692 376.012,152.767 378.346,154.895 379.756 C 156.147 380.586,157.378 381.437,157.630 381.648 C 157.883 381.858,159.788 382.334,161.865 382.705 C 179.544 385.862,190.302 364.985,177.458 352.445 C 176.232 351.248,174.774 350.154,174.219 350.015 C 173.665 349.875,172.975 349.526,172.688 349.239 C 172.279 348.830,165.502 347.277,164.883 347.450 C 164.805 347.472,163.307 347.801,161.554 348.181 M231.873 347.805 C 231.325 347.982,230.263 348.146,229.514 348.167 C 225.938 348.272,219.640 353.065,217.396 357.391 C 215.272 361.484,215.145 370.119,217.166 372.957 C 217.585 373.546,217.928 374.188,217.928 374.384 C 217.928 374.581,218.847 375.772,219.969 377.031 C 230.916 389.313,250.990 381.748,250.996 365.338 C 250.998 357.162,244.709 349.415,237.064 348.179 C 235.852 347.983,234.412 347.746,233.865 347.653 C 233.317 347.559,232.420 347.627,231.873 347.805 M169.428 348.830 C 170.690 348.977,171.823 349.258,171.945 349.455 C 172.067 349.652,172.756 350.060,173.478 350.361 C 174.853 350.936,176.074 351.817,177.460 353.237 C 179.250 355.071,180.080 356.107,180.080 356.509 C 180.080 356.741,180.541 357.791,181.106 358.843 C 182.539 361.517,182.455 370.299,180.976 372.372 C 180.483 373.063,180.080 373.887,180.080 374.202 C 180.080 375.261,175.447 379.554,172.854 380.898 C 169.810 382.476,161.596 382.881,159.163 381.574 C 158.506 381.220,157.408 380.669,156.723 380.348 C 154.719 379.408,151.204 375.591,149.854 372.890 C 148.247 369.672,147.942 360.712,149.378 358.887 C 149.802 358.347,150.270 357.426,150.417 356.841 C 150.564 356.256,150.839 355.777,151.029 355.777 C 151.219 355.777,151.653 355.238,151.993 354.580 C 152.583 353.438,153.682 352.567,157.652 350.095 C 159.464 348.966,163.540 348.144,165.936 348.424 C 166.594 348.501,168.165 348.684,169.428 348.830 M237.052 348.804 C 241.304 349.373,246.468 353.419,248.805 358.010 C 250.283 360.914,250.596 369.613,249.305 371.912 C 248.936 372.570,248.369 373.660,248.045 374.336 C 247.334 375.817,242.445 380.478,241.603 380.478 C 241.273 380.478,240.470 380.873,239.818 381.355 C 238.737 382.154,238.168 382.231,233.349 382.231 L 228.065 382.231 225.686 380.870 C 222.908 379.280,218.520 374.931,218.134 373.384 C 217.987 372.794,217.566 371.978,217.200 371.572 C 216.215 370.478,216.215 360.199,217.200 359.106 C 217.566 358.699,217.988 357.877,218.138 357.279 C 218.942 354.057,225.770 349.229,230.365 348.635 C 232.836 348.315,233.529 348.332,237.052 348.804 " stroke="none" fill="#4fadad" fill-rule="evenodd"></path><path id="path2" d="M0.000 199.203 L 0.000 398.406 200.000 398.406 L 400.000 398.406 400.000 199.203 L 400.000 0.000 200.000 0.000 L 0.000 0.000 0.000 199.203 M171.897 26.237 C 172.765 26.707,173.687 27.092,173.946 27.092 C 174.795 27.092,179.960 32.429,180.886 34.263 C 188.048 48.450,175.011 64.365,160.115 59.620 C 146.976 55.435,143.385 39.071,153.535 29.636 C 155.040 28.237,156.436 27.092,156.635 27.092 C 156.834 27.092,157.664 26.787,158.479 26.415 C 160.978 25.273,161.806 25.149,166.135 25.268 C 169.508 25.361,170.625 25.549,171.897 26.237 M238.689 25.734 C 238.994 25.969,239.871 26.408,240.637 26.708 C 243.560 27.855,248.606 32.471,248.606 33.998 C 248.606 34.219,248.873 34.695,249.200 35.056 C 249.527 35.418,250.100 37.165,250.473 38.938 C 254.090 56.145,234.289 67.228,220.908 55.488 C 214.497 49.863,214.160 37.224,220.247 30.708 C 221.548 29.316,224.423 27.092,224.922 27.092 C 225.025 27.092,225.868 26.749,226.797 26.331 C 227.726 25.913,228.755 25.469,229.084 25.345 C 230.105 24.960,238.105 25.284,238.689 25.734 M113.147 51.451 C 122.218 55.377,126.512 64.238,123.689 73.207 C 123.132 74.976,122.415 76.641,122.095 76.906 C 121.776 77.171,121.514 77.615,121.514 77.892 C 121.514 79.084,116.492 83.090,113.337 84.415 C 106.153 87.430,96.777 84.803,92.530 78.586 C 86.068 69.125,90.074 54.665,100.000 51.624 C 100.548 51.456,101.803 51.068,102.789 50.763 C 105.444 49.940,110.418 50.270,113.147 51.451 M297.706 51.353 C 299.824 52.090,302.254 53.558,304.183 55.269 C 309.810 60.259,310.853 73.083,306.072 78.486 C 301.396 83.771,297.940 85.458,291.792 85.458 C 289.292 85.458,286.954 85.260,286.414 85.002 C 285.888 84.751,284.459 84.081,283.239 83.513 C 276.325 80.298,272.533 71.187,274.778 63.185 C 277.559 53.276,287.892 47.944,297.706 51.353 M206.207 84.057 C 212.141 84.828,220.468 88.201,224.569 91.495 C 225.482 92.228,226.384 92.829,226.573 92.829 C 227.443 92.829,235.857 102.148,235.857 103.112 C 235.857 103.319,236.105 103.694,236.408 103.946 C 236.712 104.198,237.538 105.609,238.245 107.082 C 238.952 108.556,239.801 110.299,240.133 110.956 C 240.465 111.614,240.970 113.137,241.256 114.343 C 241.542 115.548,242.057 117.514,242.402 118.712 C 243.272 121.740,243.278 132.809,242.411 135.869 C 242.072 137.068,241.559 139.034,241.272 140.239 C 240.985 141.444,240.477 142.968,240.144 143.625 C 239.811 144.283,238.975 146.012,238.286 147.469 C 237.597 148.925,236.769 150.337,236.445 150.605 C 236.121 150.874,235.857 151.331,235.857 151.622 C 235.857 152.322,232.200 156.689,229.719 158.953 C 228.631 159.945,227.350 161.160,226.872 161.653 C 226.395 162.146,225.878 162.550,225.725 162.550 C 225.571 162.550,224.874 162.954,224.177 163.447 C 222.321 164.760,221.631 165.151,218.327 166.759 C 213.456 169.130,213.087 169.266,209.761 169.928 C 208.008 170.276,205.703 170.742,204.640 170.964 C 200.565 171.811,187.370 170.289,185.118 168.711 C 184.660 168.390,183.921 168.125,183.477 168.122 C 183.033 168.118,182.267 167.894,181.775 167.624 C 181.284 167.353,179.726 166.528,178.314 165.789 C 176.902 165.051,175.410 164.134,174.999 163.752 C 174.589 163.369,173.816 162.828,173.282 162.549 C 172.092 161.927,171.839 161.708,168.226 158.181 C 164.761 154.798,162.535 151.636,160.223 146.813 C 158.399 143.009,157.379 140.148,156.986 137.736 C 156.786 136.504,156.431 135.140,156.199 134.706 C 155.650 133.680,155.643 121.759,156.191 119.918 C 156.418 119.152,156.779 117.629,156.993 116.534 C 157.598 113.440,159.237 109.488,162.163 104.070 C 165.092 98.647,173.736 90.896,180.080 88.006 C 181.066 87.557,182.321 86.958,182.869 86.674 C 183.416 86.391,184.851 85.933,186.056 85.657 C 187.261 85.381,188.461 84.985,188.723 84.778 C 189.903 83.844,201.039 83.385,206.207 84.057 M67.822 94.363 C 80.687 97.306,85.456 114.459,76.039 123.914 C 74.802 125.155,72.740 126.779,71.457 127.523 L 69.124 128.875 63.314 128.880 C 55.736 128.886,50.743 126.340,48.159 121.153 C 47.876 120.585,47.432 119.851,47.174 119.522 C 46.547 118.725,45.418 113.603,45.418 111.554 C 45.418 106.205,48.100 100.676,52.244 97.479 C 56.463 94.225,62.201 93.077,67.822 94.363 M339.144 94.438 C 359.827 98.261,356.187 128.945,335.060 128.864 C 318.957 128.801,311.513 110.331,323.005 98.952 C 324.415 97.556,325.762 96.414,326.000 96.414 C 326.237 96.414,326.736 96.139,327.107 95.802 C 328.655 94.402,335.036 93.678,339.144 94.438 M43.421 153.049 C 48.747 154.847,51.241 157.147,54.593 163.347 C 56.246 166.405,56.053 173.744,54.220 177.498 C 52.890 180.222,48.008 185.652,46.881 185.661 C 46.624 185.663,45.518 186.106,44.422 186.645 C 41.282 188.189,34.584 188.110,31.031 186.486 C 27.237 184.752,21.530 179.169,21.509 177.171 C 21.506 176.908,21.147 175.557,20.712 174.168 C 19.422 170.052,20.103 165.312,22.606 160.980 C 23.557 159.334,27.206 155.378,27.773 155.378 C 27.912 155.378,28.368 155.065,28.788 154.681 C 31.302 152.383,38.929 151.532,43.421 153.049 M364.462 152.741 C 365.054 153.043,366.165 153.424,366.932 153.587 C 369.452 154.124,375.299 158.945,375.299 160.486 C 375.299 160.691,375.556 161.072,375.871 161.333 C 377.634 162.797,379.129 172.541,377.835 174.142 C 377.586 174.450,377.253 175.329,377.095 176.096 C 376.450 179.223,370.427 186.056,368.315 186.056 C 368.041 186.056,367.035 186.410,366.079 186.844 C 363.572 187.982,357.006 187.987,354.781 186.853 C 353.921 186.414,353.001 186.056,352.735 186.056 C 352.470 186.056,351.720 185.608,351.069 185.060 C 350.418 184.512,349.726 184.064,349.532 184.064 C 349.109 184.064,346.614 181.475,346.614 181.036 C 346.614 180.867,346.274 180.359,345.858 179.906 C 342.306 176.037,342.056 164.718,345.436 160.757 C 345.810 160.319,346.340 159.526,346.614 158.995 C 347.538 157.208,351.891 154.089,354.155 153.592 C 354.857 153.438,355.913 153.060,356.501 152.754 C 357.901 152.024,363.042 152.015,364.462 152.741 M130.279 160.543 C 134.777 161.299,139.582 162.710,140.679 163.597 C 140.985 163.844,141.680 164.183,142.223 164.350 C 142.767 164.517,143.663 164.959,144.215 165.332 C 144.767 165.705,146.026 166.525,147.012 167.152 C 149.387 168.665,152.824 171.539,154.569 173.472 C 155.343 174.329,156.158 175.226,156.380 175.464 C 156.602 175.702,157.089 176.345,157.462 176.892 C 157.836 177.440,158.650 178.606,159.271 179.482 C 159.893 180.359,160.672 181.614,161.004 182.271 C 161.335 182.928,161.798 183.825,162.033 184.263 C 165.814 191.330,167.713 206.993,165.536 213.148 C 165.187 214.134,164.723 215.747,164.504 216.733 C 164.285 217.719,163.740 219.333,163.293 220.319 C 161.827 223.551,160.258 226.620,159.796 227.160 C 159.546 227.451,158.764 228.583,158.057 229.676 C 156.364 232.296,151.747 236.963,149.004 238.826 C 147.799 239.644,146.724 240.432,146.614 240.575 C 145.992 241.389,139.473 244.579,137.849 244.865 C 137.082 244.999,136.034 245.373,135.520 245.696 C 131.829 248.015,114.297 248.032,109.739 245.721 C 109.094 245.394,107.858 244.998,106.993 244.841 C 106.128 244.684,104.984 244.212,104.450 243.792 C 103.915 243.372,103.241 243.028,102.952 243.028 C 102.413 243.028,100.227 241.716,98.343 240.260 C 97.761 239.810,97.152 239.442,96.990 239.442 C 96.288 239.442,90.701 234.358,88.645 231.849 C 87.151 230.025,84.771 226.386,83.971 224.701 C 83.711 224.153,83.177 223.278,82.785 222.755 C 82.393 222.232,82.072 221.421,82.072 220.951 C 82.072 220.482,81.793 219.700,81.453 219.215 C 81.113 218.729,80.575 217.087,80.258 215.567 C 79.941 214.046,79.470 212.297,79.212 211.680 C 78.438 209.833,78.541 197.856,79.351 195.418 C 79.715 194.323,80.122 192.709,80.256 191.833 C 81.088 186.362,87.509 175.867,92.930 171.116 C 96.873 167.661,105.287 162.550,107.032 162.550 C 107.345 162.550,108.267 162.217,109.080 161.809 C 109.893 161.402,111.544 160.935,112.749 160.771 C 113.954 160.607,115.747 160.336,116.733 160.170 C 120.040 159.612,125.659 159.767,130.279 160.543 M283.758 160.595 C 285.350 160.835,287.553 161.373,288.653 161.790 C 289.753 162.208,290.903 162.550,291.208 162.550 C 291.948 162.550,300.000 166.593,300.000 166.964 C 300.000 167.124,300.797 167.722,301.772 168.293 C 306.421 171.018,316.335 183.585,316.335 186.754 C 316.335 187.043,316.587 187.676,316.895 188.161 C 319.207 191.804,320.373 209.343,318.605 213.895 C 318.233 214.854,317.928 215.999,317.928 216.441 C 317.928 216.882,317.585 217.980,317.166 218.881 C 316.747 219.781,315.845 221.728,315.162 223.208 C 313.916 225.906,313.374 226.783,310.673 230.478 C 308.960 232.822,303.780 237.837,301.494 239.366 C 297.883 241.781,295.759 242.998,294.749 243.231 C 294.161 243.367,293.482 243.716,293.240 244.008 C 292.998 244.300,292.141 244.662,291.334 244.813 C 290.528 244.964,289.346 245.358,288.708 245.688 C 284.637 247.793,266.406 247.777,263.159 245.666 C 262.715 245.377,261.633 245.008,260.757 244.847 C 259.880 244.686,258.894 244.326,258.566 244.047 C 258.237 243.767,257.378 243.341,256.656 243.099 C 255.934 242.857,254.830 242.294,254.204 241.847 C 253.577 241.401,252.967 241.036,252.848 241.036 C 251.192 241.036,242.240 232.259,239.506 227.954 C 238.485 226.347,237.246 224.412,236.753 223.654 C 236.260 222.896,235.851 221.970,235.844 221.596 C 235.837 221.222,235.391 220.020,234.852 218.924 C 234.313 217.829,233.870 216.551,233.868 216.086 C 233.866 215.620,233.563 214.455,233.193 213.496 C 232.186 210.880,232.180 197.663,233.185 194.024 C 234.238 190.207,235.673 186.008,236.384 184.661 C 236.615 184.223,237.118 183.223,237.502 182.439 C 237.885 181.655,238.479 180.782,238.821 180.498 C 239.163 180.214,239.442 179.808,239.442 179.596 C 239.442 177.043,252.289 165.607,256.574 164.346 C 257.122 164.185,258.129 163.714,258.812 163.301 C 259.495 162.888,260.486 162.550,261.014 162.550 C 261.542 162.550,262.380 162.266,262.876 161.918 C 264.956 160.461,277.559 159.662,283.758 160.595 M42.859 220.870 C 62.348 227.577,59.019 254.942,38.621 255.703 C 32.021 255.949,25.859 252.866,23.242 248.008 C 22.888 247.351,22.445 246.713,22.257 246.591 C 21.663 246.205,19.920 239.771,19.920 237.961 C 19.920 226.477,32.315 217.241,42.859 220.870 M364.882 220.965 C 368.793 222.030,369.625 222.492,372.702 225.307 C 377.393 229.597,379.680 237.253,377.731 242.146 C 377.270 243.305,376.892 244.592,376.892 245.006 C 376.892 245.421,376.662 245.997,376.380 246.286 C 376.097 246.576,375.457 247.483,374.956 248.301 C 374.048 249.786,370.246 253.386,369.587 253.386 C 369.396 253.386,368.321 253.848,367.198 254.412 C 364.964 255.534,354.941 255.786,354.268 254.737 C 354.112 254.494,353.267 254.046,352.390 253.741 C 349.837 252.853,345.462 248.173,344.124 244.897 C 340.041 234.906,345.700 223.730,356.253 220.939 C 360.857 219.721,360.310 219.719,364.882 220.965 M204.635 237.436 C 209.040 237.726,212.680 238.625,216.135 240.277 C 217.012 240.695,217.889 241.038,218.085 241.037 C 218.453 241.036,225.144 244.959,225.498 245.383 C 225.608 245.515,226.325 246.089,227.092 246.660 C 229.926 248.770,235.857 255.443,235.857 256.521 C 235.857 256.716,236.114 257.088,236.428 257.349 C 237.092 257.900,241.036 265.869,241.036 266.659 C 241.036 266.951,241.492 268.701,242.051 270.547 C 243.587 275.632,243.449 289.721,241.841 291.833 C 241.675 292.052,241.413 292.925,241.260 293.772 C 240.951 295.486,237.529 302.937,236.147 304.906 C 232.731 309.770,228.392 314.296,225.039 316.489 C 221.191 319.007,217.109 321.118,214.542 321.918 C 213.665 322.191,212.755 322.567,212.519 322.753 C 212.282 322.939,210.848 323.282,209.331 323.515 C 207.815 323.749,205.408 324.137,203.984 324.379 C 200.543 324.963,197.992 324.960,194.622 324.367 C 193.088 324.097,190.789 323.715,189.513 323.518 C 184.542 322.751,176.242 318.743,171.762 314.946 C 169.881 313.351,164.846 308.027,164.007 306.744 C 163.534 306.021,162.836 304.971,162.455 304.408 C 162.074 303.846,161.454 302.759,161.076 301.992 C 160.699 301.225,160.174 300.329,159.911 300.000 C 159.286 299.220,157.843 295.206,157.190 292.430 C 156.906 291.225,156.462 289.464,156.203 288.517 C 155.498 285.946,155.606 274.794,156.359 272.311 C 156.692 271.215,156.965 269.991,156.968 269.590 C 156.982 267.180,161.536 257.791,164.388 254.290 C 172.610 244.200,183.183 238.200,193.997 237.486 C 196.416 237.326,198.523 237.068,198.679 236.912 C 198.835 236.756,199.241 236.744,199.581 236.886 C 199.921 237.028,202.195 237.275,204.635 237.436 M69.690 279.933 C 81.852 284.798,84.982 300.630,75.531 309.472 C 71.100 313.617,62.421 315.830,58.539 313.804 C 57.977 313.511,56.991 313.144,56.348 312.989 C 52.317 312.018,47.448 306.429,46.167 301.302 C 44.225 293.528,46.645 286.854,53.326 281.561 C 56.829 278.786,64.832 277.990,69.690 279.933 M341.272 279.880 C 342.470 280.428,343.526 280.876,343.620 280.876 C 344.790 280.876,349.242 285.225,350.757 287.849 C 353.566 292.710,353.416 300.699,350.420 305.926 C 349.506 307.519,344.828 311.773,343.390 312.318 C 342.643 312.601,341.139 313.195,340.049 313.638 C 332.668 316.634,322.925 311.881,318.869 303.306 C 312.611 290.077,328.118 273.863,341.272 279.880 M111.271 323.074 C 112.978 323.478,114.681 324.079,115.056 324.407 C 115.430 324.736,116.112 325.119,116.569 325.258 C 117.559 325.559,121.514 329.441,121.514 330.112 C 121.514 330.369,121.777 330.798,122.099 331.065 C 123.928 332.584,125.262 341.120,124.138 344.115 C 123.828 344.942,123.467 346.104,123.337 346.699 C 121.518 354.993,108.094 360.365,99.435 356.264 C 88.094 350.894,85.618 336.363,94.530 327.478 C 95.842 326.170,97.103 325.100,97.331 325.100 C 97.559 325.100,98.063 324.813,98.450 324.462 C 100.462 322.642,106.631 321.974,111.271 323.074 M296.202 323.079 C 297.893 323.502,299.588 324.130,299.969 324.474 C 300.349 324.818,300.775 325.100,300.916 325.100 C 303.626 325.100,308.438 332.324,309.200 337.537 C 310.311 345.136,306.264 352.667,299.078 356.375 C 296.538 357.685,287.993 358.104,285.657 357.032 C 279.815 354.353,275.882 350.035,274.717 345.020 C 271.466 331.026,282.581 319.676,296.202 323.079 M168.596 348.064 C 170.559 348.423,172.401 348.952,172.688 349.239 C 172.975 349.526,173.665 349.875,174.219 350.015 C 174.774 350.154,176.232 351.248,177.458 352.445 C 190.302 364.985,179.544 385.862,161.865 382.705 C 159.788 382.334,157.883 381.858,157.630 381.648 C 157.378 381.437,156.147 380.586,154.895 379.756 C 152.767 378.346,150.692 376.012,149.762 373.983 C 149.541 373.501,149.057 372.570,148.684 371.912 C 147.291 369.451,147.719 360.927,149.402 357.611 C 152.022 352.447,155.958 349.393,161.554 348.181 C 163.307 347.801,164.805 347.472,164.883 347.450 C 164.961 347.428,166.632 347.704,168.596 348.064 M237.064 348.179 C 244.709 349.415,250.998 357.162,250.996 365.338 C 250.990 381.748,230.916 389.313,219.969 377.031 C 218.847 375.772,217.928 374.581,217.928 374.384 C 217.928 374.188,217.585 373.546,217.166 372.957 C 215.145 370.119,215.272 361.484,217.396 357.391 C 219.640 353.065,225.938 348.272,229.514 348.167 C 230.263 348.146,231.325 347.982,231.873 347.805 C 232.420 347.627,233.317 347.559,233.865 347.653 C 234.412 347.746,235.852 347.983,237.064 348.179 " stroke="none" fill="#fbfbfb" fill-rule="evenodd"></path><path id="path3" d="M330.326 94.639 C 328.928 94.942,327.479 95.466,327.107 95.802 C 326.736 96.139,326.237 96.414,326.000 96.414 C 324.942 96.414,320.396 101.587,319.129 104.231 C 315.876 111.019,318.082 120.692,323.895 125.129 C 329.600 129.483,337.373 130.466,343.028 127.548 C 362.216 117.646,351.558 90.032,330.326 94.639 M356.501 152.754 C 355.913 153.060,354.857 153.438,354.155 153.592 C 351.891 154.089,347.538 157.208,346.614 158.995 C 346.340 159.526,345.810 160.319,345.436 160.757 C 342.056 164.718,342.306 176.037,345.858 179.906 C 346.274 180.359,346.614 180.867,346.614 181.036 C 346.614 181.475,349.109 184.064,349.532 184.064 C 349.726 184.064,350.418 184.512,351.069 185.060 C 351.720 185.608,352.470 186.056,352.735 186.056 C 353.001 186.056,353.921 186.414,354.781 186.853 C 357.006 187.987,363.572 187.982,366.079 186.844 C 367.035 186.410,368.041 186.056,368.315 186.056 C 370.427 186.056,376.450 179.223,377.095 176.096 C 377.253 175.329,377.586 174.450,377.835 174.142 C 379.129 172.541,377.634 162.797,375.871 161.333 C 375.556 161.072,375.299 160.691,375.299 160.486 C 375.299 158.945,369.452 154.124,366.932 153.587 C 366.165 153.424,365.054 153.043,364.462 152.741 C 363.042 152.015,357.901 152.024,356.501 152.754 M267.048 160.777 C 265.249 161.057,263.372 161.571,262.876 161.918 C 262.380 162.266,261.542 162.550,261.014 162.550 C 260.486 162.550,259.495 162.888,258.812 163.301 C 258.129 163.714,257.122 164.185,256.574 164.346 C 252.289 165.607,239.442 177.043,239.442 179.596 C 239.442 179.808,239.163 180.214,238.821 180.498 C 238.479 180.782,237.885 181.655,237.502 182.439 C 237.118 183.223,236.615 184.223,236.384 184.661 C 235.673 186.008,234.238 190.207,233.185 194.024 C 232.180 197.663,232.186 210.880,233.193 213.496 C 233.563 214.455,233.866 215.620,233.868 216.086 C 233.870 216.551,234.313 217.829,234.852 218.924 C 235.391 220.020,235.837 221.222,235.844 221.596 C 235.851 221.970,236.260 222.896,236.753 223.654 C 237.246 224.412,238.485 226.347,239.506 227.954 C 242.240 232.259,251.192 241.036,252.848 241.036 C 252.967 241.036,253.577 241.401,254.204 241.847 C 254.830 242.294,255.934 242.857,256.656 243.099 C 257.378 243.341,258.237 243.767,258.566 244.047 C 258.894 244.326,259.880 244.686,260.757 244.847 C 261.633 245.008,262.715 245.377,263.159 245.666 C 266.406 247.777,284.637 247.793,288.708 245.688 C 289.346 245.358,290.528 244.964,291.334 244.813 C 292.141 244.662,292.998 244.300,293.240 244.008 C 293.482 243.716,294.161 243.367,294.749 243.231 C 295.759 242.998,297.883 241.781,301.494 239.366 C 303.780 237.837,308.960 232.822,310.673 230.478 C 313.374 226.783,313.916 225.906,315.162 223.208 C 315.845 221.728,316.747 219.781,317.166 218.881 C 317.585 217.980,317.928 216.882,317.928 216.441 C 317.928 215.999,318.233 214.854,318.605 213.895 C 320.373 209.343,319.207 191.804,316.895 188.161 C 316.587 187.676,316.335 187.043,316.335 186.754 C 316.335 183.585,306.421 171.018,301.772 168.293 C 300.797 167.722,300.000 167.124,300.000 166.964 C 300.000 166.593,291.948 162.550,291.208 162.550 C 290.903 162.550,289.753 162.208,288.653 161.790 C 284.341 160.153,274.126 159.673,267.048 160.777 M356.253 220.939 C 345.700 223.730,340.041 234.906,344.124 244.897 C 345.462 248.173,349.837 252.853,352.390 253.741 C 353.267 254.046,354.112 254.494,354.268 254.737 C 354.941 255.786,364.964 255.534,367.198 254.412 C 368.321 253.848,369.396 253.386,369.587 253.386 C 370.246 253.386,374.048 249.786,374.956 248.301 C 375.457 247.483,376.097 246.576,376.380 246.286 C 376.662 245.997,376.892 245.421,376.892 245.006 C 376.892 244.592,377.270 243.305,377.731 242.146 C 379.680 237.253,377.393 229.597,372.702 225.307 C 369.625 222.492,368.793 222.030,364.882 220.965 C 360.310 219.719,360.857 219.721,356.253 220.939 M328.875 280.024 C 311.000 287.857,315.259 312.998,334.670 314.228 C 337.494 314.407,338.400 314.307,340.049 313.638 C 341.139 313.195,342.643 312.601,343.390 312.318 C 351.411 309.277,355.428 295.935,350.757 287.849 C 349.242 285.225,344.790 280.876,343.620 280.876 C 343.526 280.876,342.470 280.428,341.272 279.880 C 338.108 278.433,332.353 278.500,328.875 280.024 " stroke="none" fill="#e4cc2f" fill-rule="evenodd"></path></g></svg>