<svg id="svg" version="1.1" xmlns="http://www.w3.org/2000/svg" xmlns:xlink="http://www.w3.org/1999/xlink" width="400" height="398.2142857142857" viewBox="0, 0, 400,398.2142857142857"><g id="svgg"><path id="path0" d="M58.802 94.858 C 56.960 95.235,53.795 96.794,52.687 97.869 C 52.412 98.136,51.874 98.459,51.492 98.587 C 51.109 98.716,50.349 99.562,49.801 100.469 C 49.253 101.375,48.387 102.746,47.876 103.515 C 46.133 106.136,45.688 115.509,47.175 118.254 C 47.493 118.842,48.018 119.861,48.341 120.518 C 48.864 121.582,50.761 123.698,52.852 125.549 C 56.575 128.845,65.885 129.752,70.749 127.293 C 73.283 126.012,78.486 121.193,78.486 120.128 C 78.486 119.777,78.886 118.948,79.376 118.286 C 80.195 117.179,80.264 116.663,80.239 111.828 C 80.211 106.169,80.121 105.880,76.732 100.554 C 75.702 98.936,72.573 96.678,69.339 95.219 C 67.980 94.606,61.168 94.372,58.802 94.858 M32.995 153.408 C 31.531 153.799,29.739 154.532,29.011 155.037 C 27.280 156.239,23.506 159.835,23.506 160.283 C 23.506 160.476,23.170 161.110,22.759 161.691 C 22.348 162.273,21.888 163.376,21.738 164.143 C 21.588 164.910,21.182 166.481,20.836 167.635 C 20.045 170.270,21.290 176.327,23.206 179.167 C 24.563 181.178,29.424 185.652,30.273 185.671 C 30.605 185.678,31.594 186.031,32.470 186.454 C 33.719 187.057,34.926 187.224,38.048 187.224 C 41.170 187.224,42.377 187.057,43.625 186.454 C 44.502 186.031,45.389 185.678,45.596 185.671 C 47.545 185.601,51.586 181.346,53.933 176.892 C 55.535 173.852,55.734 166.484,54.281 164.021 C 53.789 163.187,53.386 162.284,53.386 162.016 C 53.386 160.894,48.256 155.378,47.212 155.378 C 46.883 155.378,46.614 155.221,46.614 155.028 C 46.614 154.588,44.881 153.897,42.924 153.557 C 42.100 153.413,41.327 153.137,41.207 152.943 C 40.849 152.363,35.851 152.646,32.995 153.408 M114.686 160.931 C 113.012 161.107,111.067 161.539,110.363 161.890 C 109.659 162.241,108.429 162.646,107.629 162.789 C 106.830 162.932,105.906 163.261,105.578 163.520 C 105.249 163.778,103.725 164.600,102.191 165.346 C 100.657 166.092,98.932 167.067,98.357 167.514 C 97.782 167.961,96.802 168.685,96.179 169.124 C 93.560 170.966,88.835 175.875,86.943 178.719 C 85.015 181.616,82.471 186.320,82.468 186.993 C 82.466 187.244,82.174 187.988,81.818 188.645 C 79.620 192.706,77.979 209.904,79.689 210.961 C 79.865 211.070,80.219 212.457,80.477 214.045 C 80.735 215.633,81.289 217.661,81.708 218.552 C 82.127 219.443,82.470 220.393,82.470 220.662 C 82.470 221.738,87.122 229.217,89.146 231.396 C 89.421 231.692,89.832 232.281,90.059 232.705 C 90.286 233.129,92.123 234.820,94.140 236.462 C 98.852 240.297,99.206 240.564,100.398 241.178 C 100.946 241.460,101.753 241.888,102.191 242.128 C 104.835 243.575,107.266 244.622,107.983 244.622 C 108.437 244.622,109.624 244.993,110.620 245.447 C 114.877 247.386,129.699 247.374,134.636 245.428 C 135.762 244.984,137.100 244.622,137.610 244.622 C 138.121 244.622,138.966 244.289,139.488 243.883 C 140.011 243.476,141.096 242.929,141.900 242.667 C 142.705 242.405,143.578 241.931,143.842 241.613 C 144.105 241.296,144.582 241.036,144.902 241.036 C 145.394 241.036,146.480 240.268,149.691 237.649 C 149.959 237.430,150.643 236.892,151.210 236.454 C 153.249 234.879,158.566 228.820,158.566 228.072 C 158.566 227.925,159.014 227.272,159.562 226.621 C 160.110 225.970,160.558 225.120,160.558 224.732 C 160.558 224.345,160.916 223.703,161.355 223.307 C 161.793 222.910,162.153 222.300,162.155 221.950 C 162.157 221.601,162.593 220.382,163.124 219.243 C 163.655 218.103,164.213 216.310,164.366 215.258 C 164.518 214.207,164.774 213.167,164.936 212.948 C 166.013 211.484,166.205 197.650,165.185 194.982 C 164.858 194.126,164.388 192.399,164.141 191.142 C 163.894 189.886,163.536 188.762,163.346 188.645 C 163.156 188.528,162.717 187.458,162.371 186.268 C 162.026 185.078,161.563 183.993,161.343 183.858 C 161.124 183.722,160.678 183.040,160.353 182.343 C 158.682 178.757,153.358 172.317,150.142 169.993 C 146.489 167.352,143.896 165.688,142.231 164.915 C 141.683 164.660,140.723 164.182,140.098 163.852 C 139.473 163.523,138.128 163.017,137.110 162.728 C 136.092 162.439,134.475 161.916,133.517 161.565 C 131.463 160.812,119.598 160.413,114.686 160.931 M33.524 221.328 C 31.693 221.842,29.886 222.543,29.508 222.885 C 29.131 223.226,28.622 223.506,28.377 223.506 C 27.781 223.506,24.054 227.321,23.366 228.635 C 23.064 229.211,22.526 230.219,22.168 230.876 C 21.811 231.534,21.518 232.574,21.516 233.187 C 21.515 233.801,21.228 234.855,20.879 235.531 C 20.192 236.859,20.233 237.513,21.312 242.430 C 21.748 244.418,22.367 246.041,22.958 246.744 C 23.478 247.363,23.909 247.991,23.914 248.138 C 23.947 249.104,28.588 253.064,30.279 253.570 C 30.827 253.734,31.723 254.163,32.271 254.524 C 34.163 255.769,41.882 255.449,44.821 254.003 C 48.247 252.318,51.394 249.939,51.394 249.035 C 51.394 248.852,51.676 248.469,52.021 248.183 C 54.829 245.853,56.246 236.065,54.337 232.189 C 53.874 231.248,53.172 229.804,52.778 228.981 C 49.888 222.937,40.738 219.300,33.524 221.328 M191.595 238.177 C 190.369 238.325,189.114 238.650,188.806 238.899 C 188.499 239.148,187.440 239.484,186.454 239.645 C 185.468 239.807,184.034 240.267,183.267 240.668 C 182.500 241.069,181.045 241.768,180.035 242.221 C 175.365 244.317,170.235 248.490,165.576 253.984 C 165.018 254.641,164.293 255.489,163.963 255.867 C 163.634 256.246,163.101 257.187,162.779 257.959 C 162.456 258.731,162.026 259.363,161.823 259.363 C 161.620 259.363,161.355 259.858,161.234 260.464 C 161.113 261.069,160.642 261.993,160.188 262.517 C 159.734 263.040,159.363 263.805,159.363 264.217 C 159.363 264.629,159.064 265.632,158.699 266.447 C 156.760 270.777,155.621 282.366,156.712 286.671 C 157.043 287.976,157.438 290.120,157.589 291.434 C 157.740 292.749,158.101 294.096,158.391 294.428 C 158.681 294.760,159.092 295.804,159.304 296.748 C 159.516 297.691,159.953 298.764,160.275 299.132 C 160.598 299.500,160.994 300.249,161.155 300.797 C 161.317 301.345,161.684 302.062,161.972 302.391 C 162.259 302.720,162.673 303.437,162.892 303.985 C 163.532 305.587,168.637 311.276,171.792 313.902 C 173.392 315.234,175.010 316.591,175.388 316.917 C 175.766 317.243,176.515 317.620,177.052 317.755 C 177.589 317.890,178.339 318.342,178.718 318.761 C 179.096 319.179,179.754 319.522,180.178 319.522 C 180.603 319.522,181.387 319.866,181.921 320.286 C 182.455 320.706,183.649 321.173,184.573 321.325 C 185.498 321.477,186.565 321.874,186.944 322.209 C 187.388 322.602,189.014 322.938,191.525 323.157 C 193.667 323.344,196.551 323.713,197.936 323.978 C 199.786 324.332,200.641 324.343,201.159 324.019 C 201.547 323.777,203.731 323.452,206.012 323.297 C 208.836 323.105,210.541 322.791,211.355 322.313 C 212.012 321.927,213.261 321.484,214.130 321.329 C 214.999 321.174,216.192 320.704,216.781 320.285 C 217.370 319.865,218.114 319.522,218.434 319.522 C 218.754 319.522,219.472 319.163,220.029 318.725 C 220.586 318.287,221.212 317.928,221.420 317.928 C 221.628 317.928,222.998 317.032,224.463 315.936 C 225.929 314.841,227.217 313.944,227.325 313.944 C 228.082 313.944,233.681 307.469,235.294 304.727 C 235.533 304.321,236.005 303.675,236.343 303.290 C 236.681 302.905,237.090 302.141,237.251 301.594 C 237.412 301.046,237.769 300.329,238.045 300.000 C 238.320 299.671,238.770 298.685,239.045 297.809 C 239.321 296.932,239.732 295.981,239.959 295.696 C 240.452 295.076,241.713 289.756,242.291 285.857 C 242.762 282.680,242.430 273.030,241.824 272.301 C 241.606 272.038,241.233 270.767,240.995 269.477 C 240.758 268.187,240.132 266.218,239.604 265.101 C 239.077 263.984,238.645 262.768,238.645 262.399 C 238.645 262.030,238.376 261.625,238.048 261.499 C 237.719 261.373,237.450 260.955,237.450 260.571 C 237.450 260.187,237.002 259.212,236.454 258.404 C 235.906 257.597,235.458 256.772,235.458 256.570 C 235.458 256.368,235.100 256.011,234.661 255.777 C 234.223 255.542,233.865 255.156,233.865 254.917 C 233.865 253.999,224.683 245.020,223.744 245.020 C 223.595 245.020,222.898 244.628,222.195 244.149 C 219.182 242.099,218.733 241.833,218.282 241.833 C 218.020 241.833,216.892 241.401,215.775 240.873 C 214.659 240.345,213.028 239.780,212.151 239.617 C 211.275 239.455,210.165 239.066,209.684 238.754 C 208.700 238.113,195.587 237.695,191.595 238.177 M57.864 280.090 C 52.957 281.719,49.520 284.860,46.977 290.040 C 45.857 292.321,46.272 301.523,47.610 304.061 C 50.959 310.419,56.674 313.944,63.630 313.944 C 65.420 313.944,66.981 313.790,67.098 313.600 C 67.215 313.411,68.166 313.017,69.213 312.724 C 72.503 311.803,77.808 307.440,78.365 305.197 C 78.504 304.639,78.991 303.675,79.448 303.054 C 80.699 301.354,80.699 291.873,79.448 290.173 C 78.991 289.552,78.485 288.514,78.324 287.866 C 78.163 287.219,77.686 286.447,77.263 286.151 C 76.840 285.854,76.494 285.424,76.494 285.194 C 76.494 284.246,72.270 281.469,68.965 280.244 C 64.744 278.680,62.219 278.645,57.864 280.090 M101.394 323.775 C 97.982 324.718,92.024 330.298,91.281 333.249 C 91.037 334.219,90.658 335.123,90.438 335.259 C 89.933 335.571,89.905 344.889,90.408 345.200 C 90.610 345.325,91.080 346.345,91.453 347.466 C 92.231 349.809,96.899 354.792,98.736 355.241 C 99.322 355.384,100.426 355.832,101.189 356.236 C 103.267 357.337,110.759 357.298,112.853 356.175 C 113.671 355.737,114.586 355.378,114.886 355.378 C 115.655 355.378,121.514 349.661,121.514 348.911 C 121.514 348.571,121.783 348.189,122.112 348.063 C 122.440 347.937,122.709 347.463,122.709 347.010 C 122.709 346.557,123.089 344.671,123.554 342.819 C 124.326 339.739,124.347 339.341,123.799 338.152 C 123.469 337.437,123.076 335.990,122.926 334.937 C 122.635 332.889,120.680 329.500,118.796 327.773 C 117.023 326.148,116.700 325.896,116.390 325.896 C 116.202 325.896,115.350 325.413,114.498 324.822 C 112.953 323.751,104.056 323.040,101.394 323.775 M286.127 323.772 C 285.618 323.880,284.562 324.401,283.780 324.932 C 282.999 325.462,282.208 325.896,282.025 325.896 C 281.466 325.896,277.291 330.327,277.291 330.920 C 277.291 331.225,276.887 331.877,276.394 332.370 C 275.535 333.229,275.498 333.547,275.498 340.040 L 275.498 346.813 277.278 349.349 C 278.257 350.744,279.686 352.357,280.452 352.935 C 281.219 353.512,282.166 354.298,282.557 354.681 C 282.947 355.065,283.537 355.378,283.866 355.378 C 284.195 355.378,285.134 355.737,285.952 356.175 C 288.053 357.302,295.543 357.337,297.615 356.231 C 298.379 355.823,299.451 355.349,299.996 355.178 C 301.200 354.799,306.773 349.187,306.773 348.354 C 306.773 348.027,307.244 346.764,307.819 345.548 C 309.073 342.898,309.103 335.739,307.866 334.367 C 307.518 333.981,307.101 333.127,306.940 332.470 C 306.779 331.813,306.272 330.836,305.813 330.300 C 304.079 328.271,301.011 325.498,300.500 325.498 C 300.207 325.498,299.422 325.095,298.756 324.602 C 297.553 323.712,289.061 323.154,286.127 323.772 M160.359 348.934 C 159.101 349.217,158.492 349.549,154.308 352.225 C 153.609 352.672,152.674 353.654,152.229 354.407 C 151.785 355.161,151.236 355.777,151.009 355.777 C 150.783 355.777,150.597 356.091,150.596 356.474 C 150.594 356.858,150.152 357.888,149.612 358.765 C 148.258 360.964,148.092 370.156,149.378 371.790 C 149.802 372.330,150.270 373.251,150.417 373.836 C 150.564 374.422,150.826 374.900,151.000 374.900 C 151.174 374.900,151.673 375.506,152.109 376.245 C 152.835 377.475,154.606 378.825,158.692 381.263 C 160.811 382.527,169.790 382.651,171.591 381.442 C 172.206 381.029,173.337 380.399,174.104 380.042 C 175.701 379.299,180.080 374.985,180.080 374.154 C 180.080 373.849,180.483 372.951,180.976 372.159 C 181.790 370.849,181.873 370.224,181.873 365.339 C 181.873 360.399,181.799 359.858,180.976 358.703 C 180.483 358.012,180.080 357.184,180.080 356.862 C 180.080 355.743,175.188 351.187,172.710 349.996 C 170.228 348.804,163.498 348.225,160.359 348.934 M228.709 348.874 C 227.955 348.979,226.900 349.410,226.364 349.832 C 225.829 350.253,225.130 350.598,224.811 350.598 C 223.893 350.598,218.758 355.956,218.263 357.430 C 218.017 358.164,217.527 359.098,217.175 359.504 C 216.067 360.781,216.257 369.874,217.430 371.760 C 217.923 372.553,218.327 373.476,218.327 373.811 C 218.327 374.593,223.672 379.952,224.814 380.315 C 225.291 380.466,226.156 380.940,226.735 381.369 C 230.112 383.866,240.474 381.989,244.739 378.108 C 249.616 373.670,251.930 363.663,249.177 358.917 C 248.874 358.395,248.369 357.430,248.055 356.773 C 247.233 355.056,242.591 350.598,241.626 350.598 C 241.361 350.598,240.657 350.215,240.062 349.747 C 238.953 348.875,232.335 348.366,228.709 348.874 " stroke="none" fill="#746c60" fill-rule="evenodd"></path><path id="path1" d="M159.755 26.234 C 158.991 26.638,157.881 27.088,157.287 27.233 C 155.698 27.622,150.983 32.499,149.599 35.185 C 147.994 38.303,147.785 46.990,149.257 49.402 C 149.725 50.169,150.227 51.189,150.372 51.668 C 150.653 52.599,154.572 56.972,155.124 56.972 C 155.306 56.972,155.931 57.310,156.512 57.724 C 157.094 58.137,158.376 58.706,159.363 58.986 C 160.349 59.267,161.326 59.646,161.534 59.828 C 162.915 61.037,170.816 59.646,174.465 57.552 C 183.475 52.382,185.274 38.376,177.888 30.901 C 175.491 28.474,173.719 27.092,173.005 27.092 C 172.715 27.092,171.775 26.733,170.916 26.295 C 168.731 25.180,161.815 25.142,159.755 26.234 M226.883 26.638 C 215.976 31.417,212.645 43.759,219.636 53.490 C 220.800 55.111,222.724 56.972,223.235 56.972 C 223.459 56.972,223.988 57.285,224.410 57.666 C 227.702 60.646,237.689 60.675,241.894 57.716 C 242.476 57.307,243.119 56.972,243.323 56.972 C 244.015 56.972,247.445 53.277,248.012 51.920 C 248.323 51.177,248.833 50.314,249.145 50.001 C 250.165 48.981,250.785 42.859,250.215 39.442 C 249.281 33.845,244.845 28.261,240.239 26.884 C 239.691 26.720,238.889 26.341,238.457 26.042 C 236.978 25.018,229.727 25.391,226.883 26.638 M102.789 51.184 C 101.803 51.477,100.548 51.854,100.000 52.021 C 96.609 53.055,92.386 57.527,90.464 62.121 C 89.305 64.891,89.351 72.395,90.538 74.207 C 90.921 74.792,91.235 75.501,91.236 75.783 C 91.236 76.064,91.684 76.816,92.232 77.452 C 92.779 78.089,93.227 78.823,93.227 79.084 C 93.227 79.827,98.284 83.352,100.547 84.186 C 105.168 85.889,109.380 85.977,112.405 84.434 C 113.234 84.011,114.090 83.665,114.307 83.665 C 115.567 83.665,119.734 79.995,121.347 77.464 C 121.758 76.821,122.210 76.205,122.353 76.096 C 124.643 74.338,124.445 62.341,122.083 59.730 C 121.770 59.384,121.514 58.899,121.514 58.652 C 121.514 58.123,117.756 54.336,116.093 53.188 C 112.864 50.959,106.680 50.028,102.789 51.184 M285.715 51.731 C 279.013 54.153,274.562 60.531,274.516 67.780 C 274.502 70.071,275.554 75.531,276.154 76.278 C 276.338 76.507,277.312 77.732,278.320 79.002 C 282.791 84.635,291.537 87.187,297.092 84.481 C 298.013 84.032,298.946 83.665,299.166 83.665 C 300.134 83.665,305.179 79.686,305.179 78.923 C 305.179 78.736,305.461 78.350,305.806 78.063 C 309.041 75.379,309.905 65.501,307.334 60.593 C 302.896 52.121,294.341 48.614,285.715 51.731 M191.633 84.448 C 190.647 84.628,189.124 85.056,188.247 85.398 C 187.371 85.741,186.241 86.029,185.738 86.038 C 184.694 86.058,177.428 89.561,175.842 90.808 C 175.265 91.262,174.652 91.633,174.481 91.633 C 173.242 91.633,164.239 100.959,162.626 103.913 C 159.176 110.231,158.172 112.824,156.731 119.124 C 155.973 122.436,155.785 133.487,156.471 134.369 C 156.681 134.639,157.065 136.183,157.323 137.798 C 157.581 139.414,158.056 141.112,158.378 141.572 C 158.701 142.032,158.964 142.717,158.964 143.095 C 158.964 144.076,162.642 151.072,163.862 152.413 C 164.126 152.703,164.791 153.597,165.339 154.399 C 167.151 157.054,171.481 161.151,174.162 162.749 C 174.529 162.968,175.636 163.713,176.621 164.404 C 177.606 165.094,178.831 165.788,179.345 165.945 C 179.859 166.101,180.548 166.460,180.876 166.741 C 181.205 167.023,182.390 167.522,183.510 167.852 C 184.630 168.181,185.885 168.642,186.299 168.877 C 192.085 172.155,212.459 170.601,218.320 166.434 C 218.860 166.051,219.516 165.737,219.779 165.737 C 220.268 165.737,225.043 162.700,226.516 161.451 C 229.031 159.321,229.864 158.523,231.673 156.516 C 234.405 153.485,237.426 149.272,237.443 148.469 C 237.447 148.285,237.809 147.678,238.247 147.121 C 238.685 146.564,239.044 145.817,239.044 145.461 C 239.044 145.105,239.466 144.009,239.983 143.025 C 240.499 142.040,241.037 140.357,241.179 139.283 C 241.320 138.210,241.620 137.109,241.845 136.838 C 243.161 135.252,243.033 120.953,241.670 117.331 C 241.341 116.454,241.063 115.306,241.053 114.779 C 241.044 114.253,240.601 112.902,240.069 111.779 C 239.538 110.655,238.982 109.255,238.835 108.669 C 238.688 108.082,238.316 107.394,238.009 107.139 C 237.702 106.884,237.450 106.514,237.450 106.317 C 237.450 104.434,229.953 95.783,225.416 92.433 C 224.256 91.576,223.120 90.731,222.892 90.557 C 222.663 90.382,221.498 89.771,220.302 89.199 C 219.106 88.627,217.170 87.686,215.999 87.108 C 214.828 86.529,213.535 86.056,213.125 86.056 C 212.715 86.056,211.432 85.673,210.274 85.205 C 207.957 84.268,195.403 83.759,191.633 84.448 " stroke="none" fill="#4fadad" fill-rule="evenodd"></path><path id="path2" d="M0.000 199.203 L 0.000 398.406 200.000 398.406 L 400.000 398.406 400.000 199.203 L 400.000 0.000 200.000 0.000 L 0.000 0.000 0.000 199.203 M171.514 25.688 C 172.610 26.227,173.702 26.674,173.942 26.681 C 174.182 26.688,174.703 27.052,175.100 27.490 C 175.496 27.928,176.046 28.287,176.321 28.287 C 176.596 28.287,177.298 28.870,177.881 29.582 C 178.463 30.294,179.239 31.235,179.604 31.673 C 182.025 34.576,183.405 38.567,183.395 42.629 C 183.388 45.279,182.274 50.113,181.463 51.008 C 181.141 51.364,180.876 51.826,180.876 52.034 C 180.876 52.379,179.544 54.049,177.783 55.911 C 173.970 59.944,165.520 62.129,160.757 60.314 C 159.880 59.980,158.566 59.555,157.835 59.370 C 157.104 59.185,156.208 58.762,155.843 58.431 C 155.478 58.099,154.126 56.874,152.838 55.707 C 145.806 49.336,145.502 37.486,152.186 30.284 C 154.215 28.098,156.741 26.295,157.776 26.295 C 158.157 26.295,158.683 26.037,158.945 25.721 C 160.089 24.342,168.732 24.320,171.514 25.688 M240.637 26.094 C 242.738 27.147,246.261 29.708,246.555 30.394 C 246.632 30.574,247.008 31.026,247.390 31.397 C 251.443 35.332,252.594 46.812,249.350 50.950 C 248.941 51.473,248.606 52.124,248.606 52.397 C 248.606 55.267,239.518 60.553,234.064 60.856 C 231.722 60.987,230.401 60.859,229.084 60.373 C 228.098 60.010,226.701 59.533,225.979 59.315 C 216.595 56.472,212.097 41.299,218.131 32.842 C 220.861 29.017,223.720 26.880,228.685 24.955 C 230.514 24.246,238.462 25.004,240.637 26.094 M112.382 50.696 C 112.913 51.028,113.807 51.406,114.369 51.535 C 114.931 51.665,115.810 52.135,116.322 52.579 C 116.834 53.023,117.418 53.386,117.620 53.386 C 118.082 53.386,121.905 57.442,121.909 57.937 C 121.911 58.139,122.166 58.587,122.477 58.933 C 125.603 62.417,125.725 73.102,122.680 76.693 C 122.308 77.131,121.893 77.857,121.758 78.305 C 121.316 79.770,115.764 84.436,114.441 84.455 C 114.166 84.459,113.272 84.821,112.455 85.259 C 110.111 86.515,103.317 86.406,100.598 85.069 C 99.502 84.530,98.418 84.083,98.189 84.076 C 96.793 84.035,92.551 79.618,90.737 76.318 L 89.243 73.600 89.275 67.975 C 89.311 61.889,89.313 61.880,92.602 56.710 C 93.490 55.314,98.638 51.394,99.584 51.394 C 99.934 51.394,100.585 51.139,101.030 50.828 C 102.662 49.685,110.620 49.592,112.382 50.696 M296.979 50.552 C 297.216 50.739,298.127 51.121,299.004 51.402 C 301.671 52.254,306.863 56.886,307.357 58.853 C 307.493 59.396,308.000 60.376,308.484 61.030 C 310.032 63.123,309.770 72.660,308.076 75.896 C 306.363 79.170,301.596 84.064,300.120 84.064 C 299.987 84.064,298.891 84.530,297.686 85.101 C 295.025 86.360,287.547 86.415,285.657 85.191 C 285.110 84.836,284.241 84.419,283.728 84.266 C 281.408 83.572,277.963 80.476,276.211 77.509 C 271.942 70.284,273.161 60.713,279.048 55.226 C 282.257 52.235,282.425 52.114,284.213 51.498 C 285.113 51.187,286.031 50.785,286.252 50.605 C 287.237 49.798,295.968 49.755,296.979 50.552 M210.033 84.282 C 210.979 84.628,212.560 85.150,213.546 85.441 C 215.855 86.121,219.777 87.892,220.087 88.394 C 220.220 88.608,220.845 88.897,221.477 89.036 C 222.109 89.175,222.942 89.637,223.327 90.062 C 223.713 90.488,224.190 90.837,224.388 90.837 C 225.489 90.837,233.998 98.938,234.475 100.439 C 234.607 100.855,234.880 101.195,235.081 101.195 C 235.283 101.195,235.710 101.823,236.030 102.590 C 236.351 103.357,236.782 103.984,236.988 103.984 C 237.195 103.984,237.653 104.656,238.006 105.478 C 238.360 106.300,238.803 107.241,238.992 107.570 C 240.093 109.491,241.434 112.754,241.434 113.512 C 241.434 113.997,241.778 115.234,242.198 116.261 C 243.907 120.438,243.888 134.540,242.169 138.579 C 241.765 139.528,241.434 140.660,241.434 141.094 C 241.434 142.365,238.485 148.596,236.371 151.787 C 234.113 155.198,227.417 162.233,225.697 163.000 C 225.259 163.196,223.914 164.071,222.709 164.944 C 221.504 165.818,220.249 166.537,219.920 166.542 C 219.592 166.547,218.875 166.902,218.327 167.331 C 217.779 167.759,217.059 168.114,216.727 168.119 C 216.395 168.124,215.461 168.483,214.650 168.917 C 213.840 169.352,212.408 169.816,211.469 169.949 C 210.529 170.081,208.865 170.488,207.769 170.852 C 204.870 171.815,193.817 171.788,191.122 170.811 C 190.073 170.431,188.722 170.120,188.118 170.120 C 187.515 170.120,186.338 169.771,185.503 169.346 C 184.669 168.920,183.421 168.450,182.730 168.300 C 182.039 168.151,180.998 167.692,180.417 167.281 C 179.835 166.870,179.136 166.534,178.864 166.534 C 178.592 166.534,177.391 165.862,176.195 165.040 C 174.999 164.218,173.714 163.367,173.340 163.147 C 171.029 161.795,167.292 158.058,163.309 153.115 C 162.371 151.952,159.065 145.983,158.775 144.931 C 158.637 144.432,158.199 143.217,157.801 142.231 C 154.365 133.722,154.464 120.407,158.026 111.902 C 158.542 110.670,158.964 109.410,158.964 109.103 C 158.964 108.795,159.275 108.101,159.655 107.559 C 160.035 107.017,160.626 106.036,160.969 105.378 C 162.048 103.310,162.728 102.248,163.382 101.612 C 163.731 101.273,164.791 100.010,165.740 98.805 C 167.764 96.232,170.865 93.263,173.108 91.752 C 173.984 91.161,175.060 90.375,175.498 90.006 C 175.936 89.637,176.743 89.200,177.291 89.036 C 177.839 88.872,178.376 88.605,178.486 88.443 C 178.817 87.953,183.767 85.771,185.259 85.457 C 186.026 85.295,187.155 84.906,187.769 84.593 C 190.503 83.195,206.463 82.972,210.033 84.282 M66.793 93.414 C 67.252 93.735,68.367 94.116,69.269 94.261 C 70.172 94.405,71.298 94.859,71.771 95.270 C 72.245 95.680,72.855 96.016,73.128 96.016 C 73.572 96.016,75.625 97.571,76.547 98.606 C 77.840 100.057,79.283 102.187,79.283 102.644 C 79.283 102.943,79.624 103.528,80.041 103.945 C 81.831 105.735,81.493 119.920,79.661 119.920 C 79.500 119.920,79.253 120.385,79.110 120.952 C 78.802 122.180,73.542 127.490,72.634 127.490 C 72.285 127.490,71.797 127.767,71.550 128.106 C 70.178 129.982,58.130 130.175,55.378 128.364 C 54.831 128.004,53.879 127.433,53.264 127.095 C 51.868 126.329,47.809 122.310,47.809 121.694 C 47.809 121.443,47.454 120.828,47.020 120.328 C 46.587 119.829,46.128 118.770,46.000 117.977 C 45.873 117.183,45.511 116.058,45.195 115.476 C 44.447 114.097,44.423 108.835,45.159 107.758 C 45.455 107.326,45.797 106.332,45.920 105.550 C 46.129 104.211,47.423 101.823,48.750 100.329 C 49.076 99.962,49.541 99.290,49.785 98.835 C 50.028 98.380,50.495 98.008,50.823 98.008 C 51.151 98.008,51.520 97.747,51.642 97.428 C 51.960 96.600,55.691 94.592,57.549 94.249 C 58.415 94.089,59.485 93.704,59.929 93.393 C 61.025 92.625,65.687 92.639,66.793 93.414 M340.239 94.142 C 345.655 95.669,352.191 101.591,352.191 104.971 C 352.191 105.327,352.473 106.161,352.816 106.826 C 354.203 109.508,353.188 118.027,351.208 120.319 C 350.924 120.647,350.580 121.286,350.442 121.738 C 350.094 122.885,346.044 126.639,344.425 127.316 C 343.686 127.624,342.986 128.033,342.868 128.224 C 341.798 129.954,330.833 129.820,327.257 128.032 C 317.234 123.024,313.925 109.172,320.711 100.634 C 322.964 97.800,327.501 94.438,329.125 94.400 C 329.650 94.387,330.707 94.133,331.474 93.835 C 333.200 93.163,337.274 93.306,340.239 94.142 M44.008 152.580 C 44.726 153.024,45.561 153.390,45.864 153.394 C 47.673 153.418,54.183 159.652,54.183 161.361 C 54.183 161.652,54.482 162.220,54.847 162.623 C 55.661 163.522,56.610 170.281,56.114 171.639 C 55.928 172.147,55.777 173.422,55.777 174.474 C 55.777 175.734,55.524 176.711,55.035 177.337 C 54.627 177.859,54.165 178.695,54.009 179.194 C 53.586 180.543,48.050 185.909,46.745 186.235 C 46.125 186.390,45.285 186.816,44.878 187.182 C 43.591 188.341,32.044 188.156,30.514 186.952 C 29.887 186.459,29.152 186.056,28.879 186.056 C 28.161 186.056,22.709 180.907,22.709 180.229 C 22.709 179.914,22.442 179.554,22.116 179.429 C 21.790 179.303,21.336 178.457,21.108 177.549 C 20.881 176.640,20.409 175.385,20.061 174.759 C 19.045 172.935,19.153 167.221,20.247 164.862 C 20.725 163.834,21.116 162.735,21.116 162.420 C 21.116 161.715,24.330 157.528,25.808 156.308 C 28.644 153.966,29.367 153.487,30.478 153.217 C 31.135 153.057,31.943 152.683,32.272 152.387 C 33.641 151.154,41.921 151.290,44.008 152.580 M365.653 152.541 C 366.466 152.953,367.699 153.412,368.393 153.561 C 369.087 153.711,369.754 154.092,369.875 154.407 C 369.996 154.722,370.333 154.980,370.624 154.980 C 371.878 154.980,376.545 160.532,377.324 162.948 C 377.500 163.496,377.916 164.661,378.247 165.538 C 379.023 167.592,379.021 172.259,378.242 174.303 C 377.908 175.179,377.478 176.519,377.286 177.280 C 377.093 178.041,376.684 178.849,376.375 179.075 C 376.066 179.300,375.697 179.843,375.554 180.280 C 375.265 181.171,372.240 184.462,371.712 184.462 C 371.525 184.462,371.124 184.710,370.822 185.012 C 368.161 187.673,356.148 189.191,353.895 187.151 C 353.471 186.768,352.945 186.454,352.726 186.454 C 352.109 186.454,348.515 183.980,347.518 182.869 C 345.725 180.870,344.223 178.762,344.223 178.244 C 344.223 177.953,343.847 176.991,343.386 176.108 C 342.633 174.664,342.566 173.993,342.710 169.423 C 342.870 164.380,342.945 164.058,344.694 160.956 C 346.353 158.015,348.538 155.668,350.297 154.940 C 350.900 154.690,351.394 154.342,351.394 154.167 C 351.394 153.991,351.977 153.723,352.689 153.569 C 353.401 153.416,354.612 152.961,355.378 152.559 C 357.387 151.506,363.587 151.495,365.653 152.541 M128.771 159.523 C 129.710 159.830,131.554 160.201,132.869 160.347 C 134.183 160.494,135.886 160.931,136.653 161.319 C 137.420 161.707,138.586 162.156,139.243 162.318 C 139.900 162.480,140.707 162.844,141.036 163.128 C 141.365 163.412,142.291 163.855,143.096 164.113 C 143.900 164.371,144.773 164.842,145.037 165.160 C 145.300 165.477,145.753 165.737,146.042 165.737 C 146.332 165.737,146.803 166.070,147.089 166.477 C 147.375 166.884,147.968 167.331,148.406 167.472 C 148.845 167.612,150.092 168.534,151.179 169.521 C 152.265 170.507,153.284 171.315,153.443 171.315 C 153.601 171.315,153.845 171.673,153.984 172.112 C 154.123 172.550,154.498 172.908,154.816 172.908 C 155.135 172.908,155.600 173.357,155.849 173.904 C 156.099 174.452,156.436 174.900,156.598 174.900 C 156.761 174.900,157.260 175.483,157.709 176.195 C 158.157 176.907,159.158 178.386,159.933 179.482 C 160.708 180.578,161.345 181.676,161.348 181.923 C 161.352 182.170,161.622 182.595,161.949 182.866 C 162.276 183.138,162.739 184.083,162.977 184.967 C 163.215 185.851,163.664 186.829,163.976 187.140 C 164.287 187.452,164.542 188.193,164.542 188.789 C 164.542 189.384,164.916 190.582,165.372 191.450 C 167.151 194.829,167.139 212.666,165.356 216.120 C 164.908 216.988,164.542 218.185,164.542 218.781 C 164.542 219.376,164.300 220.105,164.004 220.401 C 163.709 220.696,163.251 221.591,162.988 222.389 C 162.725 223.188,162.249 224.056,161.932 224.320 C 161.614 224.583,161.355 225.135,161.355 225.547 C 161.355 225.958,161.010 226.640,160.588 227.061 C 160.166 227.483,159.601 228.245,159.332 228.755 C 157.751 231.748,149.330 240.239,147.942 240.239 C 147.671 240.239,147.307 240.481,147.131 240.777 C 146.810 241.319,145.588 242.056,143.028 243.252 C 142.261 243.611,141.365 244.131,141.036 244.409 C 140.707 244.687,139.636 245.036,138.656 245.185 C 137.675 245.334,136.569 245.732,136.197 246.068 C 135.825 246.405,134.297 246.838,132.800 247.031 C 131.304 247.224,129.040 247.658,127.769 247.994 C 124.838 248.770,119.066 248.802,117.610 248.050 C 117.018 247.744,115.279 247.369,113.745 247.216 C 112.211 247.063,110.239 246.604,109.363 246.197 C 108.486 245.790,107.015 245.289,106.094 245.085 C 105.172 244.881,104.129 244.424,103.774 244.070 C 103.420 243.716,102.849 243.426,102.506 243.426 C 101.985 243.426,99.503 241.863,94.283 238.247 C 91.020 235.987,85.661 229.384,83.693 225.199 C 83.255 224.268,82.719 223.506,82.502 223.506 C 82.285 223.506,81.982 222.837,81.829 222.020 C 81.676 221.203,81.220 219.993,80.816 219.331 C 80.413 218.669,80.082 217.623,80.081 217.006 C 80.080 216.389,79.676 214.955,79.183 213.819 C 77.943 210.961,77.811 196.343,79.004 194.024 C 79.399 193.257,79.826 191.823,79.952 190.837 C 80.079 189.851,80.499 188.506,80.885 187.849 C 81.271 187.191,81.710 186.072,81.861 185.361 C 82.011 184.650,82.364 183.933,82.644 183.767 C 82.925 183.602,83.373 182.794,83.640 181.972 C 83.907 181.150,84.300 180.478,84.514 180.478 C 84.727 180.478,85.090 179.940,85.319 179.283 C 85.548 178.625,85.892 178.088,86.085 178.088 C 86.277 178.088,86.720 177.534,87.069 176.858 C 87.895 175.262,94.667 168.503,96.215 167.730 C 96.873 167.401,97.546 166.923,97.711 166.666 C 98.041 166.155,102.795 163.745,103.475 163.745 C 103.708 163.745,103.998 163.486,104.120 163.169 C 104.241 162.853,105.022 162.472,105.856 162.324 C 106.689 162.176,107.908 161.736,108.566 161.348 C 109.223 160.959,110.874 160.516,112.235 160.363 C 113.595 160.210,115.478 159.845,116.418 159.551 C 118.752 158.823,126.576 158.805,128.771 159.523 M281.800 159.733 C 282.336 159.937,284.174 160.299,285.885 160.536 C 287.596 160.774,289.275 161.216,289.617 161.517 C 289.959 161.818,290.991 162.188,291.909 162.338 C 292.828 162.489,293.791 162.867,294.050 163.179 C 294.308 163.490,294.683 163.745,294.882 163.745 C 295.401 163.745,297.634 164.818,298.819 165.637 C 299.374 166.021,300.428 166.693,301.159 167.131 C 304.667 169.232,312.749 177.660,312.749 179.217 C 312.749 179.419,313.009 179.800,313.327 180.063 C 314.132 180.731,316.152 184.416,316.504 185.857 C 316.664 186.514,317.031 187.321,317.320 187.649 C 317.609 187.978,318.060 189.295,318.321 190.576 C 318.583 191.856,319.050 193.509,319.359 194.248 C 320.141 196.120,320.163 211.397,319.386 213.260 C 319.091 213.965,318.618 215.528,318.334 216.733 C 318.050 217.938,317.498 219.552,317.108 220.319 C 316.718 221.086,315.819 222.923,315.112 224.402 C 314.404 225.881,313.690 227.092,313.525 227.092 C 313.360 227.092,313.038 227.629,312.809 228.287 C 312.580 228.944,312.216 229.482,312.000 229.482 C 311.784 229.482,311.493 229.844,311.352 230.286 C 311.014 231.352,303.409 238.909,301.876 239.701 C 301.214 240.044,300.476 240.489,300.237 240.690 C 299.048 241.690,296.093 243.395,295.136 243.634 C 294.542 243.782,293.848 244.154,293.593 244.461 C 293.338 244.769,292.760 245.020,292.308 245.020 C 291.856 245.020,290.758 245.372,289.867 245.803 C 284.171 248.555,267.654 248.552,261.926 245.799 C 261.035 245.370,260.044 245.020,259.724 245.020 C 259.404 245.020,258.788 244.783,258.356 244.493 C 257.923 244.204,256.942 243.717,256.175 243.412 C 254.940 242.921,254.170 242.470,251.254 240.531 C 248.255 238.535,244.740 235.370,242.032 232.227 C 239.185 228.922,235.458 222.895,235.458 221.596 C 235.458 221.172,235.128 220.397,234.725 219.874 C 234.321 219.352,233.794 218.028,233.553 216.932 C 233.311 215.837,232.834 213.960,232.493 212.762 C 231.788 210.287,231.635 198.192,232.274 195.418 C 233.231 191.262,234.290 187.963,234.846 187.408 C 235.183 187.071,235.458 186.462,235.458 186.053 C 235.458 182.480,245.828 169.579,250.338 167.541 C 250.809 167.328,251.290 167.022,251.406 166.862 C 251.772 166.358,255.160 164.158,255.584 164.151 C 255.806 164.147,256.613 163.809,257.376 163.400 C 258.140 162.991,259.392 162.519,260.159 162.351 C 260.926 162.183,262.179 161.710,262.942 161.301 C 263.706 160.892,264.961 160.541,265.731 160.520 C 266.501 160.498,268.028 160.251,269.124 159.969 C 271.472 159.366,280.396 159.199,281.800 159.733 M43.132 220.319 C 43.950 220.757,44.978 221.116,45.417 221.116 C 45.856 221.116,46.556 221.456,46.973 221.873 C 47.389 222.290,48.090 222.745,48.530 222.884 C 49.704 223.257,53.732 227.728,54.032 228.993 C 54.174 229.590,54.565 230.396,54.901 230.782 C 55.611 231.599,56.519 238.072,56.122 239.489 C 55.976 240.011,55.834 241.335,55.808 242.430 C 55.776 243.744,55.494 244.762,54.980 245.418 C 54.552 245.966,54.197 246.623,54.192 246.879 C 54.171 247.963,48.020 254.183,46.969 254.183 C 46.613 254.183,45.810 254.587,45.183 255.080 C 44.120 255.916,43.655 255.976,38.257 255.976 C 32.971 255.976,32.339 255.899,30.953 255.080 C 30.119 254.587,29.251 254.183,29.024 254.183 C 27.371 254.183,21.116 247.213,21.116 245.371 C 21.116 245.062,20.784 244.184,20.379 243.420 C 18.948 240.723,19.035 235.254,20.555 232.340 C 20.861 231.754,21.112 230.985,21.113 230.631 C 21.114 230.278,21.474 229.532,21.912 228.975 C 22.351 228.418,22.709 227.798,22.709 227.599 C 22.709 227.399,23.113 226.857,23.606 226.394 C 24.099 225.932,24.710 225.317,24.963 225.028 C 25.217 224.739,25.887 224.143,26.454 223.705 C 27.020 223.267,27.876 222.590,28.357 222.200 C 28.837 221.811,29.691 221.386,30.253 221.256 C 30.815 221.127,31.641 220.793,32.088 220.516 C 34.132 219.247,40.907 219.126,43.132 220.319 M365.363 220.464 C 366.116 220.796,367.193 221.163,367.755 221.280 C 368.317 221.397,369.196 221.856,369.709 222.300 C 370.221 222.744,370.758 223.108,370.901 223.108 C 371.426 223.108,375.230 227.044,375.487 227.853 C 375.632 228.311,375.896 228.685,376.074 228.685 C 376.252 228.685,376.612 229.268,376.873 229.980 C 377.135 230.692,377.650 231.888,378.017 232.638 C 378.958 234.559,378.953 241.157,378.009 243.059 C 377.637 243.809,377.238 244.882,377.123 245.444 C 377.008 246.007,376.551 246.886,376.106 247.398 C 375.662 247.910,375.300 248.526,375.302 248.766 C 375.306 249.367,371.215 253.108,369.842 253.759 C 369.228 254.050,368.073 254.623,367.276 255.032 C 365.141 256.130,355.153 256.136,353.739 255.041 C 353.216 254.636,352.303 254.186,351.709 254.041 C 350.302 253.698,344.704 248.094,344.372 246.698 C 344.231 246.104,343.826 245.285,343.472 244.879 C 342.230 243.454,342.310 234.019,343.587 231.320 C 344.156 230.117,344.622 229.002,344.622 228.843 C 344.622 228.683,344.881 228.269,345.197 227.922 C 345.514 227.575,346.490 226.475,347.366 225.478 C 348.242 224.480,349.462 223.405,350.077 223.087 C 350.692 222.770,351.432 222.286,351.721 222.013 C 352.010 221.739,352.727 221.416,353.315 221.295 C 353.902 221.173,354.920 220.823,355.578 220.516 C 357.981 219.394,362.870 219.368,365.363 220.464 M200.878 236.219 C 201.381 236.418,203.855 236.800,206.375 237.067 C 208.894 237.334,211.673 237.868,212.550 238.253 C 213.426 238.638,214.771 239.087,215.538 239.250 C 216.305 239.413,217.360 239.881,217.882 240.291 C 218.405 240.701,219.085 241.036,219.393 241.036 C 219.701 241.036,220.438 241.366,221.032 241.770 C 221.626 242.174,222.918 243.025,223.904 243.661 C 228.633 246.709,235.170 253.268,236.280 256.076 C 236.474 256.569,236.798 256.972,236.999 256.972 C 237.199 256.972,237.653 257.644,238.006 258.466 C 238.360 259.288,238.810 260.229,239.006 260.558 C 240.152 262.480,241.434 265.544,241.434 266.359 C 241.434 266.880,241.786 267.984,242.215 268.812 C 243.934 272.127,244.068 289.749,242.393 292.333 C 242.073 292.827,241.635 294.160,241.420 295.293 C 241.205 296.427,240.783 297.636,240.482 297.980 C 240.181 298.324,239.803 299.054,239.641 299.602 C 239.480 300.149,239.121 300.867,238.845 301.195 C 238.568 301.524,238.205 302.241,238.039 302.789 C 237.873 303.337,237.394 304.233,236.976 304.781 C 232.476 310.673,229.958 313.426,227.031 315.651 C 226.516 316.042,225.399 316.894,224.547 317.544 C 223.695 318.193,222.836 318.725,222.638 318.725 C 222.440 318.725,221.893 319.084,221.422 319.522 C 220.952 319.960,220.174 320.319,219.695 320.319 C 219.215 320.319,218.600 320.587,218.328 320.915 C 218.056 321.242,217.093 321.722,216.188 321.980 C 215.283 322.239,214.316 322.622,214.039 322.831 C 213.415 323.305,207.573 324.599,203.586 325.146 C 200.075 325.628,193.396 325.290,191.540 324.536 C 190.824 324.245,189.282 323.886,188.111 323.738 C 186.941 323.590,185.330 323.119,184.532 322.691 C 183.733 322.263,182.787 321.912,182.430 321.912 C 182.073 321.912,181.325 321.554,180.768 321.116 C 180.211 320.677,179.425 320.318,179.021 320.318 C 178.617 320.318,177.301 319.603,176.096 318.729 C 174.890 317.856,173.546 316.980,173.108 316.783 C 172.076 316.321,164.973 309.313,163.976 307.775 C 163.555 307.126,163.060 306.410,162.875 306.186 C 162.013 305.138,160.609 302.779,160.344 301.934 C 160.182 301.418,159.716 300.568,159.308 300.046 C 158.900 299.523,158.566 298.712,158.566 298.242 C 158.566 297.773,158.252 296.945,157.869 296.403 C 157.485 295.862,156.960 294.432,156.701 293.227 C 156.442 292.022,155.938 290.050,155.579 288.845 C 154.647 285.709,154.884 273.375,155.916 271.315 C 156.300 270.548,156.718 269.114,156.845 268.127 C 156.971 267.141,157.387 265.797,157.769 265.139 C 158.151 264.482,158.587 263.421,158.738 262.780 C 158.890 262.140,159.361 261.175,159.786 260.635 C 160.210 260.095,160.561 259.454,160.565 259.209 C 160.572 258.766,162.733 255.393,163.267 254.992 C 163.421 254.876,164.051 254.039,164.665 253.133 C 165.951 251.237,172.851 244.622,173.543 244.622 C 173.672 244.622,174.255 244.253,174.837 243.803 C 176.552 242.479,178.889 241.036,179.319 241.036 C 179.538 241.036,180.560 240.588,181.589 240.040 C 182.618 239.492,183.730 239.043,184.061 239.041 C 184.391 239.040,185.199 238.751,185.857 238.400 C 186.990 237.793,189.224 237.397,195.299 236.723 C 196.767 236.560,198.097 236.299,198.254 236.142 C 198.645 235.751,199.779 235.784,200.878 236.219 M69.521 279.282 C 70.231 279.721,71.123 280.080,71.503 280.080 C 72.526 280.080,77.291 283.896,77.291 284.715 C 77.291 284.999,77.635 285.415,78.055 285.640 C 78.476 285.865,78.938 286.588,79.083 287.248 C 79.228 287.907,79.489 288.446,79.665 288.446 C 79.840 288.446,80.229 289.029,80.529 289.741 C 81.719 292.560,81.055 304.781,79.713 304.781 C 79.564 304.781,79.222 305.391,78.952 306.137 C 78.683 306.883,78.198 307.595,77.876 307.718 C 77.554 307.842,77.291 308.206,77.291 308.526 C 77.291 308.847,76.932 309.223,76.494 309.363 C 76.056 309.502,75.697 309.759,75.697 309.934 C 75.697 310.521,71.991 313.147,71.150 313.156 C 70.693 313.161,69.871 313.516,69.323 313.944 C 67.826 315.115,58.939 315.115,57.171 313.944 C 56.514 313.509,55.717 313.151,55.400 313.150 C 54.046 313.144,47.809 307.719,47.809 306.548 C 47.809 306.302,47.469 305.792,47.054 305.416 C 46.638 305.040,46.173 303.898,46.020 302.879 C 45.867 301.859,45.490 300.664,45.182 300.224 C 44.442 299.167,44.441 294.180,45.181 292.762 C 45.486 292.177,45.857 290.983,46.004 290.108 C 46.152 289.233,46.619 288.205,47.041 287.822 C 47.463 287.440,47.809 286.888,47.809 286.595 C 47.809 286.302,48.167 285.839,48.606 285.565 C 49.044 285.291,49.406 284.886,49.411 284.665 C 49.416 284.444,50.056 283.725,50.833 283.068 C 51.610 282.410,52.691 281.469,53.235 280.976 C 53.779 280.483,54.534 280.080,54.912 280.080 C 55.290 280.080,56.043 279.769,56.585 279.390 C 58.736 277.883,67.144 277.813,69.521 279.282 M341.140 279.283 C 341.958 279.721,342.896 280.080,343.226 280.080 C 343.555 280.080,344.183 280.438,344.622 280.876 C 345.060 281.315,345.588 281.673,345.795 281.673 C 346.320 281.673,350.094 285.562,350.785 286.815 C 354.110 292.843,354.214 300.609,351.038 305.718 C 349.328 308.469,344.812 312.589,343.028 313.026 C 342.480 313.160,341.407 313.601,340.643 314.005 C 335.573 316.692,324.860 313.371,320.914 307.890 C 317.215 302.752,315.847 292.419,318.449 289.275 C 318.735 288.929,319.173 288.166,319.422 287.581 C 320.424 285.224,325.860 280.080,327.347 280.080 C 327.646 280.080,328.560 279.721,329.378 279.283 C 330.607 278.624,331.626 278.486,335.259 278.486 C 338.892 278.486,339.911 278.624,341.140 279.283 M110.589 322.079 C 111.032 322.389,112.088 322.773,112.935 322.932 C 115.225 323.362,119.187 326.030,120.742 328.189 C 121.276 328.931,122.090 330.018,122.551 330.605 C 123.011 331.193,123.493 332.122,123.621 332.669 C 123.749 333.217,124.218 334.651,124.663 335.857 C 125.622 338.455,125.702 341.799,124.859 344.024 C 124.526 344.900,124.074 346.213,123.854 346.940 C 122.952 349.917,118.945 354.628,116.135 356.013 C 115.478 356.337,114.430 356.883,113.807 357.225 C 112.273 358.069,105.671 358.404,102.266 357.811 C 99.779 357.378,98.089 356.559,95.618 354.589 C 95.070 354.153,94.487 353.793,94.323 353.790 C 94.158 353.787,94.024 353.516,94.024 353.187 C 94.024 352.859,93.755 352.590,93.426 352.590 C 93.098 352.590,92.829 352.420,92.829 352.212 C 92.829 352.004,92.376 351.346,91.823 350.749 C 91.270 350.152,90.708 349.202,90.574 348.637 C 90.441 348.072,90.042 347.277,89.688 346.871 C 88.755 345.800,88.735 334.316,89.664 333.209 C 90.005 332.803,90.488 331.991,90.737 331.406 C 91.609 329.354,95.069 325.522,96.645 324.863 C 97.320 324.580,98.104 324.070,98.387 323.728 C 98.671 323.387,99.373 323.101,99.949 323.094 C 100.525 323.087,101.713 322.734,102.590 322.311 C 104.561 321.359,109.362 321.219,110.589 322.079 M295.817 322.311 C 296.693 322.734,297.790 323.087,298.253 323.094 C 298.717 323.101,299.523 323.441,300.046 323.850 C 300.568 324.258,301.382 324.712,301.853 324.860 C 303.128 325.259,306.539 328.777,307.356 330.535 C 307.749 331.380,308.322 332.361,308.629 332.715 C 311.095 335.549,309.158 350.996,306.336 350.996 C 306.138 350.996,305.976 351.199,305.976 351.447 C 305.976 351.843,304.830 353.013,302.526 354.969 C 301.837 355.555,300.293 356.472,298.406 357.415 C 296.753 358.242,286.160 358.142,284.661 357.285 C 284.004 356.910,282.928 356.343,282.271 356.026 C 279.616 354.745,275.091 349.322,274.624 346.863 C 274.495 346.178,274.145 345.133,273.847 344.542 C 273.084 343.023,273.116 336.660,273.892 335.634 C 274.213 335.209,274.482 334.541,274.489 334.151 C 274.496 333.760,274.776 332.864,275.110 332.159 C 277.099 327.967,282.086 323.505,285.438 322.919 C 286.303 322.767,287.374 322.389,287.817 322.079 C 289.044 321.219,293.845 321.359,295.817 322.311 M169.406 347.639 C 170.292 347.951,171.414 348.207,171.901 348.207 C 172.387 348.207,173.109 348.566,173.506 349.004 C 173.903 349.442,174.551 349.801,174.946 349.801 C 175.815 349.801,180.876 354.787,180.876 355.643 C 180.876 355.976,181.230 356.699,181.663 357.248 C 182.095 357.798,182.554 358.902,182.683 359.702 C 182.811 360.501,183.175 361.631,183.490 362.213 C 184.216 363.551,184.235 367.304,183.521 368.338 C 183.223 368.770,182.856 369.954,182.707 370.970 C 182.553 372.016,182.097 373.123,181.656 373.522 C 181.227 373.910,180.876 374.555,180.876 374.956 C 180.876 375.958,176.740 380.282,175.177 380.914 C 174.477 381.197,173.794 381.590,173.659 381.787 C 173.185 382.479,167.901 383.797,165.538 383.812 C 159.123 383.854,152.285 380.003,149.714 374.900 C 149.438 374.353,148.987 373.668,148.710 373.379 C 147.287 371.888,147.045 359.973,148.397 357.950 C 148.829 357.303,149.457 356.315,149.791 355.756 C 151.824 352.355,152.618 351.567,155.757 349.839 C 156.316 349.531,156.872 349.130,156.993 348.947 C 158.061 347.333,166.129 346.483,169.406 347.639 M236.928 347.532 C 238.942 348.030,240.928 348.745,241.342 349.120 C 241.756 349.494,242.397 349.801,242.767 349.801 C 243.612 349.801,248.498 354.408,248.850 355.536 C 248.994 355.997,249.283 356.485,249.492 356.620 C 250.958 357.562,252.224 366.432,251.270 369.071 C 250.943 369.976,250.577 371.278,250.457 371.963 C 250.042 374.334,244.929 380.490,242.852 381.120 C 242.401 381.257,241.763 381.591,241.434 381.862 C 240.685 382.480,236.243 383.700,233.865 383.941 C 232.075 384.122,225.191 382.447,224.718 381.716 C 224.599 381.532,224.127 381.265,223.669 381.123 C 222.465 380.747,217.984 375.976,217.481 374.533 C 217.246 373.859,216.906 373.307,216.725 373.307 C 214.863 373.307,214.886 359.500,216.752 357.349 C 217.180 356.856,217.530 356.237,217.530 355.975 C 217.530 355.250,222.852 349.801,223.560 349.801 C 223.901 349.801,224.504 349.442,224.900 349.004 C 225.297 348.566,226.087 348.195,226.655 348.180 C 227.224 348.166,228.855 347.826,230.279 347.425 C 231.703 347.024,232.958 346.680,233.068 346.660 C 233.177 346.641,234.914 347.033,236.928 347.532 " stroke="none" fill="#fbfbfb" fill-rule="evenodd"></path><path id="path3" d="M330.876 94.999 C 326.979 95.811,319.920 101.268,319.920 103.468 C 319.920 103.738,319.517 104.727,319.025 105.665 C 317.720 108.151,317.722 114.890,319.029 117.556 C 319.519 118.557,319.920 119.572,319.920 119.813 C 319.920 120.811,325.670 126.693,326.646 126.693 C 326.949 126.693,327.845 127.097,328.638 127.590 C 334.151 131.018,348.256 126.410,350.025 120.603 C 350.173 120.118,350.516 119.452,350.788 119.124 C 352.081 117.560,352.758 109.511,351.807 107.008 C 351.580 106.412,351.394 105.488,351.394 104.954 C 351.394 104.421,351.224 103.984,351.015 103.984 C 350.806 103.984,350.326 103.334,349.949 102.539 C 349.048 100.639,345.867 97.488,344.174 96.816 C 343.434 96.523,342.558 96.054,342.226 95.775 C 340.800 94.573,334.867 94.167,330.876 94.999 M355.203 153.641 C 353.682 154.159,352.337 154.737,352.215 154.927 C 352.092 155.116,351.633 155.386,351.195 155.526 C 346.675 156.969,341.946 167.272,343.339 172.640 C 344.098 175.562,345.221 178.309,346.130 179.464 C 346.615 180.081,347.012 180.733,347.012 180.912 C 347.012 181.422,348.919 183.203,350.145 183.836 C 350.755 184.152,351.486 184.690,351.771 185.033 C 352.056 185.377,352.581 185.663,352.937 185.671 C 353.294 185.678,354.303 186.031,355.179 186.454 C 357.432 187.542,363.285 187.542,365.538 186.454 C 366.414 186.031,367.462 185.678,367.865 185.671 C 369.138 185.647,373.842 181.741,374.779 179.930 C 375.122 179.267,375.623 178.503,375.893 178.233 C 376.163 177.964,376.503 176.995,376.649 176.081 C 376.796 175.166,377.179 173.908,377.501 173.285 C 378.523 171.310,377.706 165.288,376.045 162.550 C 375.845 162.221,375.442 161.439,375.149 160.811 C 374.510 159.445,370.990 155.777,370.318 155.777 C 370.057 155.777,369.424 155.413,368.912 154.969 C 368.400 154.525,367.521 154.064,366.958 153.946 C 366.396 153.827,365.213 153.473,364.329 153.160 C 362.054 152.353,358.429 152.544,355.203 153.641 M268.602 160.972 C 267.000 161.140,264.815 161.653,263.747 162.113 C 262.679 162.572,261.369 162.948,260.836 162.948 C 260.304 162.948,259.413 163.307,258.855 163.745 C 258.298 164.183,257.643 164.542,257.400 164.542 C 255.773 164.542,246.415 171.157,244.290 173.809 C 243.706 174.539,242.824 175.565,242.331 176.089 C 241.838 176.614,241.434 177.164,241.434 177.311 C 241.434 177.459,240.899 178.277,240.244 179.128 C 239.589 179.980,238.917 180.858,238.750 181.079 C 238.129 181.901,235.856 186.671,235.856 187.153 C 235.857 187.428,235.498 188.321,235.060 189.139 C 234.622 189.957,234.263 190.999,234.263 191.455 C 234.263 191.912,233.909 193.617,233.476 195.246 C 232.499 198.920,232.360 207.789,233.227 211.171 C 233.534 212.368,234.002 214.415,234.268 215.721 C 234.535 217.027,234.983 218.461,235.265 218.908 C 235.548 219.355,235.897 220.291,236.042 220.988 C 236.187 221.685,236.564 222.469,236.878 222.730 C 237.193 222.992,237.450 223.429,237.450 223.702 C 237.450 226.041,246.754 236.505,251.594 239.610 C 252.908 240.453,254.459 241.470,255.040 241.869 C 255.620 242.268,256.606 242.719,257.231 242.872 C 257.856 243.024,258.794 243.481,259.317 243.885 C 259.839 244.290,260.668 244.622,261.158 244.622 C 261.649 244.622,262.838 244.970,263.802 245.396 C 268.225 247.353,283.562 247.350,287.999 245.391 C 288.958 244.968,290.144 244.622,290.634 244.622 C 291.125 244.622,291.954 244.286,292.476 243.877 C 292.999 243.467,293.997 243.007,294.694 242.855 C 295.391 242.703,296.167 242.330,296.419 242.027 C 296.670 241.723,297.490 241.273,298.239 241.025 C 298.988 240.778,299.602 240.406,299.602 240.198 C 299.602 239.991,300.005 239.667,300.498 239.479 C 302.528 238.705,310.461 230.508,312.550 227.025 C 313.995 224.616,315.556 221.682,315.774 220.965 C 315.915 220.500,316.352 219.402,316.744 218.526 C 317.137 217.649,317.582 216.215,317.734 215.339 C 317.886 214.462,318.296 212.759,318.646 211.554 C 319.531 208.506,319.527 199.045,318.640 196.016 C 318.288 194.811,317.873 193.018,317.720 192.032 C 317.567 191.046,317.013 189.325,316.490 188.209 C 315.966 187.092,315.538 185.892,315.538 185.543 C 315.538 185.193,315.351 184.792,315.123 184.651 C 314.894 184.510,314.427 183.692,314.083 182.835 C 313.740 181.977,313.312 181.275,313.131 181.275 C 312.950 181.275,312.681 180.872,312.533 180.378 C 312.385 179.885,311.921 179.124,311.503 178.685 C 311.085 178.247,309.764 176.669,308.569 175.178 C 306.550 172.662,303.392 169.770,300.636 167.911 C 298.312 166.345,296.591 165.311,295.618 164.898 C 295.070 164.666,293.994 164.157,293.227 163.767 C 292.460 163.378,291.178 162.940,290.379 162.794 C 289.579 162.648,288.398 162.266,287.755 161.945 C 285.388 160.764,275.410 160.257,268.602 160.972 M355.622 221.556 C 354.113 221.958,352.575 222.561,352.204 222.896 C 351.834 223.232,351.365 223.506,351.163 223.506 C 350.960 223.506,349.898 224.381,348.804 225.450 C 337.207 236.774,344.615 255.194,360.757 255.174 C 364.604 255.169,365.310 255.059,366.534 254.279 C 367.301 253.790,368.171 253.389,368.469 253.388 C 370.458 253.382,376.151 246.887,376.602 244.109 C 376.736 243.282,377.126 242.045,377.467 241.361 C 378.608 239.073,377.232 230.921,375.455 229.447 C 375.150 229.193,374.900 228.751,374.900 228.463 C 374.900 227.880,370.536 223.506,369.954 223.506 C 369.751 223.506,369.279 223.229,368.904 222.890 C 366.899 221.075,360.022 220.384,355.622 221.556 M333.068 279.301 C 330.687 279.712,327.267 280.993,326.362 281.812 C 325.962 282.174,325.451 282.470,325.227 282.470 C 324.056 282.470,321.077 286.164,319.430 289.659 C 317.083 294.638,318.118 304.119,321.296 306.757 C 321.635 307.039,321.912 307.482,321.912 307.743 C 321.912 308.200,323.006 309.126,325.843 311.072 C 331.140 314.704,338.836 314.689,344.821 311.036 C 351.392 307.025,354.754 293.838,350.562 288.510 C 350.143 287.978,349.801 287.336,349.801 287.084 C 349.801 286.486,345.732 282.470,345.127 282.470 C 344.871 282.470,344.518 282.215,344.343 281.904 C 343.988 281.274,341.568 280.302,338.247 279.455 C 335.864 278.848,335.714 278.843,333.068 279.301 " stroke="none" fill="#e4cc2f" fill-rule="evenodd"></path><path id="path4" d="M160.487 24.984 C 159.901 25.073,159.207 25.405,158.945 25.721 C 158.683 26.037,158.157 26.295,157.776 26.295 C 156.741 26.295,154.215 28.098,152.186 30.284 C 145.502 37.486,145.806 49.336,152.838 55.707 C 154.126 56.874,155.478 58.099,155.843 58.431 C 156.208 58.762,157.104 59.185,157.835 59.370 C 158.566 59.555,159.880 59.980,160.757 60.314 C 165.520 62.129,173.970 59.944,177.783 55.911 C 179.544 54.049,180.876 52.379,180.876 52.034 C 180.876 51.826,181.141 51.364,181.463 51.008 C 182.274 50.113,183.388 45.279,183.395 42.629 C 183.405 38.567,182.025 34.576,179.604 31.673 C 179.239 31.235,178.463 30.294,177.881 29.582 C 177.298 28.870,176.596 28.287,176.321 28.287 C 176.046 28.287,175.496 27.928,175.100 27.490 C 174.703 27.052,174.182 26.688,173.942 26.681 C 173.702 26.674,172.610 26.227,171.514 25.688 C 169.559 24.727,164.345 24.394,160.487 24.984 M228.685 24.955 C 223.720 26.880,220.861 29.017,218.131 32.842 C 212.097 41.299,216.595 56.472,225.979 59.315 C 226.701 59.533,228.098 60.010,229.084 60.373 C 234.029 62.196,241.672 59.914,246.294 55.234 C 247.566 53.947,248.606 52.670,248.606 52.397 C 248.606 52.124,248.941 51.473,249.350 50.950 C 252.594 46.812,251.443 35.332,247.390 31.397 C 247.008 31.026,246.632 30.574,246.555 30.394 C 246.261 29.708,242.738 27.147,240.637 26.094 C 238.462 25.004,230.514 24.246,228.685 24.955 M170.916 26.295 C 171.775 26.733,172.715 27.092,173.005 27.092 C 173.719 27.092,175.491 28.474,177.888 30.901 C 185.274 38.376,183.475 52.382,174.465 57.552 C 170.816 59.646,162.915 61.037,161.534 59.828 C 161.326 59.646,160.349 59.267,159.363 58.986 C 158.376 58.706,157.094 58.137,156.512 57.724 C 155.931 57.310,155.306 56.972,155.124 56.972 C 154.572 56.972,150.653 52.599,150.372 51.668 C 150.227 51.189,149.725 50.169,149.257 49.402 C 147.785 46.990,147.994 38.303,149.599 35.185 C 150.983 32.499,155.698 27.622,157.287 27.233 C 157.881 27.088,158.991 26.638,159.755 26.234 C 161.815 25.142,168.731 25.180,170.916 26.295 M238.457 26.042 C 238.889 26.341,239.691 26.720,240.239 26.884 C 244.845 28.261,249.281 33.845,250.215 39.442 C 250.785 42.859,250.165 48.981,249.145 50.001 C 248.833 50.314,248.323 51.177,248.012 51.920 C 247.445 53.277,244.015 56.972,243.323 56.972 C 243.119 56.972,242.476 57.307,241.894 57.716 C 237.689 60.675,227.702 60.646,224.410 57.666 C 223.988 57.285,223.459 56.972,223.235 56.972 C 222.724 56.972,220.800 55.111,219.636 53.490 C 213.738 45.280,215.442 33.637,223.297 28.469 C 227.415 25.761,236.053 24.378,238.457 26.042 M103.210 50.070 C 102.456 50.175,101.475 50.516,101.030 50.828 C 100.585 51.139,99.934 51.394,99.584 51.394 C 98.638 51.394,93.490 55.314,92.602 56.710 C 89.313 61.880,89.311 61.889,89.275 67.975 L 89.243 73.600 90.737 76.318 C 92.551 79.618,96.793 84.035,98.189 84.076 C 98.418 84.083,99.502 84.530,100.598 85.069 C 103.317 86.406,110.111 86.515,112.455 85.259 C 113.272 84.821,114.166 84.459,114.441 84.455 C 115.764 84.436,121.316 79.770,121.758 78.305 C 121.893 77.857,122.308 77.131,122.680 76.693 C 125.725 73.102,125.603 62.417,122.477 58.933 C 122.166 58.587,121.911 58.139,121.909 57.937 C 121.905 57.442,118.082 53.386,117.620 53.386 C 117.418 53.386,116.834 53.023,116.322 52.579 C 115.810 52.135,114.931 51.665,114.369 51.535 C 113.807 51.406,112.913 51.028,112.382 50.696 C 111.387 50.072,105.886 49.697,103.210 50.070 M287.649 50.066 C 287.102 50.181,286.473 50.424,286.252 50.605 C 286.031 50.785,285.113 51.187,284.213 51.498 C 282.425 52.114,282.257 52.235,279.048 55.226 C 273.161 60.713,271.942 70.284,276.211 77.509 C 277.963 80.476,281.408 83.572,283.728 84.266 C 284.241 84.419,285.110 84.836,285.657 85.191 C 287.547 86.415,295.025 86.360,297.686 85.101 C 298.891 84.530,299.987 84.064,300.120 84.064 C 301.596 84.064,306.363 79.170,308.076 75.896 C 309.770 72.660,310.032 63.123,308.484 61.030 C 308.000 60.376,307.493 59.396,307.357 58.853 C 306.863 56.886,301.671 52.254,299.004 51.402 C 298.127 51.121,297.216 50.739,296.979 50.552 C 296.467 50.149,289.082 49.764,287.649 50.066 M112.199 51.495 C 115.772 52.664,121.514 57.076,121.514 58.652 C 121.514 58.899,121.770 59.384,122.083 59.730 C 124.445 62.341,124.643 74.338,122.353 76.096 C 122.210 76.205,121.758 76.821,121.347 77.464 C 119.734 79.995,115.567 83.665,114.307 83.665 C 114.090 83.665,113.234 84.011,112.405 84.434 C 109.380 85.977,105.168 85.889,100.547 84.186 C 98.284 83.352,93.227 79.827,93.227 79.084 C 93.227 78.823,92.779 78.089,92.232 77.452 C 91.684 76.816,91.236 76.064,91.236 75.783 C 91.235 75.501,90.921 74.792,90.538 74.207 C 89.351 72.395,89.305 64.891,90.464 62.121 C 92.386 57.527,96.609 53.055,100.000 52.021 C 103.845 50.848,104.850 50.648,107.020 50.624 C 108.538 50.608,110.492 50.936,112.199 51.495 M296.671 51.433 C 301.734 52.981,304.666 55.500,307.334 60.593 C 309.905 65.501,309.041 75.379,305.806 78.063 C 305.461 78.350,305.179 78.736,305.179 78.923 C 305.179 79.686,300.134 83.665,299.166 83.665 C 298.946 83.665,298.013 84.032,297.092 84.481 C 291.537 87.187,282.791 84.635,278.320 79.002 C 277.312 77.732,276.338 76.507,276.154 76.278 C 275.554 75.531,274.502 70.071,274.516 67.780 C 274.590 56.194,285.622 48.054,296.671 51.433 M191.952 83.668 C 190.265 83.863,188.383 84.279,187.769 84.593 C 187.155 84.906,186.026 85.295,185.259 85.457 C 183.767 85.771,178.817 87.953,178.486 88.443 C 178.376 88.605,177.839 88.872,177.291 89.036 C 176.743 89.200,175.936 89.637,175.498 90.006 C 175.060 90.375,173.984 91.161,173.108 91.752 C 170.865 93.263,167.764 96.232,165.740 98.805 C 164.791 100.010,163.731 101.273,163.382 101.612 C 162.728 102.248,162.048 103.310,160.969 105.378 C 160.626 106.036,160.035 107.017,159.655 107.559 C 159.275 108.101,158.964 108.795,158.964 109.103 C 158.964 109.410,158.542 110.670,158.026 111.902 C 154.464 120.407,154.365 133.722,157.801 142.231 C 158.199 143.217,158.637 144.432,158.775 144.931 C 159.065 145.983,162.371 151.952,163.309 153.115 C 167.292 158.058,171.029 161.795,173.340 163.147 C 173.714 163.367,174.999 164.218,176.195 165.040 C 177.391 165.862,178.592 166.534,178.864 166.534 C 179.136 166.534,179.835 166.870,180.417 167.281 C 180.998 167.692,182.039 168.151,182.730 168.300 C 183.421 168.450,184.669 168.920,185.503 169.346 C 186.338 169.771,187.515 170.120,188.118 170.120 C 188.722 170.120,190.073 170.431,191.122 170.811 C 193.817 171.788,204.870 171.815,207.769 170.852 C 208.865 170.488,210.529 170.081,211.469 169.949 C 212.408 169.816,213.840 169.352,214.650 168.917 C 215.461 168.483,216.395 168.124,216.727 168.119 C 217.059 168.114,217.779 167.759,218.327 167.331 C 218.875 166.902,219.592 166.547,219.920 166.542 C 220.249 166.537,221.504 165.818,222.709 164.944 C 223.914 164.071,225.259 163.196,225.697 163.000 C 227.417 162.233,234.113 155.198,236.371 151.787 C 238.485 148.596,241.434 142.365,241.434 141.094 C 241.434 140.660,241.765 139.528,242.169 138.579 C 243.888 134.540,243.907 120.438,242.198 116.261 C 241.778 115.234,241.434 113.997,241.434 113.512 C 241.434 112.754,240.093 109.491,238.992 107.570 C 238.803 107.241,238.360 106.300,238.006 105.478 C 237.653 104.656,237.195 103.984,236.988 103.984 C 236.782 103.984,236.351 103.357,236.030 102.590 C 235.710 101.823,235.283 101.195,235.081 101.195 C 234.880 101.195,234.607 100.855,234.475 100.439 C 233.998 98.938,225.489 90.837,224.388 90.837 C 224.190 90.837,223.713 90.488,223.327 90.062 C 222.942 89.637,222.109 89.175,221.477 89.036 C 220.845 88.897,220.220 88.608,220.087 88.394 C 219.777 87.892,215.855 86.121,213.546 85.441 C 212.560 85.150,210.979 84.628,210.033 84.282 C 207.943 83.515,196.608 83.130,191.952 83.668 M210.274 85.205 C 211.432 85.673,212.715 86.056,213.125 86.056 C 213.535 86.056,214.828 86.529,215.999 87.108 C 217.170 87.686,219.106 88.627,220.302 89.199 C 221.498 89.771,222.663 90.382,222.892 90.557 C 223.120 90.731,224.256 91.576,225.416 92.433 C 229.953 95.783,237.450 104.434,237.450 106.317 C 237.450 106.514,237.702 106.884,238.009 107.139 C 238.316 107.394,238.688 108.082,238.835 108.669 C 238.982 109.255,239.538 110.655,240.069 111.779 C 240.601 112.902,241.044 114.253,241.053 114.779 C 241.063 115.306,241.341 116.454,241.670 117.331 C 243.033 120.953,243.161 135.252,241.845 136.838 C 241.620 137.109,241.320 138.210,241.179 139.283 C 241.037 140.357,240.499 142.040,239.983 143.025 C 239.466 144.009,239.044 145.105,239.044 145.461 C 239.044 145.817,238.685 146.564,238.247 147.121 C 237.809 147.678,237.447 148.285,237.443 148.469 C 237.426 149.272,234.405 153.485,231.673 156.516 C 229.864 158.523,229.031 159.321,226.516 161.451 C 225.043 162.700,220.268 165.737,219.779 165.737 C 219.516 165.737,218.860 166.051,218.320 166.434 C 212.459 170.601,192.085 172.155,186.299 168.877 C 185.885 168.642,184.630 168.181,183.510 167.852 C 182.390 167.522,181.205 167.023,180.876 166.741 C 180.548 166.460,179.859 166.101,179.345 165.945 C 178.831 165.788,177.606 165.094,176.621 164.404 C 175.636 163.713,174.529 162.968,174.162 162.749 C 171.481 161.151,167.151 157.054,165.339 154.399 C 164.791 153.597,164.126 152.703,163.862 152.413 C 162.642 151.072,158.964 144.076,158.964 143.095 C 158.964 142.717,158.701 142.032,158.378 141.572 C 158.056 141.112,157.581 139.414,157.323 137.798 C 157.065 136.183,156.681 134.639,156.471 134.369 C 155.785 133.487,155.973 122.436,156.731 119.124 C 158.172 112.824,159.176 110.231,162.626 103.913 C 164.239 100.959,173.242 91.633,174.481 91.633 C 174.652 91.633,175.265 91.262,175.842 90.808 C 177.428 89.561,184.694 86.058,185.738 86.038 C 186.241 86.029,187.371 85.741,188.247 85.398 C 192.376 83.785,206.455 83.661,210.274 85.205 M59.929 93.393 C 59.485 93.704,58.415 94.089,57.549 94.249 C 55.691 94.592,51.960 96.600,51.642 97.428 C 51.520 97.747,51.151 98.008,50.823 98.008 C 50.495 98.008,50.028 98.380,49.785 98.835 C 49.541 99.290,49.076 99.962,48.750 100.329 C 47.423 101.823,46.129 104.211,45.920 105.550 C 45.797 106.332,45.455 107.326,45.159 107.758 C 44.423 108.835,44.447 114.097,45.195 115.476 C 45.511 116.058,45.873 117.183,46.000 117.977 C 46.128 118.770,46.587 119.829,47.020 120.328 C 47.454 120.828,47.809 121.443,47.809 121.694 C 47.809 122.310,51.868 126.329,53.264 127.095 C 53.879 127.433,54.831 128.004,55.378 128.364 C 58.130 130.175,70.178 129.982,71.550 128.106 C 71.797 127.767,72.285 127.490,72.634 127.490 C 73.542 127.490,78.802 122.180,79.110 120.952 C 79.253 120.385,79.500 119.920,79.661 119.920 C 81.493 119.920,81.831 105.735,80.041 103.945 C 79.624 103.528,79.283 102.943,79.283 102.644 C 79.283 102.187,77.840 100.057,76.547 98.606 C 75.625 97.571,73.572 96.016,73.128 96.016 C 72.855 96.016,72.245 95.680,71.771 95.270 C 71.298 94.859,70.172 94.405,69.269 94.261 C 68.367 94.116,67.252 93.735,66.793 93.414 C 65.687 92.639,61.025 92.625,59.929 93.393 M331.474 93.835 C 330.707 94.133,329.650 94.387,329.125 94.400 C 327.501 94.438,322.964 97.800,320.711 100.634 C 313.925 109.172,317.234 123.024,327.257 128.032 C 330.833 129.820,341.798 129.954,342.868 128.224 C 342.986 128.033,343.686 127.624,344.425 127.316 C 346.044 126.639,350.094 122.885,350.442 121.738 C 350.580 121.286,350.924 120.647,351.208 120.319 C 353.188 118.027,354.203 109.508,352.816 106.826 C 352.473 106.161,352.191 105.327,352.191 104.971 C 352.191 98.809,338.123 91.247,331.474 93.835 M69.339 95.219 C 72.573 96.678,75.702 98.936,76.732 100.554 C 80.121 105.880,80.211 106.169,80.239 111.828 C 80.264 116.663,80.195 117.179,79.376 118.286 C 78.886 118.948,78.486 119.777,78.486 120.128 C 78.486 121.193,73.283 126.012,70.749 127.293 C 65.885 129.752,56.575 128.845,52.852 125.549 C 50.761 123.698,48.864 121.582,48.341 120.518 C 48.018 119.861,47.493 118.842,47.175 118.254 C 45.688 115.509,46.133 106.136,47.876 103.515 C 48.387 102.746,49.253 101.375,49.801 100.469 C 50.349 99.562,51.109 98.716,51.492 98.587 C 51.874 98.459,52.412 98.136,52.687 97.869 C 55.716 94.931,65.314 93.403,69.339 95.219 M339.039 94.848 C 340.461 95.078,341.895 95.496,342.226 95.775 C 342.558 96.054,343.434 96.523,344.174 96.816 C 345.867 97.488,349.048 100.639,349.949 102.539 C 350.326 103.334,350.806 103.984,351.015 103.984 C 351.224 103.984,351.394 104.421,351.394 104.954 C 351.394 105.488,351.580 106.412,351.807 107.008 C 352.758 109.511,352.081 117.560,350.788 119.124 C 350.516 119.452,350.173 120.118,350.025 120.603 C 349.613 121.955,345.324 125.859,342.745 127.229 C 339.595 128.902,331.098 129.119,328.638 127.590 C 327.845 127.097,326.949 126.693,326.646 126.693 C 325.670 126.693,319.920 120.811,319.920 119.813 C 319.920 119.572,319.519 118.557,319.029 117.556 C 317.722 114.890,317.720 108.151,319.025 105.665 C 319.517 104.727,319.920 103.738,319.920 103.468 C 319.920 102.587,324.658 97.703,326.596 96.586 C 329.858 94.706,334.323 94.083,339.039 94.848 M34.662 151.666 C 33.676 151.766,32.601 152.091,32.272 152.387 C 31.943 152.683,31.135 153.057,30.478 153.217 C 29.367 153.487,28.644 153.966,25.808 156.308 C 24.330 157.528,21.116 161.715,21.116 162.420 C 21.116 162.735,20.725 163.834,20.247 164.862 C 19.153 167.221,19.045 172.935,20.061 174.759 C 20.409 175.385,20.881 176.640,21.108 177.549 C 21.336 178.457,21.790 179.303,22.116 179.429 C 22.442 179.554,22.709 179.914,22.709 180.229 C 22.709 180.907,28.161 186.056,28.879 186.056 C 29.152 186.056,29.887 186.459,30.514 186.952 C 32.044 188.156,43.591 188.341,44.878 187.182 C 45.285 186.816,46.125 186.390,46.745 186.235 C 48.050 185.909,53.586 180.543,54.009 179.194 C 54.165 178.695,54.627 177.859,55.035 177.337 C 55.524 176.711,55.777 175.734,55.777 174.474 C 55.777 173.422,55.928 172.147,56.114 171.639 C 56.610 170.281,55.661 163.522,54.847 162.623 C 54.482 162.220,54.183 161.652,54.183 161.361 C 54.183 159.652,47.673 153.418,45.864 153.394 C 45.561 153.390,44.726 153.024,44.008 152.580 C 42.631 151.729,38.248 151.300,34.662 151.666 M355.378 152.559 C 354.612 152.961,353.401 153.416,352.689 153.569 C 351.977 153.723,351.394 153.991,351.394 154.167 C 351.394 154.342,350.900 154.690,350.297 154.940 C 348.538 155.668,346.353 158.015,344.694 160.956 C 342.945 164.058,342.870 164.380,342.710 169.423 C 342.566 173.993,342.633 174.664,343.386 176.108 C 343.847 176.991,344.223 177.953,344.223 178.244 C 344.223 178.762,345.725 180.870,347.518 182.869 C 348.515 183.980,352.109 186.454,352.726 186.454 C 352.945 186.454,353.471 186.768,353.895 187.151 C 356.148 189.191,368.161 187.673,370.822 185.012 C 371.124 184.710,371.525 184.462,371.712 184.462 C 372.240 184.462,375.265 181.171,375.554 180.280 C 375.697 179.843,376.066 179.300,376.375 179.075 C 376.684 178.849,377.093 178.041,377.286 177.280 C 377.478 176.519,377.908 175.179,378.242 174.303 C 379.021 172.259,379.023 167.592,378.247 165.538 C 377.916 164.661,377.500 163.496,377.324 162.948 C 376.545 160.532,371.878 154.980,370.624 154.980 C 370.333 154.980,369.996 154.722,369.875 154.407 C 369.754 154.092,369.087 153.711,368.393 153.561 C 367.699 153.412,366.466 152.953,365.653 152.541 C 363.587 151.495,357.387 151.506,355.378 152.559 M41.207 152.943 C 41.327 153.137,42.100 153.413,42.924 153.557 C 44.881 153.897,46.614 154.588,46.614 155.028 C 46.614 155.221,46.883 155.378,47.212 155.378 C 48.256 155.378,53.386 160.894,53.386 162.016 C 53.386 162.284,53.789 163.187,54.281 164.021 C 55.734 166.484,55.535 173.852,53.933 176.892 C 51.586 181.346,47.545 185.601,45.596 185.671 C 45.389 185.678,44.502 186.031,43.625 186.454 C 42.377 187.057,41.170 187.224,38.048 187.224 C 34.926 187.224,33.719 187.057,32.470 186.454 C 31.594 186.031,30.605 185.678,30.273 185.671 C 29.424 185.652,24.563 181.178,23.206 179.167 C 21.290 176.327,20.045 170.270,20.836 167.635 C 21.182 166.481,21.588 164.910,21.738 164.143 C 21.888 163.376,22.348 162.273,22.759 161.691 C 23.170 161.110,23.506 160.476,23.506 160.283 C 23.506 159.835,27.280 156.239,29.011 155.037 C 31.491 153.316,40.483 151.772,41.207 152.943 M364.329 153.160 C 365.213 153.473,366.396 153.827,366.958 153.946 C 367.521 154.064,368.400 154.525,368.912 154.969 C 369.424 155.413,370.057 155.777,370.318 155.777 C 370.990 155.777,374.510 159.445,375.149 160.811 C 375.442 161.439,375.845 162.221,376.045 162.550 C 377.706 165.288,378.523 171.310,377.501 173.285 C 377.179 173.908,376.796 175.166,376.649 176.081 C 376.503 176.995,376.163 177.964,375.893 178.233 C 375.623 178.503,375.122 179.267,374.779 179.930 C 373.842 181.741,369.138 185.647,367.865 185.671 C 367.462 185.678,366.414 186.031,365.538 186.454 C 363.285 187.542,357.432 187.542,355.179 186.454 C 354.303 186.031,353.294 185.678,352.937 185.671 C 352.581 185.663,352.056 185.377,351.771 185.033 C 351.486 184.690,350.755 184.152,350.145 183.836 C 348.919 183.203,347.012 181.422,347.012 180.912 C 347.012 180.733,346.615 180.081,346.130 179.464 C 345.221 178.309,344.098 175.562,343.339 172.640 C 341.946 167.272,346.675 156.969,351.195 155.526 C 351.633 155.386,352.092 155.116,352.215 154.927 C 353.247 153.329,361.438 152.134,364.329 153.160 M116.418 159.551 C 115.478 159.845,113.595 160.210,112.235 160.363 C 110.874 160.516,109.223 160.959,108.566 161.348 C 107.908 161.736,106.689 162.176,105.856 162.324 C 105.022 162.472,104.241 162.853,104.120 163.169 C 103.998 163.486,103.708 163.745,103.475 163.745 C 102.795 163.745,98.041 166.155,97.711 166.666 C 97.546 166.923,96.873 167.401,96.215 167.730 C 94.667 168.503,87.895 175.262,87.069 176.858 C 86.720 177.534,86.277 178.088,86.085 178.088 C 85.892 178.088,85.548 178.625,85.319 179.283 C 85.090 179.940,84.727 180.478,84.514 180.478 C 84.300 180.478,83.907 181.150,83.640 181.972 C 83.373 182.794,82.925 183.602,82.644 183.767 C 82.364 183.933,82.011 184.650,81.861 185.361 C 81.710 186.072,81.271 187.191,80.885 187.849 C 80.499 188.506,80.079 189.851,79.952 190.837 C 79.826 191.823,79.399 193.257,79.004 194.024 C 77.811 196.343,77.943 210.961,79.183 213.819 C 79.676 214.955,80.080 216.389,80.081 217.006 C 80.082 217.623,80.413 218.669,80.816 219.331 C 81.220 219.993,81.676 221.203,81.829 222.020 C 81.982 222.837,82.285 223.506,82.502 223.506 C 82.719 223.506,83.255 224.268,83.693 225.199 C 85.661 229.384,91.020 235.987,94.283 238.247 C 99.503 241.863,101.985 243.426,102.506 243.426 C 102.849 243.426,103.420 243.716,103.774 244.070 C 104.129 244.424,105.172 244.881,106.094 245.085 C 107.015 245.289,108.486 245.790,109.363 246.197 C 110.239 246.604,112.211 247.063,113.745 247.216 C 115.279 247.369,117.018 247.744,117.610 248.050 C 119.066 248.802,124.838 248.770,127.769 247.994 C 129.040 247.658,131.304 247.224,132.800 247.031 C 134.297 246.838,135.825 246.405,136.197 246.068 C 136.569 245.732,137.675 245.334,138.656 245.185 C 139.636 245.036,140.707 244.687,141.036 244.409 C 141.365 244.131,142.261 243.611,143.028 243.252 C 145.588 242.056,146.810 241.319,147.131 240.777 C 147.307 240.481,147.671 240.239,147.942 240.239 C 149.330 240.239,157.751 231.748,159.332 228.755 C 159.601 228.245,160.166 227.483,160.588 227.061 C 161.010 226.640,161.355 225.958,161.355 225.547 C 161.355 225.135,161.614 224.583,161.932 224.320 C 162.249 224.056,162.725 223.188,162.988 222.389 C 163.251 221.591,163.709 220.696,164.004 220.401 C 164.300 220.105,164.542 219.376,164.542 218.781 C 164.542 218.185,164.908 216.988,165.356 216.120 C 167.139 212.666,167.151 194.829,165.372 191.450 C 164.916 190.582,164.542 189.384,164.542 188.789 C 164.542 188.193,164.287 187.452,163.976 187.140 C 163.664 186.829,163.215 185.851,162.977 184.967 C 162.739 184.083,162.276 183.138,161.949 182.866 C 161.622 182.595,161.352 182.170,161.348 181.923 C 161.345 181.676,160.708 180.578,159.933 179.482 C 159.158 178.386,158.157 176.907,157.709 176.195 C 157.260 175.483,156.761 174.900,156.598 174.900 C 156.436 174.900,156.099 174.452,155.849 173.904 C 155.600 173.357,155.135 172.908,154.816 172.908 C 154.498 172.908,154.123 172.550,153.984 172.112 C 153.845 171.673,153.601 171.315,153.443 171.315 C 153.284 171.315,152.265 170.507,151.179 169.521 C 150.092 168.534,148.845 167.612,148.406 167.472 C 147.968 167.331,147.375 166.884,147.089 166.477 C 146.803 166.070,146.332 165.737,146.042 165.737 C 145.753 165.737,145.300 165.477,145.037 165.160 C 144.773 164.842,143.900 164.371,143.096 164.113 C 142.291 163.855,141.365 163.412,141.036 163.128 C 140.707 162.844,139.900 162.480,139.243 162.318 C 138.586 162.156,137.420 161.707,136.653 161.319 C 135.886 160.931,134.183 160.494,132.869 160.347 C 131.554 160.201,129.710 159.830,128.771 159.523 C 126.576 158.805,118.752 158.823,116.418 159.551 M269.124 159.969 C 268.028 160.251,266.501 160.498,265.731 160.520 C 264.961 160.541,263.706 160.892,262.942 161.301 C 262.179 161.710,260.926 162.183,260.159 162.351 C 259.392 162.519,258.140 162.991,257.376 163.400 C 256.613 163.809,255.806 164.147,255.584 164.151 C 255.160 164.158,251.772 166.358,251.406 166.862 C 251.290 167.022,250.809 167.328,250.338 167.541 C 245.828 169.579,235.458 182.480,235.458 186.053 C 235.458 186.462,235.183 187.071,234.846 187.408 C 234.290 187.963,233.231 191.262,232.274 195.418 C 231.635 198.192,231.788 210.287,232.493 212.762 C 232.834 213.960,233.311 215.837,233.553 216.932 C 233.794 218.028,234.321 219.352,234.725 219.874 C 235.128 220.397,235.458 221.172,235.458 221.596 C 235.458 222.895,239.185 228.922,242.032 232.227 C 244.740 235.370,248.255 238.535,251.254 240.531 C 254.170 242.470,254.940 242.921,256.175 243.412 C 256.942 243.717,257.923 244.204,258.356 244.493 C 258.788 244.783,259.404 245.020,259.724 245.020 C 260.044 245.020,261.035 245.370,261.926 245.799 C 267.654 248.552,284.171 248.555,289.867 245.803 C 290.758 245.372,291.856 245.020,292.308 245.020 C 292.760 245.020,293.338 244.769,293.593 244.461 C 293.848 244.154,294.542 243.782,295.136 243.634 C 296.093 243.395,299.048 241.690,300.237 240.690 C 300.476 240.489,301.214 240.044,301.876 239.701 C 303.409 238.909,311.014 231.352,311.352 230.286 C 311.493 229.844,311.784 229.482,312.000 229.482 C 312.216 229.482,312.580 228.944,312.809 228.287 C 313.038 227.629,313.360 227.092,313.525 227.092 C 313.690 227.092,314.404 225.881,315.112 224.402 C 315.819 222.923,316.718 221.086,317.108 220.319 C 317.498 219.552,318.050 217.938,318.334 216.733 C 318.618 215.528,319.091 213.965,319.386 213.260 C 320.163 211.397,320.141 196.120,319.359 194.248 C 319.050 193.509,318.583 191.856,318.321 190.576 C 318.060 189.295,317.609 187.978,317.320 187.649 C 317.031 187.321,316.664 186.514,316.504 185.857 C 316.152 184.416,314.132 180.731,313.327 180.063 C 313.009 179.800,312.749 179.419,312.749 179.217 C 312.749 177.660,304.667 169.232,301.159 167.131 C 300.428 166.693,299.374 166.021,298.819 165.637 C 297.634 164.818,295.401 163.745,294.882 163.745 C 294.683 163.745,294.308 163.490,294.050 163.179 C 293.791 162.867,292.828 162.489,291.909 162.338 C 290.991 162.188,289.959 161.818,289.617 161.517 C 289.275 161.216,287.596 160.774,285.885 160.536 C 284.174 160.299,282.336 159.937,281.800 159.733 C 280.396 159.199,271.472 159.366,269.124 159.969 M133.517 161.565 C 134.475 161.916,136.092 162.439,137.110 162.728 C 138.128 163.017,139.473 163.523,140.098 163.852 C 140.723 164.182,141.683 164.660,142.231 164.915 C 143.896 165.688,146.489 167.352,150.142 169.993 C 153.358 172.317,158.682 178.757,160.353 182.343 C 160.678 183.040,161.124 183.722,161.343 183.858 C 161.563 183.993,162.026 185.078,162.371 186.268 C 162.717 187.458,163.156 188.528,163.346 188.645 C 163.536 188.762,163.894 189.886,164.141 191.142 C 164.388 192.399,164.858 194.126,165.185 194.982 C 166.205 197.650,166.013 211.484,164.936 212.948 C 164.774 213.167,164.518 214.207,164.366 215.258 C 164.213 216.310,163.655 218.103,163.124 219.243 C 162.593 220.382,162.157 221.601,162.155 221.950 C 162.153 222.300,161.793 222.910,161.355 223.307 C 160.916 223.703,160.558 224.345,160.558 224.732 C 160.558 225.120,160.110 225.970,159.562 226.621 C 159.014 227.272,158.566 227.925,158.566 228.072 C 158.566 228.820,153.249 234.879,151.210 236.454 C 150.643 236.892,149.959 237.430,149.691 237.649 C 146.480 240.268,145.394 241.036,144.902 241.036 C 144.582 241.036,144.105 241.296,143.842 241.613 C 143.578 241.931,142.705 242.405,141.900 242.667 C 141.096 242.929,140.011 243.476,139.488 243.883 C 138.966 244.289,138.121 244.622,137.610 244.622 C 137.100 244.622,135.762 244.984,134.636 245.428 C 129.699 247.374,114.877 247.386,110.620 245.447 C 109.624 244.993,108.437 244.622,107.983 244.622 C 107.266 244.622,104.835 243.575,102.191 242.128 C 101.753 241.888,100.946 241.460,100.398 241.178 C 99.206 240.564,98.852 240.297,94.140 236.462 C 92.123 234.820,90.286 233.129,90.059 232.705 C 89.832 232.281,89.421 231.692,89.146 231.396 C 87.122 229.217,82.470 221.738,82.470 220.662 C 82.470 220.393,82.127 219.443,81.708 218.552 C 81.289 217.661,80.735 215.633,80.477 214.045 C 80.219 212.457,79.865 211.070,79.689 210.961 C 77.979 209.904,79.620 192.706,81.818 188.645 C 82.174 187.988,82.466 187.244,82.468 186.993 C 82.471 186.320,85.015 181.616,86.943 178.719 C 88.835 175.875,93.560 170.966,96.179 169.124 C 96.802 168.685,97.782 167.961,98.357 167.514 C 98.932 167.067,100.657 166.092,102.191 165.346 C 103.725 164.600,105.249 163.778,105.578 163.520 C 105.906 163.261,106.830 162.932,107.629 162.789 C 108.429 162.646,109.659 162.241,110.363 161.890 C 113.212 160.469,129.886 160.234,133.517 161.565 M282.834 160.967 C 284.897 161.184,287.112 161.624,287.755 161.945 C 288.398 162.266,289.579 162.648,290.379 162.794 C 291.178 162.940,292.460 163.378,293.227 163.767 C 293.994 164.157,295.070 164.666,295.618 164.898 C 296.591 165.311,298.312 166.345,300.636 167.911 C 303.392 169.770,306.550 172.662,308.569 175.178 C 309.764 176.669,311.085 178.247,311.503 178.685 C 311.921 179.124,312.385 179.885,312.533 180.378 C 312.681 180.872,312.950 181.275,313.131 181.275 C 313.312 181.275,313.740 181.977,314.083 182.835 C 314.427 183.692,314.894 184.510,315.123 184.651 C 315.351 184.792,315.538 185.193,315.538 185.543 C 315.538 185.892,315.966 187.092,316.490 188.209 C 317.013 189.325,317.567 191.046,317.720 192.032 C 317.873 193.018,318.288 194.811,318.640 196.016 C 319.527 199.045,319.531 208.506,318.646 211.554 C 318.296 212.759,317.886 214.462,317.734 215.339 C 317.582 216.215,317.137 217.649,316.744 218.526 C 316.352 219.402,315.915 220.500,315.774 220.965 C 315.556 221.682,313.995 224.616,312.550 227.025 C 310.461 230.508,302.528 238.705,300.498 239.479 C 300.005 239.667,299.602 239.991,299.602 240.198 C 299.602 240.406,298.988 240.778,298.239 241.025 C 297.490 241.273,296.670 241.723,296.419 242.027 C 296.167 242.330,295.391 242.703,294.694 242.855 C 293.997 243.007,292.999 243.467,292.476 243.877 C 291.954 244.286,291.125 244.622,290.634 244.622 C 290.144 244.622,288.958 244.968,287.999 245.391 C 283.562 247.350,268.225 247.353,263.802 245.396 C 262.838 244.970,261.649 244.622,261.158 244.622 C 260.668 244.622,259.839 244.290,259.317 243.885 C 258.794 243.481,257.856 243.024,257.231 242.872 C 256.606 242.719,255.620 242.268,255.040 241.869 C 254.459 241.470,252.908 240.453,251.594 239.610 C 246.754 236.505,237.450 226.041,237.450 223.702 C 237.450 223.429,237.193 222.992,236.878 222.730 C 236.564 222.469,236.187 221.685,236.042 220.988 C 235.897 220.291,235.548 219.355,235.265 218.908 C 234.983 218.461,234.535 217.027,234.268 215.721 C 234.002 214.415,233.534 212.368,233.227 211.171 C 232.360 207.789,232.499 198.920,233.476 195.246 C 233.909 193.617,234.263 191.912,234.263 191.455 C 234.263 190.999,234.622 189.957,235.060 189.139 C 235.498 188.321,235.857 187.428,235.856 187.153 C 235.856 186.671,238.129 181.901,238.750 181.079 C 238.917 180.858,239.589 179.980,240.244 179.128 C 240.899 178.277,241.434 177.459,241.434 177.311 C 241.434 177.164,241.838 176.614,242.331 176.089 C 242.824 175.565,243.706 174.539,244.290 173.809 C 246.415 171.157,255.773 164.542,257.400 164.542 C 257.643 164.542,258.298 164.183,258.855 163.745 C 259.413 163.307,260.304 162.948,260.836 162.948 C 261.369 162.948,262.679 162.572,263.747 162.113 C 267.001 160.713,275.549 160.199,282.834 160.967 M33.682 219.813 C 33.253 219.922,32.536 220.238,32.088 220.516 C 31.641 220.793,30.815 221.127,30.253 221.256 C 29.691 221.386,28.837 221.811,28.357 222.200 C 27.876 222.590,27.020 223.267,26.454 223.705 C 25.887 224.143,25.217 224.739,24.963 225.028 C 24.710 225.317,24.099 225.932,23.606 226.394 C 23.113 226.857,22.709 227.399,22.709 227.599 C 22.709 227.798,22.351 228.418,21.912 228.975 C 21.474 229.532,21.114 230.278,21.113 230.631 C 21.112 230.985,20.861 231.754,20.555 232.340 C 19.035 235.254,18.948 240.723,20.379 243.420 C 20.784 244.184,21.116 245.062,21.116 245.371 C 21.116 247.213,27.371 254.183,29.024 254.183 C 29.251 254.183,30.119 254.587,30.953 255.080 C 32.339 255.899,32.971 255.976,38.257 255.976 C 43.655 255.976,44.120 255.916,45.183 255.080 C 45.810 254.587,46.613 254.183,46.969 254.183 C 48.020 254.183,54.171 247.963,54.192 246.879 C 54.197 246.623,54.552 245.966,54.980 245.418 C 55.494 244.762,55.776 243.744,55.808 242.430 C 55.834 241.335,55.976 240.011,56.122 239.489 C 56.519 238.072,55.611 231.599,54.901 230.782 C 54.565 230.396,54.174 229.590,54.032 228.993 C 53.732 227.728,49.704 223.257,48.530 222.884 C 48.090 222.745,47.389 222.290,46.973 221.873 C 46.556 221.456,45.856 221.116,45.417 221.116 C 44.978 221.116,43.950 220.757,43.132 220.319 C 41.678 219.539,35.962 219.233,33.682 219.813 M357.769 219.770 C 357.221 219.873,356.235 220.209,355.578 220.516 C 354.920 220.823,353.902 221.173,353.315 221.295 C 352.727 221.416,352.010 221.739,351.721 222.013 C 351.432 222.286,350.692 222.770,350.077 223.087 C 349.462 223.405,348.242 224.480,347.366 225.478 C 346.490 226.475,345.514 227.575,345.197 227.922 C 344.881 228.269,344.622 228.683,344.622 228.843 C 344.622 229.002,344.156 230.117,343.587 231.320 C 342.310 234.019,342.230 243.454,343.472 244.879 C 343.826 245.285,344.231 246.104,344.372 246.698 C 344.704 248.094,350.302 253.698,351.709 254.041 C 352.303 254.186,353.216 254.636,353.739 255.041 C 355.153 256.136,365.141 256.130,367.276 255.032 C 368.073 254.623,369.228 254.050,369.842 253.759 C 371.215 253.108,375.306 249.367,375.302 248.766 C 375.300 248.526,375.662 247.910,376.106 247.398 C 376.551 246.886,377.008 246.007,377.123 245.444 C 377.238 244.882,377.637 243.809,378.009 243.059 C 378.953 241.157,378.958 234.559,378.017 232.638 C 377.650 231.888,377.135 230.692,376.873 229.980 C 376.612 229.268,376.252 228.685,376.074 228.685 C 375.896 228.685,375.632 228.311,375.487 227.853 C 375.230 227.044,371.426 223.108,370.901 223.108 C 370.758 223.108,370.221 222.744,369.709 222.300 C 369.196 221.856,368.317 221.397,367.755 221.280 C 367.193 221.163,366.116 220.796,365.363 220.464 C 363.949 219.842,359.525 219.437,357.769 219.770 M42.829 221.460 C 47.009 222.668,51.316 225.924,52.778 228.981 C 53.172 229.804,53.874 231.248,54.337 232.189 C 56.246 236.065,54.829 245.853,52.021 248.183 C 51.676 248.469,51.394 248.852,51.394 249.035 C 51.394 249.939,48.247 252.318,44.821 254.003 C 41.882 255.449,34.163 255.769,32.271 254.524 C 31.723 254.163,30.827 253.734,30.279 253.570 C 28.588 253.064,23.947 249.104,23.914 248.138 C 23.909 247.991,23.478 247.363,22.958 246.744 C 22.367 246.041,21.748 244.418,21.312 242.430 C 20.233 237.513,20.192 236.859,20.879 235.531 C 21.228 234.855,21.515 233.801,21.516 233.187 C 21.518 232.574,21.811 231.534,22.168 230.876 C 22.526 230.219,23.064 229.211,23.366 228.635 C 24.054 227.321,27.781 223.506,28.377 223.506 C 28.622 223.506,29.131 223.226,29.508 222.885 C 31.798 220.812,38.211 220.126,42.829 221.460 M364.963 221.496 C 366.757 221.924,368.530 222.552,368.904 222.890 C 369.279 223.229,369.751 223.506,369.954 223.506 C 370.536 223.506,374.900 227.880,374.900 228.463 C 374.900 228.751,375.150 229.193,375.455 229.447 C 377.232 230.921,378.608 239.073,377.467 241.361 C 377.126 242.045,376.736 243.282,376.602 244.109 C 376.151 246.887,370.458 253.382,368.469 253.388 C 368.171 253.389,367.301 253.790,366.534 254.279 C 365.310 255.059,364.604 255.169,360.757 255.174 C 344.615 255.194,337.207 236.774,348.804 225.450 C 349.898 224.381,350.960 223.506,351.163 223.506 C 351.365 223.506,351.834 223.232,352.204 222.896 C 354.236 221.058,360.329 220.389,364.963 221.496 M198.254 236.142 C 198.097 236.299,196.767 236.560,195.299 236.723 C 189.224 237.397,186.990 237.793,185.857 238.400 C 185.199 238.751,184.391 239.040,184.061 239.041 C 183.730 239.043,182.618 239.492,181.589 240.040 C 180.560 240.588,179.538 241.036,179.319 241.036 C 178.889 241.036,176.552 242.479,174.837 243.803 C 174.255 244.253,173.672 244.622,173.543 244.622 C 172.851 244.622,165.951 251.237,164.665 253.133 C 164.051 254.039,163.421 254.876,163.267 254.992 C 162.733 255.393,160.572 258.766,160.565 259.209 C 160.561 259.454,160.210 260.095,159.786 260.635 C 159.361 261.175,158.890 262.140,158.738 262.780 C 158.587 263.421,158.151 264.482,157.769 265.139 C 157.387 265.797,156.971 267.141,156.845 268.127 C 156.718 269.114,156.300 270.548,155.916 271.315 C 154.884 273.375,154.647 285.709,155.579 288.845 C 155.938 290.050,156.442 292.022,156.701 293.227 C 156.960 294.432,157.485 295.862,157.869 296.403 C 158.252 296.945,158.566 297.773,158.566 298.242 C 158.566 298.712,158.900 299.523,159.308 300.046 C 159.716 300.568,160.182 301.418,160.344 301.934 C 160.609 302.779,162.013 305.138,162.875 306.186 C 163.060 306.410,163.555 307.126,163.976 307.775 C 164.973 309.313,172.076 316.321,173.108 316.783 C 173.546 316.980,174.890 317.856,176.096 318.729 C 177.301 319.603,178.617 320.318,179.021 320.318 C 179.425 320.318,180.211 320.677,180.768 321.116 C 181.325 321.554,182.073 321.912,182.430 321.912 C 182.787 321.912,183.733 322.263,184.532 322.691 C 185.330 323.119,186.941 323.590,188.111 323.738 C 189.282 323.886,190.824 324.245,191.540 324.536 C 193.396 325.290,200.075 325.628,203.586 325.146 C 207.573 324.599,213.415 323.305,214.039 322.831 C 214.316 322.622,215.283 322.239,216.188 321.980 C 217.093 321.722,218.056 321.242,218.328 320.915 C 218.600 320.587,219.215 320.319,219.695 320.319 C 220.174 320.319,220.952 319.960,221.422 319.522 C 221.893 319.084,222.440 318.725,222.638 318.725 C 222.836 318.725,223.695 318.193,224.547 317.544 C 225.399 316.894,226.516 316.042,227.031 315.651 C 229.958 313.426,232.476 310.673,236.976 304.781 C 237.394 304.233,237.873 303.337,238.039 302.789 C 238.205 302.241,238.568 301.524,238.845 301.195 C 239.121 300.867,239.480 300.149,239.641 299.602 C 239.803 299.054,240.181 298.324,240.482 297.980 C 240.783 297.636,241.205 296.427,241.420 295.293 C 241.635 294.160,242.073 292.827,242.393 292.333 C 244.068 289.749,243.934 272.127,242.215 268.812 C 241.786 267.984,241.434 266.880,241.434 266.359 C 241.434 265.544,240.152 262.480,239.006 260.558 C 238.810 260.229,238.360 259.288,238.006 258.466 C 237.653 257.644,237.199 256.972,236.999 256.972 C 236.798 256.972,236.474 256.569,236.280 256.076 C 235.170 253.268,228.633 246.709,223.904 243.661 C 222.918 243.025,221.626 242.174,221.032 241.770 C 220.438 241.366,219.701 241.036,219.393 241.036 C 219.085 241.036,218.405 240.701,217.882 240.291 C 217.360 239.881,216.305 239.413,215.538 239.250 C 214.771 239.087,213.426 238.638,212.550 238.253 C 211.673 237.868,208.894 237.334,206.375 237.067 C 203.855 236.800,201.381 236.418,200.878 236.219 C 199.779 235.784,198.645 235.751,198.254 236.142 M209.684 238.754 C 210.165 239.066,211.275 239.455,212.151 239.617 C 213.028 239.780,214.659 240.345,215.775 240.873 C 216.892 241.401,218.020 241.833,218.282 241.833 C 218.733 241.833,219.182 242.099,222.195 244.149 C 222.898 244.628,223.595 245.020,223.744 245.020 C 224.683 245.020,233.865 253.999,233.865 254.917 C 233.865 255.156,234.223 255.542,234.661 255.777 C 235.100 256.011,235.458 256.368,235.458 256.570 C 235.458 256.772,235.906 257.597,236.454 258.404 C 237.002 259.212,237.450 260.187,237.450 260.571 C 237.450 260.955,237.719 261.373,238.048 261.499 C 238.376 261.625,238.645 262.030,238.645 262.399 C 238.645 262.768,239.077 263.984,239.604 265.101 C 240.132 266.218,240.758 268.187,240.995 269.477 C 241.233 270.767,241.606 272.038,241.824 272.301 C 242.430 273.030,242.762 282.680,242.291 285.857 C 241.713 289.756,240.452 295.076,239.959 295.696 C 239.732 295.981,239.321 296.932,239.045 297.809 C 238.770 298.685,238.320 299.671,238.045 300.000 C 237.769 300.329,237.412 301.046,237.251 301.594 C 237.090 302.141,236.681 302.905,236.343 303.290 C 236.005 303.675,235.533 304.321,235.294 304.727 C 233.681 307.469,228.082 313.944,227.325 313.944 C 227.217 313.944,225.929 314.841,224.463 315.936 C 222.998 317.032,221.628 317.928,221.420 317.928 C 221.212 317.928,220.586 318.287,220.029 318.725 C 219.472 319.163,218.754 319.522,218.434 319.522 C 218.114 319.522,217.370 319.865,216.781 320.285 C 216.192 320.704,214.999 321.174,214.130 321.329 C 213.261 321.484,212.012 321.927,211.355 322.313 C 210.541 322.791,208.836 323.105,206.012 323.297 C 203.731 323.452,201.547 323.777,201.159 324.019 C 200.641 324.343,199.786 324.332,197.936 323.978 C 196.551 323.713,193.667 323.344,191.525 323.157 C 189.014 322.938,187.388 322.602,186.944 322.209 C 186.565 321.874,185.498 321.477,184.573 321.325 C 183.649 321.173,182.455 320.706,181.921 320.286 C 181.387 319.866,180.603 319.522,180.178 319.522 C 179.754 319.522,179.096 319.179,178.718 318.761 C 178.339 318.342,177.589 317.890,177.052 317.755 C 176.515 317.620,175.766 317.243,175.388 316.917 C 175.010 316.591,173.392 315.234,171.792 313.902 C 168.637 311.276,163.532 305.587,162.892 303.985 C 162.673 303.437,162.259 302.720,161.972 302.391 C 161.684 302.062,161.317 301.345,161.155 300.797 C 160.994 300.249,160.598 299.500,160.275 299.132 C 159.953 298.764,159.516 297.691,159.304 296.748 C 159.092 295.804,158.681 294.760,158.391 294.428 C 158.101 294.096,157.740 292.749,157.589 291.434 C 157.438 290.120,157.043 287.976,156.712 286.671 C 155.621 282.366,156.760 270.777,158.699 266.447 C 159.064 265.632,159.363 264.629,159.363 264.217 C 159.363 263.805,159.734 263.040,160.188 262.517 C 160.642 261.993,161.113 261.069,161.234 260.464 C 161.355 259.858,161.620 259.363,161.823 259.363 C 162.026 259.363,162.456 258.731,162.779 257.959 C 163.101 257.187,163.634 256.246,163.963 255.867 C 164.293 255.489,165.018 254.641,165.576 253.984 C 170.235 248.490,175.365 244.317,180.035 242.221 C 181.045 241.768,182.500 241.069,183.267 240.668 C 184.034 240.267,185.468 239.807,186.454 239.645 C 187.440 239.484,188.499 239.148,188.806 238.899 C 190.226 237.749,207.951 237.626,209.684 238.754 M59.363 278.421 C 58.376 278.574,57.126 279.010,56.585 279.390 C 56.043 279.769,55.290 280.080,54.912 280.080 C 54.534 280.080,53.779 280.483,53.235 280.976 C 52.691 281.469,51.610 282.410,50.833 283.068 C 50.056 283.725,49.416 284.444,49.411 284.665 C 49.406 284.886,49.044 285.291,48.606 285.565 C 48.167 285.839,47.809 286.302,47.809 286.595 C 47.809 286.888,47.463 287.440,47.041 287.822 C 46.619 288.205,46.152 289.233,46.004 290.108 C 45.857 290.983,45.486 292.177,45.181 292.762 C 44.441 294.180,44.442 299.167,45.182 300.224 C 45.490 300.664,45.867 301.859,46.020 302.879 C 46.173 303.898,46.638 305.040,47.054 305.416 C 47.469 305.792,47.809 306.302,47.809 306.548 C 47.809 307.719,54.046 313.144,55.400 313.150 C 55.717 313.151,56.514 313.509,57.171 313.944 C 58.939 315.115,67.826 315.115,69.323 313.944 C 69.871 313.516,70.693 313.161,71.150 313.156 C 71.991 313.147,75.697 310.521,75.697 309.934 C 75.697 309.759,76.056 309.502,76.494 309.363 C 76.932 309.223,77.291 308.847,77.291 308.526 C 77.291 308.206,77.554 307.842,77.876 307.718 C 78.198 307.595,78.683 306.883,78.952 306.137 C 79.222 305.391,79.564 304.781,79.713 304.781 C 80.585 304.781,81.076 301.843,81.076 296.614 C 81.076 291.286,80.585 288.446,79.665 288.446 C 79.489 288.446,79.228 287.907,79.083 287.248 C 78.938 286.588,78.476 285.865,78.055 285.640 C 77.635 285.415,77.291 284.999,77.291 284.715 C 77.291 283.896,72.526 280.080,71.503 280.080 C 71.123 280.080,70.231 279.721,69.521 279.282 C 68.078 278.391,62.561 277.923,59.363 278.421 M329.378 279.283 C 328.560 279.721,327.646 280.080,327.347 280.080 C 325.860 280.080,320.424 285.224,319.422 287.581 C 319.173 288.166,318.735 288.929,318.449 289.275 C 315.847 292.419,317.215 302.752,320.914 307.890 C 324.860 313.371,335.573 316.692,340.643 314.005 C 341.407 313.601,342.480 313.160,343.028 313.026 C 344.812 312.589,349.328 308.469,351.038 305.718 C 354.214 300.609,354.110 292.843,350.785 286.815 C 350.094 285.562,346.320 281.673,345.795 281.673 C 345.588 281.673,345.060 281.315,344.622 280.876 C 344.183 280.438,343.555 280.080,343.226 280.080 C 342.896 280.080,341.958 279.721,341.140 279.283 C 339.911 278.624,338.892 278.486,335.259 278.486 C 331.626 278.486,330.607 278.624,329.378 279.283 M68.965 280.244 C 72.270 281.469,76.494 284.246,76.494 285.194 C 76.494 285.424,76.840 285.854,77.263 286.151 C 77.686 286.447,78.163 287.219,78.324 287.866 C 78.485 288.514,78.991 289.552,79.448 290.173 C 80.699 291.873,80.699 301.354,79.448 303.054 C 78.991 303.675,78.504 304.639,78.365 305.197 C 77.808 307.440,72.503 311.803,69.213 312.724 C 68.166 313.017,67.215 313.411,67.098 313.600 C 66.981 313.790,65.420 313.944,63.630 313.944 C 56.674 313.944,50.959 310.419,47.610 304.061 C 46.272 301.523,45.857 292.321,46.977 290.040 C 51.435 280.957,60.269 277.022,68.965 280.244 M338.247 279.455 C 341.568 280.302,343.988 281.274,344.343 281.904 C 344.518 282.215,344.871 282.470,345.127 282.470 C 345.732 282.470,349.801 286.486,349.801 287.084 C 349.801 287.336,350.143 287.978,350.562 288.510 C 354.754 293.838,351.392 307.025,344.821 311.036 C 338.836 314.689,331.140 314.704,325.843 311.072 C 323.006 309.126,321.912 308.200,321.912 307.743 C 321.912 307.482,321.635 307.039,321.296 306.757 C 318.118 304.119,317.083 294.638,319.430 289.659 C 321.077 286.164,324.056 282.470,325.227 282.470 C 325.451 282.470,325.962 282.174,326.362 281.812 C 327.607 280.685,332.356 279.188,335.458 278.944 C 335.787 278.918,337.042 279.148,338.247 279.455 M102.590 322.311 C 101.713 322.734,100.525 323.087,99.949 323.094 C 99.373 323.101,98.671 323.387,98.387 323.728 C 98.104 324.070,97.320 324.580,96.645 324.863 C 95.069 325.522,91.609 329.354,90.737 331.406 C 90.488 331.991,90.005 332.803,89.664 333.209 C 88.735 334.316,88.755 345.800,89.688 346.871 C 90.042 347.277,90.441 348.072,90.574 348.637 C 90.708 349.202,91.270 350.152,91.823 350.749 C 92.376 351.346,92.829 352.004,92.829 352.212 C 92.829 352.420,93.098 352.590,93.426 352.590 C 93.755 352.590,94.024 352.859,94.024 353.187 C 94.024 353.516,94.158 353.787,94.323 353.790 C 94.487 353.793,95.070 354.153,95.618 354.589 C 98.089 356.559,99.779 357.378,102.266 357.811 C 105.671 358.404,112.273 358.069,113.807 357.225 C 114.430 356.883,115.478 356.337,116.135 356.013 C 118.945 354.628,122.952 349.917,123.854 346.940 C 124.074 346.213,124.526 344.900,124.859 344.024 C 125.702 341.799,125.622 338.455,124.663 335.857 C 124.218 334.651,123.749 333.217,123.621 332.669 C 123.493 332.122,123.011 331.193,122.551 330.605 C 122.090 330.018,121.276 328.931,120.742 328.189 C 119.187 326.030,115.225 323.362,112.935 322.932 C 112.088 322.773,111.032 322.389,110.589 322.079 C 109.362 321.219,104.561 321.359,102.590 322.311 M287.817 322.079 C 287.374 322.389,286.303 322.767,285.438 322.919 C 282.086 323.505,277.099 327.967,275.110 332.159 C 274.776 332.864,274.496 333.760,274.489 334.151 C 274.482 334.541,274.213 335.209,273.892 335.634 C 273.116 336.660,273.084 343.023,273.847 344.542 C 274.145 345.133,274.495 346.178,274.624 346.863 C 275.091 349.322,279.616 354.745,282.271 356.026 C 282.928 356.343,284.004 356.910,284.661 357.285 C 286.160 358.142,296.753 358.242,298.406 357.415 C 300.293 356.472,301.837 355.555,302.526 354.969 C 304.830 353.013,305.976 351.843,305.976 351.447 C 305.976 351.199,306.138 350.996,306.336 350.996 C 309.158 350.996,311.095 335.549,308.629 332.715 C 308.322 332.361,307.749 331.380,307.356 330.535 C 306.539 328.777,303.128 325.259,301.853 324.860 C 301.382 324.712,300.568 324.258,300.046 323.850 C 299.523 323.441,298.717 323.101,298.253 323.094 C 297.790 323.087,296.693 322.734,295.817 322.311 C 293.845 321.359,289.044 321.219,287.817 322.079 M114.498 324.822 C 115.350 325.413,116.202 325.896,116.390 325.896 C 116.700 325.896,117.023 326.148,118.796 327.773 C 120.680 329.500,122.635 332.889,122.926 334.937 C 123.076 335.990,123.469 337.437,123.799 338.152 C 124.347 339.341,124.326 339.739,123.554 342.819 C 123.089 344.671,122.709 346.557,122.709 347.010 C 122.709 347.463,122.440 347.937,122.112 348.063 C 121.783 348.189,121.514 348.571,121.514 348.911 C 121.514 349.661,115.655 355.378,114.886 355.378 C 114.586 355.378,113.671 355.737,112.853 356.175 C 110.759 357.298,103.267 357.337,101.189 356.236 C 100.426 355.832,99.322 355.384,98.736 355.241 C 96.899 354.792,92.231 349.809,91.453 347.466 C 91.080 346.345,90.610 345.325,90.408 345.200 C 89.905 344.889,89.933 335.571,90.438 335.259 C 90.658 335.123,91.037 334.219,91.281 333.249 C 92.024 330.298,97.982 324.718,101.394 323.775 C 104.056 323.040,112.953 323.751,114.498 324.822 M298.756 324.602 C 299.422 325.095,300.207 325.498,300.500 325.498 C 301.011 325.498,304.079 328.271,305.813 330.300 C 306.272 330.836,306.779 331.813,306.940 332.470 C 307.101 333.127,307.518 333.981,307.866 334.367 C 309.103 335.739,309.073 342.898,307.819 345.548 C 307.244 346.764,306.773 348.027,306.773 348.354 C 306.773 349.187,301.200 354.799,299.996 355.178 C 299.451 355.349,298.379 355.823,297.615 356.231 C 295.543 357.337,288.053 357.302,285.952 356.175 C 285.134 355.737,284.195 355.378,283.866 355.378 C 283.537 355.378,282.947 355.065,282.557 354.681 C 282.166 354.298,281.219 353.512,280.452 352.935 C 279.686 352.357,278.257 350.744,277.278 349.349 L 275.498 346.813 275.498 340.040 C 275.498 333.547,275.535 333.229,276.394 332.370 C 276.887 331.877,277.291 331.225,277.291 330.920 C 277.291 330.327,281.466 325.896,282.025 325.896 C 282.208 325.896,282.999 325.462,283.780 324.932 C 286.383 323.166,296.513 322.943,298.756 324.602 M160.778 347.642 C 158.817 348.176,157.114 348.764,156.993 348.947 C 156.872 349.130,156.316 349.531,155.757 349.839 C 152.618 351.567,151.824 352.355,149.791 355.756 C 149.457 356.315,148.829 357.303,148.397 357.950 C 147.045 359.973,147.287 371.888,148.710 373.379 C 148.987 373.668,149.438 374.353,149.714 374.900 C 152.285 380.003,159.123 383.854,165.538 383.812 C 167.901 383.797,173.185 382.479,173.659 381.787 C 173.794 381.590,174.477 381.197,175.177 380.914 C 176.740 380.282,180.876 375.958,180.876 374.956 C 180.876 374.555,181.227 373.910,181.656 373.522 C 182.097 373.123,182.553 372.016,182.707 370.970 C 182.856 369.954,183.223 368.770,183.521 368.338 C 184.235 367.304,184.216 363.551,183.490 362.213 C 183.175 361.631,182.811 360.501,182.683 359.702 C 182.554 358.902,182.095 357.798,181.663 357.248 C 181.230 356.699,180.876 355.976,180.876 355.643 C 180.876 354.787,175.815 349.801,174.946 349.801 C 174.551 349.801,173.903 349.442,173.506 349.004 C 173.109 348.566,172.387 348.207,171.901 348.207 C 171.414 348.207,170.292 347.951,169.406 347.639 C 166.485 346.609,164.563 346.609,160.778 347.642 M230.279 347.425 C 228.855 347.826,227.224 348.166,226.655 348.180 C 226.087 348.195,225.297 348.566,224.900 349.004 C 224.504 349.442,223.901 349.801,223.560 349.801 C 222.852 349.801,217.530 355.250,217.530 355.975 C 217.530 356.237,217.180 356.856,216.752 357.349 C 214.886 359.500,214.863 373.307,216.725 373.307 C 216.906 373.307,217.246 373.859,217.481 374.533 C 217.984 375.976,222.465 380.747,223.669 381.123 C 224.127 381.265,224.599 381.532,224.718 381.716 C 225.191 382.447,232.075 384.122,233.865 383.941 C 236.243 383.700,240.685 382.480,241.434 381.862 C 241.763 381.591,242.401 381.257,242.852 381.120 C 244.929 380.490,250.042 374.334,250.457 371.963 C 250.577 371.278,250.943 369.976,251.270 369.071 C 252.224 366.432,250.958 357.562,249.492 356.620 C 249.283 356.485,248.994 355.997,248.850 355.536 C 248.498 354.408,243.612 349.801,242.767 349.801 C 242.397 349.801,241.756 349.494,241.342 349.120 C 240.738 348.573,233.841 346.523,233.068 346.660 C 232.958 346.680,231.703 347.024,230.279 347.425 M172.710 349.996 C 175.188 351.187,180.080 355.743,180.080 356.862 C 180.080 357.184,180.483 358.012,180.976 358.703 C 181.799 359.858,181.873 360.399,181.873 365.339 C 181.873 370.224,181.790 370.849,180.976 372.159 C 180.483 372.951,180.080 373.849,180.080 374.154 C 180.080 374.985,175.701 379.299,174.104 380.042 C 173.337 380.399,172.206 381.029,171.591 381.442 C 169.790 382.651,160.811 382.527,158.692 381.263 C 154.606 378.825,152.835 377.475,152.109 376.245 C 151.673 375.506,151.174 374.900,151.000 374.900 C 150.826 374.900,150.564 374.422,150.417 373.836 C 150.270 373.251,149.802 372.330,149.378 371.790 C 148.092 370.156,148.258 360.964,149.612 358.765 C 150.152 357.888,150.594 356.858,150.596 356.474 C 150.597 356.091,150.783 355.777,151.009 355.777 C 151.236 355.777,151.785 355.161,152.229 354.407 C 153.033 353.045,153.691 352.535,158.167 349.810 C 160.883 348.156,169.097 348.261,172.710 349.996 M240.062 349.747 C 240.657 350.215,241.361 350.598,241.626 350.598 C 242.591 350.598,247.233 355.056,248.055 356.773 C 248.369 357.430,248.874 358.395,249.177 358.917 C 251.930 363.663,249.616 373.670,244.739 378.108 C 240.474 381.989,230.112 383.866,226.735 381.369 C 226.156 380.940,225.291 380.466,224.814 380.315 C 223.672 379.952,218.327 374.593,218.327 373.811 C 218.327 373.476,217.923 372.553,217.430 371.760 C 216.257 369.874,216.067 360.781,217.175 359.504 C 217.527 359.098,218.017 358.164,218.263 357.430 C 218.758 355.956,223.893 350.598,224.811 350.598 C 225.130 350.598,225.829 350.253,226.364 349.832 C 228.293 348.315,238.163 348.254,240.062 349.747 " stroke="none" fill="#cfcaa7" fill-rule="evenodd"></path></g></svg>